<?xml version="1.0" standalone="no"?>
<!DOCTYPE svg PUBLIC "-//W3C//DTD SVG 1.1//EN" "http://www.w3.org/Graphics/SVG/1.1/DTD/svg11.dtd" >
<svg xmlns="http://www.w3.org/2000/svg" xmlns:xlink="http://www.w3.org/1999/xlink" version="1.1">
<metadata>
Created by FontForge 20170731 at Fri Aug  7 22:11:19 2020
 By Aleksey,,,
copyright missing
</metadata>
<defs>
<font id="Branding-LightItalic" horiz-adv-x="0" >
  <font-face 
    font-family="Branding LightItalic"
    font-weight="300"
    font-style="italic"
    font-stretch="normal"
    units-per-em="2048"
    panose-1="0 0 4 0 0 0 0 0 0 0"
    ascent="1577"
    descent="-471"
    x-height="954"
    cap-height="1321"
    bbox="-1073 -428 2742.45 1702"
    underline-thickness="102"
    underline-position="-307"
    slope="-10"
    unicode-range="U+0020-FB02"
  />
<missing-glyph horiz-adv-x="856" 
d="M422 184l-344 346l344 344l346 -344z" />
    <glyph glyph-name="fi" unicode="fi" horiz-adv-x="1030" 
d="M682 1280q-285 0 -338 -295l-4 -29h586l-168 -956q-18 -6 -39 -6t-39 6l160 893l-510 2l-148 -895q-15 -6 -39 -6q-22 0 -37 6l150 895h-141v27q2 14 10 34h141l4 19q18 104 60 180t101 117.5t123.5 60.5t139.5 19q101 0 168.5 -32t102.5 -73q-5 -18 -20.5 -33.5
t-35.5 -19.5q-47 44 -96 65t-131 21z" />
    <glyph glyph-name="fl" unicode="fl" horiz-adv-x="1146" 
d="M1024 113q33 -17 37 -54q-85 -73 -193 -73q-95 0 -143.5 54.5t-30.5 156.5l180 1044q-86 39 -188 39q-58 0 -109.5 -16.5t-98.5 -50.5t-80.5 -95t-47.5 -143l-4 -19h283q2 -4 2 -16q0 -21 -13 -47l-282 2l-158 -895q-18 -6 -39 -6q-23 0 -35 6l158 895h-141v27
q2 14 10 34h141l2 11q18 102 61.5 179t103 120.5t125 64.5t136.5 21q150 0 256 -64l-186 -1085q-12 -72 18 -110t93 -38q72 0 143 58z" />
    <glyph glyph-name=".notdef" horiz-adv-x="856" 
d="M422 184l-344 346l344 344l346 -344z" />
    <glyph glyph-name=".null" 
 />
    <glyph glyph-name="nonmarkingreturn" horiz-adv-x="682" 
 />
    <glyph glyph-name="space" unicode=" " horiz-adv-x="518" 
 />
    <glyph glyph-name="exclam" unicode="!" horiz-adv-x="460" 
d="M184 303q-6 0 -22 4q58 415 160 1014q16 4 43 4q26 0 38 -4q-102 -580 -198 -1014q-12 -4 -21 -4zM141 -18q-28 0 -48.5 20t-20.5 49q0 28 20.5 48t48.5 20t48 -20t20 -48q0 -29 -20 -49t-48 -20z" />
    <glyph glyph-name="quotedbl" unicode="&#x22;" horiz-adv-x="577" 
d="M244 944q-15 0 -21 4l47 393q29 11 45 11q21 0 43 -11l-92 -393q-8 -4 -22 -4zM463 942q-12 0 -21 6l47 393q21 9 46 9t43 -9l-95 -395q-12 -4 -20 -4z" />
    <glyph glyph-name="numbersign" unicode="#" horiz-adv-x="1273" 
d="M1229 778h-240l-162 -401h213q-3 -37 -26 -66h-213l-166 -407q-41 -12 -72 0l164 407h-393l-166 -407q-41 -12 -72 0l164 407h-235q0 35 24 66h238l162 401h-211q3 38 26 66h211l168 416q41 9 74 0l-168 -416h393l168 416q41 9 74 0l-168 -416h239q-3 -38 -26 -66z
M754 377l161 401h-393l-162 -401h394z" />
    <glyph glyph-name="dollar" unicode="$" horiz-adv-x="946" 
d="M637 1239q165 -10 274 -98q-15 -41 -47 -60q-107 79 -239 86l-80 -454q50 -12 83 -23.5t73 -34.5t63.5 -51.5t40 -75t16.5 -106.5q0 -156 -102.5 -247t-286.5 -97l-31 -178q-20 -4 -32 -4q-15 0 -31 4l31 178q-116 6 -200 41.5t-128 83.5q14 39 53 59q96 -105 287 -115
l90 504q-42 10 -63 15.5t-58 18t-56.5 24.5t-45 32.5t-38.5 44.5t-22.5 58t-9.5 76q0 143 110.5 229t284.5 92l31 172q16 4 33 4q15 0 31 -4zM260 926q0 -48 16.5 -82.5t52 -56.5t67.5 -34t87 -26l78 442q-137 -6 -219 -69t-82 -174zM743 412q0 53 -16 92t-48 64.5t-66 40.5
t-83 28l-86 -490q149 6 224 77t75 188z" />
    <glyph glyph-name="percent" unicode="%" horiz-adv-x="1460" 
d="M127 -96l1118 1411q47 12 82 0l-1118 -1411q-53 -10 -82 0zM391 715q-118 0 -179.5 68.5t-61.5 179.5q0 154 85.5 245.5t217.5 91.5q117 0 179 -68t62 -177q0 -156 -84.5 -248t-218.5 -92zM401 778q102 0 164 73t62 198q0 85 -45 137.5t-140 52.5q-99 0 -163 -74
t-64 -198q0 -85 48.5 -137t137.5 -52zM1036 -14q-118 0 -179.5 68t-61.5 179q0 154 85.5 246t217.5 92q117 0 179 -68.5t62 -178.5q0 -155 -84.5 -246.5t-218.5 -91.5zM1047 49q102 0 163.5 72t61.5 196q0 87 -45 139t-140 52q-99 0 -163 -74t-64 -196q0 -85 48.5 -137
t138.5 -52z" />
    <glyph glyph-name="ampersand" unicode="&#x26;" horiz-adv-x="1189" 
d="M1157 717q0 -25 -14 -53h-217l-107 -611q-164 -76 -354 -76q-184 0 -285.5 82t-101.5 230q0 160 96.5 265.5t243.5 143.5q-82 29 -128 94t-46 162q0 168 120 271.5t295 103.5q189 0 281 -102q-18 -35 -53 -56q-87 91 -238 91q-141 0 -235.5 -85t-94.5 -214
q0 -227 289 -230h547zM752 98l100 566h-266q-101 -1 -183 -29.5t-135.5 -78.5t-82.5 -115.5t-29 -141.5q0 -119 83 -186.5t238 -67.5q161 0 275 53z" />
    <glyph glyph-name="quotesingle" unicode="'" horiz-adv-x="358" 
d="M244 944q-15 0 -21 4l47 393q26 11 45 11q21 0 43 -11l-92 -393q-8 -4 -22 -4z" />
    <glyph glyph-name="parenleft" unicode="(" horiz-adv-x="493" 
d="M182 -356q-98 260 -98 546q0 648 408 1211q36 -3 51 -33q-175 -257 -276 -566t-101 -603q0 -286 80 -531q-18 -27 -64 -24z" />
    <glyph glyph-name="parenright" unicode=")" horiz-adv-x="491" 
d="M-12 -358q-37 3 -51 32q176 256 277 565.5t101 604.5q0 286 -82 530q22 28 64 25q98 -263 98 -547q0 -648 -407 -1210z" />
    <glyph glyph-name="asterisk" unicode="*" horiz-adv-x="681" 
d="M475 1116q0 -6 -4 -18l150 -76q-8 -46 -48 -68l-120 119q-16 -8 -25 -8l-27 -170q-47 -3 -77 27l75 151q-15 11 -20 27l-166 -29q-18 42 0 82l166 -27q3 20 18 29l-78 150q35 32 78 26l29 -166q13 0 29 -8l116 119q41 -25 50 -66l-148 -77q2 -6 2 -17z" />
    <glyph glyph-name="plus" unicode="+" horiz-adv-x="952" 
d="M848 532q3 -9 -1.5 -32.5t-10.5 -34.5h-342l-64 -361q-13 -6 -35.5 -4.5t-32.5 6.5l64 359h-340q-8 38 12 67h340l64 361q10 5 34 5t31 -5l-63 -361h344z" />
    <glyph glyph-name="comma" unicode="," horiz-adv-x="391" 
d="M-8 -268q-12 1 -20.5 9t-10.5 19q59 65 95 165.5t36 201.5q0 47 -8 68q25 7 51.5 4.5t42.5 -11.5q2 -4 2 -34q0 -125 -60 -242t-128 -180z" />
    <glyph glyph-name="hyphen" unicode="-" horiz-adv-x="757" 
d="M141 481v21q0 23 13 45h446v-15q0 -27 -12 -51h-447z" />
    <glyph glyph-name="period" unicode="." horiz-adv-x="415" 
d="M139 -18q-31 0 -52 21t-21 52q0 30 21.5 52t51.5 22t52 -22t22 -52q0 -31 -21.5 -52t-52.5 -21z" />
    <glyph glyph-name="slash" unicode="/" horiz-adv-x="976" 
d="M-68 -373q-16 0 -36 4l1089 1737q18 6 39 6q19 0 37 -6l-1090 -1737q-28 -4 -39 -4z" />
    <glyph glyph-name="zero" unicode="0" horiz-adv-x="1183" 
d="M524 -23q-198 0 -294.5 132t-96.5 366q0 181 38 340t108 279.5t178.5 190t240.5 69.5q194 0 289.5 -130t95.5 -362q0 -186 -33.5 -343.5t-100 -280t-175.5 -192t-250 -69.5zM535 51q107 0 190 48.5t134 126t84 185t45.5 216t12.5 229.5q0 424 -315 424q-99 0 -180.5 -48
t-134.5 -127t-89 -184.5t-51.5 -215.5t-15.5 -226q0 -428 320 -428z" />
    <glyph glyph-name="one" unicode="1" horiz-adv-x="649" 
d="M553 1329q23 0 29 -4l-234 -1325q-18 -6 -41 -6q-20 0 -35 6l217 1229l-323 -162q-30 26 -27 66q363 182 364 182q30 14 50 14z" />
    <glyph glyph-name="two" unicode="2" horiz-adv-x="1038" 
d="M174 74h723q5 -40 -14 -74h-832q-4 12 -4 29q0 47 53 92q191 155 309.5 256t212 192t139.5 158.5t68.5 130.5t22.5 133q0 136 -79 208.5t-214 72.5q-113 0 -190.5 -44t-145.5 -118q-40 8 -47 45q75 88 168.5 139.5t224.5 51.5q104 0 184 -35t130.5 -115t50.5 -197
q0 -43 -5.5 -82t-21 -80t-32 -75.5t-50.5 -78t-62.5 -77.5t-82.5 -85.5t-97 -90t-119 -102t-134.5 -111t-157.5 -127.5l-25 -18z" />
    <glyph glyph-name="three" unicode="3" horiz-adv-x="1019" 
d="M217 1315h752q0 -54 -47 -98l-424 -410q170 -5 281.5 -99t111.5 -264q0 -149 -66 -255.5t-174 -157.5t-245 -51q-139 0 -232 38.5t-139 92.5q12 39 47 57q64 -59 139 -89t195 -30q177 0 287 102.5t110 280.5q0 155 -105.5 235.5t-289.5 80.5h-33v12q0 24 33 59l428 420
h-643q-3 43 14 76z" />
    <glyph glyph-name="four" unicode="4" horiz-adv-x="1003" 
d="M766 455h164q0 -19 -2 -27q0 -20 -13 -43h-161l-66 -385q-24 -4 -37 -4q-15 0 -35 4l66 385h-635q-22 77 39 162l576 811q37 -3 61 -37l-565 -793q-32 -43 -29 -73h565l56 327q28 4 38 4q15 0 35 -4z" />
    <glyph glyph-name="five" unicode="5" horiz-adv-x="1011" 
d="M389 -29q-226 0 -350 113q16 41 51 59q97 -102 305 -102q182 0 295 109t113 296q0 156 -78.5 231t-239.5 75q-63 0 -119.5 -14.5t-95.5 -29t-59 -14.5q-19 0 -31 6l109 615h676q0 -46 -13 -76h-600l-84 -465q40 19 103.5 35t124.5 16q385 0 385 -366q0 -149 -66 -261.5
t-177 -169.5t-249 -57z" />
    <glyph glyph-name="six" unicode="6" horiz-adv-x="1056" 
d="M991 1268q-95 -15 -189.5 -48t-189 -89t-172.5 -129t-139.5 -173t-91.5 -215q159 162 362 162q102 0 181.5 -36t129.5 -116.5t50 -197.5q0 -208 -127 -332.5t-316 -124.5q-185 0 -286 112.5t-101 311.5q0 159 51.5 302t138 250t200 190t237 133t250.5 69q19 -19 12 -69z
M557 702q-106 0 -199 -48t-165 -126q-11 -79 -11 -131q0 -169 82 -263.5t236 -94.5t253 102t99 269q0 75 -24.5 132.5t-66.5 91.5t-93.5 51t-110.5 17z" />
    <glyph glyph-name="seven" unicode="7" horiz-adv-x="944" 
d="M1020 1313q7 -43 -41 -117l-786 -1221q-46 7 -64 37l791 1225h-758q-3 43 14 76h844z" />
    <glyph glyph-name="eight" unicode="8" horiz-adv-x="1062" 
d="M705 680q92 -48 145 -118t53 -177q0 -85 -26.5 -154.5t-71 -116t-104.5 -78t-124.5 -45.5t-132.5 -14q-171 0 -270.5 72t-99.5 230q0 78 31.5 151t83.5 127.5t110.5 95t120.5 66.5q-89 45 -133.5 107t-44.5 155q0 156 116.5 261.5t298.5 105.5q158 0 248 -79.5t90 -205.5
q0 -56 -18.5 -108.5t-47.5 -93t-69 -76.5t-77.5 -60.5t-77.5 -44.5zM319 995q0 -100 64.5 -157.5t200.5 -106.5q9 -3 26.5 -10t26.5 -10q281 136 281 338q0 103 -72.5 165t-200.5 62q-145 0 -235.5 -80t-90.5 -201zM455 47q73 0 137 18t118 55t85.5 102t31.5 151
q0 58 -20.5 104.5t-60 80.5t-84.5 57.5t-107 46.5l-63 24q-60 -21 -118 -58t-108.5 -87t-82 -116t-31.5 -136q0 -126 82.5 -184t220.5 -58z" />
    <glyph glyph-name="nine" unicode="9" horiz-adv-x="1062" 
d="M584 1348q188 0 290.5 -127t102.5 -349q0 -196 -44 -350.5t-119.5 -256.5t-182.5 -169t-227.5 -96t-260.5 -29q-4 12 -4 25q0 19 13 45q139 1 255.5 33.5t214.5 100.5t165 184t94 274q-160 -125 -349 -125q-170 0 -275 94.5t-105 280.5q0 211 123 338t309 127zM549 578
q177 0 342 133q8 63 8 151q0 195 -85 305.5t-241 110.5q-145 0 -245.5 -102t-100.5 -281q0 -82 25.5 -144.5t70.5 -99.5t102 -55t124 -18z" />
    <glyph glyph-name="colon" unicode=":" horiz-adv-x="452" 
d="M268 733q-30 0 -51.5 21.5t-21.5 52.5t22 53.5t51 22.5q32 0 54 -22.5t22 -53.5t-22 -52.5t-54 -21.5zM145 23q-31 0 -53 21.5t-22 53.5q0 31 22 53.5t53 22.5q32 0 54 -22.5t22 -53.5q0 -32 -22 -53.5t-54 -21.5z" />
    <glyph glyph-name="semicolon" unicode=";" horiz-adv-x="501" 
d="M270 672q-30 0 -52.5 22t-22.5 54q0 30 22.5 52.5t52.5 22.5q32 0 54 -22t22 -53q0 -32 -22 -54t-54 -22zM72 -268q-10 0 -18.5 8.5t-8.5 17.5q58 66 92.5 166.5t34.5 202.5q0 45 -6 66q50 17 96 -5v-34q0 -124 -60.5 -240.5t-129.5 -181.5z" />
    <glyph glyph-name="less" unicode="&#x3c;" horiz-adv-x="1087" 
d="M1018 840l-846 -353l-33 -8l31 -10l713 -350q-9 -39 -39 -66l-778 379v33q0 22 14 59l924 381q17 -23 14 -65z" />
    <glyph glyph-name="equal" unicode="=" horiz-adv-x="1007" 
d="M168 610v15q0 25 12 55h690v-14q0 -26 -12 -56h-690zM109 272v15q0 26 12 53h690v-12q0 -26 -12 -56h-690z" />
    <glyph glyph-name="greater" unicode="&#x3e;" horiz-adv-x="1087" 
d="M207 905l788 -381v-18q0 -34 -18 -74l-911 -379q-20 26 -17 66l838 350l33 10l-31 8l-719 353q10 41 37 65z" />
    <glyph glyph-name="question" unicode="?" horiz-adv-x="798" 
d="M293 322q-17 0 -25 4q7 81 34 146.5t65.5 108.5t83.5 79.5t88.5 69.5t79 69t57.5 87t22 115q0 108 -65.5 170t-183.5 62q-128 0 -232 -74q-35 15 -35 49q124 99 273 99q150 0 236.5 -78.5t86.5 -218.5q0 -72 -22.5 -130.5t-59 -99.5t-81.5 -77t-91.5 -72.5t-86 -77
t-68.5 -98.5t-37 -129q-12 -4 -39 -4zM270 -18q-27 0 -47 20t-20 49q0 27 20.5 47.5t46.5 20.5q29 0 49.5 -20t20.5 -48q0 -29 -20.5 -49t-49.5 -20z" />
    <glyph glyph-name="at" unicode="@" horiz-adv-x="1613" 
d="M930 1292q284 0 442 -161t158 -443q0 -225 -104.5 -380.5t-258.5 -155.5q-81 0 -123.5 44.5t-44.5 122.5q-110 -135 -276 -135q-110 0 -180 73.5t-70 205.5q0 104 36 192t96.5 146t139 90.5t164.5 32.5q132 0 242 -88l-78 -445q-14 -81 13.5 -127.5t99.5 -46.5
q111 0 189.5 132.5t78.5 326.5q0 256 -140 400.5t-396 144.5q-157 0 -295.5 -64.5t-235.5 -173t-153 -255t-56 -306.5q0 -157 58.5 -279t178.5 -195t285 -73q152 0 295 62q11 -9 16.5 -27.5t2.5 -36.5q-149 -70 -326 -70q-184 0 -319 81.5t-202 218.5t-67 311
q0 177 64.5 339t174 280t264.5 188.5t327 70.5zM735 252q75 0 147 38.5t124 123.5l71 385q-85 59 -182 59q-143 0 -245.5 -106.5t-102.5 -276.5q0 -102 52 -162.5t136 -60.5z" />
    <glyph glyph-name="A" unicode="A" horiz-adv-x="1138" 
d="M735 1315l271 -1309q-21 -12 -54 -12q-14 0 -26 4l-84 420h-590l-227 -420q-8 -2 -29 -2q-29 0 -49 10l712 1309q12 4 39 4q25 0 37 -4zM289 487h538l-133 662l-12 76l-37 -78z" />
    <glyph glyph-name="B" unicode="B" horiz-adv-x="1130" 
d="M745 680q125 -26 184.5 -96t59.5 -187q0 -195 -140 -308.5t-400 -113.5q-196 0 -349 25l230 1300q145 27 319 27q189 0 286 -72.5t97 -207.5t-73.5 -230t-213.5 -137zM954 1030q0 109 -77 169.5t-238 60.5q-137 0 -242 -17l-94 -534h242q193 0 301 92t108 229zM455 45
q221 0 337.5 94.5t116.5 243.5q0 128 -81.5 192t-252.5 64h-284l-103 -576q140 -18 267 -18z" />
    <glyph glyph-name="C" unicode="C" horiz-adv-x="1189" 
d="M635 -25q-243 0 -376.5 148.5t-133.5 398.5q0 177 53 330t146 260.5t224 169t283 61.5q242 0 379 -137q-17 -40 -53 -57q-126 123 -338 123q-180 0 -320 -96t-216 -264.5t-76 -381.5q0 -223 115 -352t325 -129q225 0 371 125q36 -9 39 -51q-171 -148 -422 -148z" />
    <glyph glyph-name="D" unicode="D" horiz-adv-x="1331" 
d="M639 1333q290 0 446 -147.5t156 -411.5q0 -125 -31.5 -240t-97.5 -216t-160 -175.5t-227 -117.5t-291 -43q-196 0 -332 20l230 1305q162 26 307 26zM449 53q174 0 312 58t223.5 157.5t130 226t44.5 269.5q0 237 -136 366.5t-396 129.5q-120 0 -228 -15l-209 -1175
q119 -17 259 -17z" />
    <glyph glyph-name="E" unicode="E" horiz-adv-x="1050" 
d="M1053 1243h-658l-92 -522h596q5 -35 -12 -72h-596l-103 -577h684q5 -38 -14 -72h-758l234 1315h731q5 -37 -12 -72z" />
    <glyph glyph-name="F" unicode="F" horiz-adv-x="995" 
d="M1055 1243h-658l-100 -567h588q3 -35 -13 -70h-587l-107 -606q-21 -6 -41 -6q-19 0 -37 6l234 1315h735q3 -37 -14 -72z" />
    <glyph glyph-name="G" unicode="G" horiz-adv-x="1271" 
d="M850 1343q243 0 377 -151q-14 -37 -53 -59q-64 69 -144 103t-196 34q-186 0 -329 -94t-220.5 -263t-77.5 -387q0 -221 111.5 -349t334.5 -128q192 0 336 72l78 434h-330q-6 30 13 72h405l-98 -549q-94 -49 -191 -76t-227 -27q-251 0 -381.5 146.5t-130.5 398.5
q0 240 92 428t256.5 291.5t374.5 103.5z" />
    <glyph glyph-name="H" unicode="H" horiz-adv-x="1345" 
d="M1241 1321q22 0 37 -6l-231 -1315q-18 -6 -37 -6q-23 0 -41 6l114 643h-792l-113 -643q-18 -6 -41 -6q-19 0 -37 6l234 1315q15 6 37 6q24 0 39 -6l-107 -602h793l106 602q18 6 39 6z" />
    <glyph glyph-name="I" unicode="I" horiz-adv-x="477" 
d="M139 -6q-22 0 -37 6l232 1315q18 6 39 6q22 0 37 -6l-232 -1315q-18 -6 -39 -6z" />
    <glyph glyph-name="J" unicode="J" horiz-adv-x="727" 
d="M147 -33q-66 0 -120.5 25t-83.5 57q15 41 47 60q37 -36 73.5 -53t94.5 -17q43 0 82.5 13.5t76 43t63.5 82t40 123.5l178 1014q15 6 39 6q22 0 37 -6l-178 -1010q-60 -338 -349 -338z" />
    <glyph glyph-name="K" unicode="K" horiz-adv-x="1107" 
d="M1178 1315q-156 -202 -316.5 -356t-345.5 -275q173 -324 473 -680q-24 -8 -69 -8q-19 0 -27 2q-283 354 -442 643q-58 -36 -177 -100l-96 -541q-18 -6 -41 -6q-20 0 -35 6l232 1315q18 6 39 6q22 0 37 -6l-121 -690q245 135 426.5 291t378.5 401q12 2 39 2q31 0 45 -4z
" />
    <glyph glyph-name="L" unicode="L" horiz-adv-x="927" 
d="M817 68q9 -37 -12 -70h-705l234 1317q18 6 39 6q19 0 37 -6l-222 -1247h629z" />
    <glyph glyph-name="M" unicode="M" horiz-adv-x="1538" 
d="M1423 1319q29 0 50 -8l-232 -1311q-18 -6 -39 -6q-19 0 -37 6l191 1069l18 86l-24 -47l-613 -981q-24 -4 -35 -4q-8 0 -32 4l-281 995l-10 45l-12 -88l-191 -1079q-18 -6 -39 -6q-19 0 -37 6l232 1311q23 10 55 10q15 0 21 -2l299 -1049l12 -55l33 55l649 1047q6 2 22 2z
" />
    <glyph glyph-name="N" unicode="N" horiz-adv-x="1335" 
d="M1231 1323q22 0 37 -6l-232 -1311q-33 -10 -71 -10l-564 1151l-18 45l-6 -53l-201 -1139q-18 -6 -39 -6q-20 0 -35 6l230 1309q37 18 74 10l565 -1161l14 -35l6 47l203 1147q18 6 37 6z" />
    <glyph glyph-name="O" unicode="O" horiz-adv-x="1390" 
d="M633 -23q-239 0 -372.5 148t-133.5 397q0 238 84 425.5t234 291.5t339 104q241 0 376.5 -150.5t135.5 -395.5q0 -374 -181.5 -597t-481.5 -223zM647 49q176 0 305 95t195.5 263t66.5 388q0 218 -115 347.5t-327 129.5q-168 0 -297.5 -97.5t-197.5 -266t-68 -380.5
q0 -223 113.5 -351t324.5 -128z" />
    <glyph glyph-name="P" unicode="P" horiz-adv-x="1091" 
d="M655 1337q207 0 314.5 -93t107.5 -265q0 -105 -33.5 -192t-100.5 -154t-176 -104t-251 -37q-145 0 -248 20l-90 -512q-18 -6 -41 -6q-22 0 -37 6l228 1290h2q143 47 325 47zM526 561q124 0 216.5 32t146.5 88.5t80 128t26 157.5q0 141 -88.5 220t-263.5 79
q-128 0 -248 -27l-114 -655q95 -23 245 -23z" />
    <glyph glyph-name="Q" unicode="Q" horiz-adv-x="1390" 
d="M834 8q224 -68 337 -317q-28 -25 -71 -31q-31 71 -68.5 124t-93 99t-136.5 70t-184 24q-233 4 -362 152t-129 393q0 238 84 425.5t234 291.5t339 104q241 0 376.5 -150.5t135.5 -395.5q0 -305 -123 -513t-339 -276zM209 528q0 -223 113.5 -351t324.5 -128q176 0 305 95
t195.5 263t66.5 388q0 218 -115 347.5t-327 129.5q-168 0 -297.5 -97.5t-197.5 -266t-68 -380.5z" />
    <glyph glyph-name="R" unicode="R" horiz-adv-x="1112" 
d="M1044 1016q0 -190 -112 -309t-299 -148q153 -319 348 -555q-27 -6 -59 -6h-27q-191 234 -342 553h-37q-160 0 -242 10l-98 -561q-15 -6 -39 -6q-22 0 -37 6l228 1294q154 43 327 43q197 0 293 -88t96 -233zM289 635q76 -14 241 -14q213 0 326 109t113 278
q0 112 -82.5 185t-245.5 73q-126 0 -246 -27z" />
    <glyph glyph-name="S" unicode="S" horiz-adv-x="1026" 
d="M420 -29q-274 0 -404 156q13 38 56 57q113 -139 358 -139q176 0 276.5 84t100.5 221q0 60 -20.5 106.5t-55 76.5t-80 54t-95 43l-99 38t-95 45.5t-80 59.5t-55 84.5t-20.5 117.5q0 168 120 266t316 98q246 0 363 -131q-17 -42 -56 -59q-119 119 -315 119q-158 0 -254 -78
t-96 -211q0 -54 20.5 -96t55 -69.5t80 -49.5t95 -41t99 -38.5t95 -47t80 -63t55 -89.5t20.5 -123q0 -174 -126 -282.5t-339 -108.5z" />
    <glyph glyph-name="T" unicode="T" horiz-adv-x="1036" 
d="M1133 1315q5 -35 -13 -70h-446l-217 -1245q-21 -6 -41 -6q-19 0 -37 6l219 1245h-442q-6 30 12 70h965z" />
    <glyph glyph-name="U" unicode="U" horiz-adv-x="1314" 
d="M569 -25q-200 0 -302.5 104t-102.5 288q0 60 14 149l139 799q21 6 41 6q22 0 37 -6l-139 -799q-14 -82 -14 -137q0 -151 84 -239.5t260 -88.5q110 0 192.5 33.5t135 98t83.5 143.5t50 186l141 803q18 6 39 6q22 0 37 -6l-144 -811q-21 -120 -60 -212.5t-103 -165.5
t-162 -112t-226 -39z" />
    <glyph glyph-name="V" unicode="V" horiz-adv-x="1165" 
d="M1163 1321q25 3 43 -8q-48 -185 -107.5 -348t-143 -331t-197.5 -329t-256 -307q-18 -6 -43 -6t-43 6q-109 309 -162 629t-74 686q24 8 45 8q27 0 35 -4q19 -353 68 -659t147 -595q456 497 653 1254q20 4 35 4z" />
    <glyph glyph-name="W" unicode="W" horiz-adv-x="1789" 
d="M1800 1321q29 0 41 -6q-196 -735 -651 -1317q-24 -6 -45 -6q-23 0 -41 6q-106 490 -115 965q0 21 -1 63t-1 64l-37 -125q-92 -286 -216 -517.5t-294 -449.5q-24 -6 -45 -6q-23 0 -47 6q-129 512 -147 1317q20 8 49 8q19 0 31 -4q7 -702 129 -1260q412 577 567 1223
q20 4 39 4q21 0 33 -4q-6 -600 112 -1219q437 589 604 1256q10 2 35 2z" />
    <glyph glyph-name="X" unicode="X" horiz-adv-x="1097" 
d="M1176 1315l-558 -656l334 -655q-24 -6 -59 -6h-25l-309 612l-528 -612h-39q-32 0 -53 6l581 672l-311 639q24 8 59 8h25l289 -598l503 598h23q49 0 68 -8z" />
    <glyph glyph-name="Y" unicode="Y" horiz-adv-x="1085" 
d="M1180 1315l-598 -770l-97 -545q-18 -6 -39 -6t-36 6l96 549l-340 766q32 8 53 8t27 -2l299 -674l10 -29l18 29l523 674q10 2 34 2q22 0 50 -8z" />
    <glyph glyph-name="Z" unicode="Z" horiz-adv-x="1073" 
d="M1081 1210l-970 -1104l-37 -36h850q4 -32 -13 -70h-925q-4 8 -4 27q0 38 30 71l969 1102l41 45h-821q-5 39 12 70h901l2 -21q0 -39 -35 -84z" />
    <glyph glyph-name="bracketleft" unicode="[" horiz-adv-x="534" 
d="M598 1337h-188l-289 -1638h188q6 -33 -12 -70h-264l313 1778h264q6 -36 -12 -70z" />
    <glyph glyph-name="backslash" unicode="\" horiz-adv-x="929" 
d="M686 -373q-17 0 -37 4l-473 1657q24 4 39 4t35 -4l473 -1657q-24 -4 -37 -4z" />
    <glyph glyph-name="bracketright" unicode="]" horiz-adv-x="530" 
d="M221 1407h264l-313 -1778h-264q-3 36 12 70h189l288 1638h-188q-6 33 12 70z" />
    <glyph glyph-name="asciicircum" unicode="^" horiz-adv-x="1003" 
d="M201 717q-35 7 -49 33l477 634q39 9 76 0l258 -643q-24 -18 -62 -24l-244 602z" />
    <glyph glyph-name="underscore" unicode="_" horiz-adv-x="837" 
d="M-115 -133q-2 4 -2 18q0 23 13 45h825l2 -14q0 -32 -14 -49h-824z" />
    <glyph glyph-name="grave" unicode="`" horiz-adv-x="428" 
d="M547 1087l-264 238q20 47 59 61l238 -260q-8 -24 -33 -39z" />
    <glyph glyph-name="a" unicode="a" horiz-adv-x="1069" 
d="M659 985q192 0 306 -82l-160 -907q-36 -6 -72 0l27 182v4q-75 -100 -169.5 -151t-195.5 -51q-64 0 -119.5 21.5t-100 64.5t-70 114.5t-25.5 163.5q0 146 49 269t130.5 203t185 124.5t214.5 44.5zM412 51q99 0 198.5 67t173.5 193l97 547q-75 55 -234 55q-93 0 -179.5 -39
t-155 -108.5t-109.5 -177t-41 -234.5q0 -144 67.5 -223.5t182.5 -79.5z" />
    <glyph glyph-name="b" unicode="b" horiz-adv-x="1081" 
d="M561 985q186 0 297 -105.5t111 -291.5q0 -138 -43.5 -253t-119.5 -192t-178.5 -120t-219.5 -43q-203 0 -330 77l229 1289q15 6 39 6q22 0 37 -6l-72 -408q113 47 250 47zM420 51q204 0 336.5 145.5t132.5 376.5q0 158 -89.5 250t-254.5 92q-140 0 -248 -51l-135 -760
q92 -53 258 -53z" />
    <glyph glyph-name="c" unicode="c" horiz-adv-x="944" 
d="M475 -20q-176 0 -280.5 108.5t-104.5 298.5q0 274 145.5 436t366.5 162q191 0 289 -102q-17 -39 -49 -56q-54 46 -110.5 67t-139.5 21q-99 0 -180 -42t-133.5 -113.5t-80.5 -165t-28 -197.5q0 -156 82 -251t237 -95q148 0 271 101q33 -20 39 -54q-137 -118 -324 -118z
" />
    <glyph glyph-name="d" unicode="d" horiz-adv-x="1077" 
d="M1012 1354q22 0 37 -6l-228 -1293q-134 -75 -321 -75q-193 0 -304.5 105.5t-111.5 295.5q0 268 164 436t414 168q143 0 239 -41l72 404q18 6 39 6zM752 96l137 772q-95 45 -234 45q-217 0 -354 -145t-137 -375q0 -161 91.5 -251.5t250.5 -90.5q141 0 246 45z" />
    <glyph glyph-name="e" unicode="e" horiz-adv-x="978" 
d="M422 416q-141 0 -254 41q-2 -20 -2 -66q0 -164 84.5 -253t232.5 -89q70 0 130 20.5t91 42t66 54.5q35 -14 41 -53q-140 -133 -338 -133q-173 0 -279 102.5t-106 298.5q0 139 42 254.5t113 191t163.5 117t195.5 41.5q137 0 217 -69.5t80 -176.5q0 -145 -120.5 -234
t-356.5 -89zM596 915q-151 0 -267 -105t-151 -286q110 -39 252 -39q194 0 291.5 68.5t97.5 177.5q0 78 -59 131t-164 53z" />
    <glyph glyph-name="f" unicode="f" horiz-adv-x="598" 
d="M623 1352q47 0 90 -11.5t63 -22t33 -20.5q-10 -40 -41 -59q-37 22 -70 31.5t-88 9.5q-96 0 -166 -59.5t-92 -188.5l-12 -76h289q9 -31 -11 -63l-288 2l-148 -895q-15 -6 -39 -6q-19 0 -37 6l150 895h-145q-4 36 10 61h145l10 66q15 89 48.5 154t80.5 103t101 55.5
t117 17.5z" />
    <glyph glyph-name="g" unicode="g" horiz-adv-x="1073" 
d="M649 985q207 0 318 -82l-156 -893q-34 -187 -152 -294t-297 -107q-137 0 -225 41t-149 112q17 38 59 54q104 -138 320 -138q140 0 240 90.5t126 241.5l15 86q-138 -86 -279 -86q-174 0 -277.5 99.5t-103.5 277.5q0 142 47 257.5t126 188.5t179 112.5t209 39.5zM487 80
q137 0 275 94l121 684q-83 55 -244 55q-95 0 -179.5 -34.5t-149.5 -98.5t-103.5 -163t-38.5 -220q0 -150 84.5 -233.5t234.5 -83.5z" />
    <glyph glyph-name="h" unicode="h" horiz-adv-x="1097" 
d="M614 985q105 0 178.5 -29t109.5 -80.5t48 -121.5t-6 -152l-106 -602q-15 -6 -39 -6q-22 0 -37 6l104 586q15 69 6 128.5t-37 104t-88 69.5t-147 25q-90 0 -170.5 -16.5t-128.5 -38.5l-151 -858q-15 -6 -39 -6q-22 0 -37 6l237 1346q18 6 39 6q22 0 37 -6l-74 -416
q133 55 301 55z" />
    <glyph glyph-name="i" unicode="i" horiz-adv-x="428" 
d="M332 1178q-28 0 -49 21t-21 50q0 28 21 49t49 21q29 0 49 -21t20 -49q0 -29 -20 -50t-49 -21zM115 -6q-22 0 -37 6l168 961q18 6 41 6q22 0 37 -6l-170 -961q-18 -6 -39 -6z" />
    <glyph glyph-name="j" unicode="j" horiz-adv-x="456" 
d="M358 1174q-28 0 -48.5 20t-20.5 49t20.5 50.5t48.5 21.5q29 0 49.5 -21.5t20.5 -50.5t-20.5 -49t-49.5 -20zM-143 -399q-120 0 -199 73q14 43 47 60q72 -62 154 -62q84 0 149.5 61.5t87.5 192.5l176 1028q21 7 39 7q19 0 37 -7l-176 -1028q-29 -171 -113.5 -248
t-201.5 -77z" />
    <glyph glyph-name="k" unicode="k" horiz-adv-x="995" 
d="M922 735q0 -71 -28.5 -130t-79 -100t-110 -69t-131.5 -47l246 -387q-32 -8 -53 -8q-27 0 -39 2l-229 364q-19 40 -17 72q179 45 270 114t91 179q0 90 -69 140t-198 50q-160 0 -274 -57l-151 -858q-15 -6 -39 -6q-22 0 -37 6l237 1346q18 6 39 6q22 0 37 -6l-72 -412
q112 51 275 51q156 0 244 -68t88 -182z" />
    <glyph glyph-name="l" unicode="l" horiz-adv-x="559" 
d="M281 -14q-83 0 -132 41t-49 120q0 23 6 50l203 1153q16 4 37 4q17 0 37 -4l-201 -1147q-4 -28 -4 -39q0 -53 30 -81t83 -28q43 0 74.5 14t68.5 44q37 -19 37 -54q-85 -73 -190 -73z" />
    <glyph glyph-name="m" unicode="m" horiz-adv-x="1660" 
d="M1204 985q160 0 237 -75t77 -203q0 -55 -9 -105l-112 -602q-15 -6 -39 -6q-22 0 -37 6l106 573q11 64 11 107q0 108 -59.5 170.5t-188.5 62.5q-167 0 -305 -102q16 -56 16 -113q0 -52 -8 -96l-107 -602q-18 -6 -41 -6q-18 0 -36 6l102 573q10 58 10 99q0 241 -260 241
q-160 0 -264 -51l-154 -862q-15 -6 -39 -6q-21 0 -36 6l159 903q150 82 351 82q200 0 278 -115q166 115 348 115z" />
    <glyph glyph-name="n" unicode="n" horiz-adv-x="1091" 
d="M608 985q175 0 257.5 -76t82.5 -209q0 -43 -10 -98l-107 -602q-15 -6 -38 -6q-22 0 -37 6l104 586q8 41 8 92q0 235 -276 235q-90 0 -170.5 -16.5t-128.5 -38.5l-150 -858q-15 -6 -39 -6q-21 0 -36 6l157 903q164 82 383 82z" />
    <glyph glyph-name="o" unicode="o" horiz-adv-x="1085" 
d="M475 -20q-183 0 -285 111.5t-102 297.5q0 165 61 300.5t177 216.5t266 81q180 0 277.5 -112t97.5 -300q0 -165 -59 -299.5t-172 -215t-261 -80.5zM485 49q94 0 171.5 43t127.5 115t77.5 163.5t27.5 190.5q0 162 -77 258t-230 96q-99 0 -179.5 -44t-130.5 -117t-77 -163.5
t-27 -187.5q0 -160 81 -257t236 -97z" />
    <glyph glyph-name="p" unicode="p" horiz-adv-x="1079" 
d="M557 985q194 0 302 -102.5t108 -284.5q0 -146 -43.5 -265t-118.5 -195t-174 -117t-213 -41q-161 0 -268 49l-72 -412q-18 -6 -39 -6q-22 0 -37 6l225 1286q157 82 330 82zM430 51q96 0 179.5 36t145 102.5t97 168t35.5 226.5q0 155 -86.5 243t-259.5 88q-133 0 -246 -55
l-131 -756q100 -53 266 -53z" />
    <glyph glyph-name="q" unicode="q" horiz-adv-x="1079" 
d="M647 985q211 0 330 -82l-229 -1286q-18 -6 -39 -6q-22 0 -37 6l80 449q-123 -86 -283 -86q-174 0 -278.5 105.5t-104.5 291.5q0 134 44.5 249t120.5 193t178.5 122t217.5 44zM477 53q172 0 291 101l125 708q-94 51 -254 51q-204 0 -338.5 -147.5t-134.5 -380.5
q0 -154 82.5 -243t228.5 -89z" />
    <glyph glyph-name="r" unicode="r" horiz-adv-x="712" 
d="M580 985q110 0 178 -22q-6 -38 -31 -70q-65 20 -164 20q-75 0 -149 -16t-119 -39l-150 -858q-18 -6 -41 -6q-21 0 -36 6l157 903q153 82 355 82z" />
    <glyph glyph-name="s" unicode="s" horiz-adv-x="868" 
d="M354 -18q-120 0 -205 33t-133 81q17 42 50 58q49 -46 118 -74.5t183 -28.5q127 0 200.5 59.5t73.5 157.5q0 57 -27.5 96t-71 59.5t-96.5 36t-106 33t-96.5 42.5t-71 72t-27.5 114q0 115 97 189.5t258 74.5q106 0 185 -28.5t118 -65.5q-14 -35 -45 -57q-104 81 -271 81
q-119 0 -191.5 -52.5t-72.5 -135.5q0 -52 27.5 -88.5t71 -56t96.5 -34.5t106 -33.5t96.5 -44t71 -73.5t27.5 -116q0 -136 -101.5 -217.5t-263.5 -81.5z" />
    <glyph glyph-name="t" unicode="t" horiz-adv-x="743" 
d="M377 893l-103 -588q-12 -52 -12 -106q0 -79 44.5 -114.5t119.5 -35.5q57 0 98.5 16.5t93.5 49.5q31 -22 31 -58q-117 -77 -239 -77q-101 0 -163.5 49.5t-62.5 148.5q0 40 11 101l108 614h-213v16q0 27 12 47h211l47 263q15 6 39 6q23 0 35 -6l-45 -263h365l2 -16
q0 -25 -15 -47h-364z" />
    <glyph glyph-name="u" unicode="u" horiz-adv-x="1079" 
d="M946 958q22 0 37 -6l-160 -895q-180 -82 -383 -82q-164 0 -244.5 73.5t-80.5 205.5q0 38 10 96l104 602q21 6 41 6q22 0 37 -6l-102 -579q-8 -49 -8 -101q0 -106 60 -164.5t200 -58.5q159 0 301 57l147 846q18 6 41 6z" />
    <glyph glyph-name="v" unicode="v" horiz-adv-x="968" 
d="M866 961q35 -74 35 -181q0 -119 -79 -270t-203.5 -287t-260.5 -225q-18 -6 -41 -6q-26 0 -41 6q-52 164 -94.5 444t-48.5 508q24 6 51 6q19 0 31 -4q1 -206 38 -470t73 -390q8 -23 10 -37q4 5 22 23q191 144 327 348t136 352q0 104 -37 183q8 4 35 4q23 0 47 -4z" />
    <glyph glyph-name="w" unicode="w" horiz-adv-x="1488" 
d="M1384 963q33 -70 33 -181q0 -123 -71.5 -279.5t-175.5 -289t-212 -215.5q-18 -6 -40 -6q-26 0 -41 6q-73 213 -125 590q-49 -167 -156 -329t-223 -261q-18 -6 -41 -6q-27 0 -39 6q-60 166 -109 445.5t-53 506.5q24 6 49 6q19 0 31 -4q1 -208 44 -471t85 -387
q2 -12 10 -41q8 10 23 25q89 90 167.5 208.5t133 258t55.5 254.5q-4 48 -8 151q24 6 49 6q19 0 31 -4q0 -214 40 -470t83 -388q7 -22 10 -41q4 5 24 25q150 139 266.5 342.5t116.5 361.5q0 107 -38 181q12 4 40 4q17 0 41 -4z" />
    <glyph glyph-name="x" unicode="x" horiz-adv-x="905" 
d="M899 956l-412 -473l275 -479q-16 -8 -39 -8q-22 -4 -41 0l-250 438l-395 -440q-64 -4 -84 8l444 494l-254 456q18 6 45 9h37l228 -418l362 422q51 4 84 -9z" />
    <glyph glyph-name="y" unicode="y" horiz-adv-x="1079" 
d="M940 958q23 0 35 -6l-166 -942q-33 -190 -148 -295.5t-299 -105.5q-243 0 -344 133q16 41 60 53q91 -117 287 -117q154 0 247.5 87.5t120.5 244.5l19 103q-153 -82 -322 -82q-182 0 -255 101t-42 274l96 546q18 6 39 6q22 0 37 -6l-92 -526q-15 -68 -9 -127t30 -102.5
t81.5 -68t145.5 -24.5q157 0 305 89l133 759q18 6 41 6z" />
    <glyph glyph-name="z" unicode="z" horiz-adv-x="935" 
d="M860 936q0 -38 -43 -84l-651 -715q134 -90 311 -90q158 0 311 66q26 -23 23 -60q-148 -71 -340 -71q-207 0 -358 98l-86 -94q-43 0 -43 30q0 8 2.5 15.5t10 17.5t11.5 15t17 19.5t16 18.5l694 762l29 25h-627q-4 32 10 65h711q2 -4 2 -18z" />
    <glyph glyph-name="braceleft" unicode="{" horiz-adv-x="583" 
d="M662 1407q3 -34 -13 -70h-67q-65 0 -103 -45.5t-55 -142.5l-70 -399q-28 -174 -135 -226q86 -51 55 -225l-73 -412q-15 -92 7 -134t87 -42h67q3 -35 -12 -69h-69q-100 0 -136.5 68t-17.5 177l72 412q17 96 -3.5 142t-84.5 46h-54q-2 6 -2 21q0 26 15 53h55q63 0 99.5 46
t54.5 143l69 399q20 114 82 186t162 72h70z" />
    <glyph glyph-name="bar" unicode="|" horiz-adv-x="462" 
d="M35 -352l307 1738q36 13 70 0l-308 -1738q-15 -6 -35.5 -6t-33.5 6z" />
    <glyph glyph-name="braceright" unicode="}" horiz-adv-x="583" 
d="M514 561q2 -6 2 -22q0 -27 -14 -52h-56q-63 0 -99 -45.5t-54 -142.5l-74 -412q-19 -109 -79 -177t-160 -68h-70q-3 34 12 69h68q65 0 101.5 42t51.5 134l74 412q27 170 135 225q-87 51 -55 226l70 399q17 96 -4.5 142t-86.5 46h-67q-3 33 12 70h70q100 0 135.5 -72
t15.5 -186l-69 -399q-17 -96 3.5 -142.5t82.5 -46.5h55z" />
    <glyph glyph-name="asciitilde" unicode="~" horiz-adv-x="1048" 
d="M178 360q-40 6 -55 33q86 131 235 131q62 0 162 -43t146 -43q109 0 168 92q40 0 55 -30q-40 -65 -101.5 -100t-134.5 -35q-61 0 -159 43t-148 43q-110 0 -168 -91z" />
    <glyph glyph-name="uni00A0" unicode="&#xa0;" horiz-adv-x="518" 
 />
    <glyph glyph-name="exclamdown" unicode="&#xa1;" horiz-adv-x="432" 
d="M274 850q-28 0 -47.5 20t-19.5 48t19.5 48.5t47.5 20.5q29 0 49.5 -20.5t20.5 -48.5t-20.5 -48t-49.5 -20zM57 -358q-23 0 -41 6q106 578 199 1014q8 2 23 2q14 0 20 -2q-73 -520 -160 -1014q-21 -6 -41 -6z" />
    <glyph glyph-name="cent" unicode="&#xa2;" horiz-adv-x="974" 
d="M676 1112q173 -5 276 -108q-18 -38 -55 -56q-91 87 -233 92l-142 -819h8q85 0 149 25t126 71q32 -19 35 -57q-154 -110 -322 -110h-8l-37 -209q-20 -4 -33 -4q-10 0 -30 4l36 213q-148 19 -235.5 118.5t-87.5 268.5q0 128 40 234t108.5 175.5t155 110.5t183.5 49l39 221
q10 2 33 2t31 -2zM203 553q0 -137 67.5 -222t188.5 -104l139 811q-177 -17 -286 -151t-109 -334z" />
    <glyph glyph-name="sterling" unicode="&#xa3;" horiz-adv-x="1060" 
d="M694 1346q210 0 312 -121q-13 -40 -54 -58q-98 109 -268 109q-155 0 -246.5 -106.5t-91.5 -268.5q0 -135 -6 -237h379q5 -31 -12 -70h-371q-9 -121 -32.5 -218t-40 -136.5t-60.5 -133.5q-13 -26 -13 -34h717v-19q0 -21 -12 -53h-813q4 59 39 121q63 107 94.5 206.5
t44.5 266.5h-149q-3 35 12 70h141q4 126 4 221q0 110 33.5 198.5t91.5 145.5t135 87t166 30z" />
    <glyph glyph-name="currency" unicode="&#xa4;" horiz-adv-x="1224" 
d="M594 162q-192 0 -305 110l-125 -112q-32 18 -43 49l125 113q-72 101 -72 251q0 223 135 371l-84 94q15 34 49 49l82 -94q126 107 308 107q185 0 299 -117l127 115q29 -14 45 -47l-129 -115q71 -104 71 -252q0 -111 -36 -209t-105 -170l82 -90q-18 -35 -51 -49l-80 90
q-121 -94 -293 -94zM602 236q127 0 219.5 61.5t137.5 160.5t45 220q0 162 -97.5 255t-249.5 93q-185 0 -297 -127.5t-112 -316.5q0 -164 97.5 -255t256.5 -91z" />
    <glyph glyph-name="yen" unicode="&#xa5;" horiz-adv-x="1064" 
d="M1130 1303l-520 -674h254v-15q0 -25 -12 -49h-281l-30 -172h282v-14q0 -24 -12 -51h-283l-57 -328q-18 -6 -41 -6q-22 0 -37 6l58 328h-285v14q0 26 10 51h287l31 172h-287v15q0 22 12 49h256l-287 674q24 6 56 6q22 0 28 -2l265 -637l8 -25l16 25l492 637q8 2 32 2
q27 0 45 -6z" />
    <glyph glyph-name="brokenbar" unicode="&#xa6;" horiz-adv-x="460" 
d="M217 678l125 708q15 6 36.5 6t33.5 -6l-125 -708q-15 -6 -35.5 -6t-34.5 6zM35 -352l125 708q41 14 69 0l-125 -708q-15 -6 -35.5 -6t-33.5 6z" />
    <glyph glyph-name="section" unicode="&#xa7;" horiz-adv-x="1052" 
d="M485 276l-221 269q-108 130 -106 286q2 146 74.5 265.5t189 184.5t250.5 65q68 0 123 -11t98 -33.5t70.5 -43t62.5 -52.5q-14 -44 -55 -59q-42 41 -73.5 63.5t-93 42t-140.5 19.5q-114 0 -212 -54t-158 -153.5t-61 -224.5q0 -66 22 -121t71 -117l223 -274
q-20 -38 -64 -52zM385 -215q-69 0 -124.5 11t-99 34t-70 42.5t-62.5 51.5q14 45 55 60q43 -41 75 -63.5t93.5 -42t140.5 -19.5q114 0 211.5 54t156.5 154t60 226q0 65 -22 119t-70 114l-223 275q19 39 63 53l224 -268q104 -130 104 -287q-2 -146 -74 -265t-188 -184
t-250 -65z" />
    <glyph glyph-name="dieresis" unicode="&#xa8;" horiz-adv-x="645" 
d="M344 1167q-27 0 -47.5 20.5t-20.5 47.5q0 26 20.5 45.5t47.5 19.5q28 0 47 -19t19 -46q0 -28 -19 -48t-47 -20zM739 1167q-27 0 -47 20.5t-20 47.5q0 26 20.5 45.5t46.5 19.5q27 0 46.5 -19t19.5 -46q0 -28 -19 -48t-47 -20z" />
    <glyph glyph-name="copyright" unicode="&#xa9;" horiz-adv-x="1497" 
d="M684 -43q-252 0 -404.5 161.5t-152.5 411.5q0 225 89.5 401.5t253 276t374.5 99.5q165 0 291.5 -76.5t193 -206.5t66.5 -291q0 -229 -89 -405.5t-250.5 -273.5t-371.5 -97zM694 18q285 0 461 195.5t176 509.5q0 225 -136 373.5t-361 148.5q-192 0 -339 -90.5t-226 -250.5
t-79 -365q0 -226 137 -373.5t367 -147.5zM719 240q-139 0 -223 87t-84 242q0 100 33.5 185.5t90 142.5t131 89t156.5 32q146 0 236 -86q-13 -34 -49 -55q-69 73 -199 73q-149 0 -238.5 -108t-89.5 -260q0 -126 64.5 -200.5t183.5 -74.5q129 0 230 90q29 -16 32 -53
q-61 -51 -123.5 -77.5t-150.5 -26.5z" />
    <glyph glyph-name="ordfeminine" unicode="&#xaa;" horiz-adv-x="743" 
d="M502 1362q108 0 164 -58t34 -180l-65 -370q-120 -56 -254 -56q-102 0 -156.5 46.5t-54.5 123.5q0 110 80.5 173t202.5 63q95 0 172 -43l12 65q16 89 -26.5 130.5t-125.5 41.5q-104 2 -192 -63q-29 13 -29 45q102 82 238 82zM240 881q0 -58 40 -90.5t115 -32.5
q94 0 183 33l36 206q-76 50 -168 50q-97 0 -151.5 -46t-54.5 -120z" />
    <glyph glyph-name="guillemotleft" unicode="&#xab;" horiz-adv-x="786" 
d="M285 231l-197 293l299 299q26 -9 31 -32l-232 -265l142 -264q-14 -22 -43 -31zM549 231l-195 293l299 299q24 -9 29 -32l-231 -265l141 -264q-14 -22 -43 -31z" />
    <glyph glyph-name="registered" unicode="&#xae;" horiz-adv-x="1495" 
d="M881 1516q165 0 291.5 -76t193 -205.5t66.5 -290.5q0 -229 -89 -406t-250.5 -274.5t-371.5 -97.5q-252 0 -404.5 161.5t-152.5 411.5q0 225 89 401.5t252.5 276t375.5 99.5zM731 227q285 0 461 196.5t176 510.5q0 147 -59.5 264.5t-174 186.5t-264.5 69q-192 0 -339 -90
t-225.5 -249.5t-78.5 -364.5q0 -228 137 -375.5t367 -147.5zM844 1249q128 0 193 -54.5t65 -150.5q0 -97 -54.5 -164t-150.5 -94l123 -331q-24 -6 -43 -6h-29l-123 325q-14 -2 -47 -2q-91 0 -160 14l-59 -329q-12 -6 -29 -6q-19 0 -34 6l133 749h2l2 15q100 28 211 28z
M788 834q129 1 187.5 56.5t58.5 141.5q0 71 -49.5 113.5t-150.5 42.5q-85 0 -148 -14l-57 -324q59 -19 159 -16z" />
    <glyph glyph-name="macron" unicode="&#xaf;" horiz-adv-x="608" 
d="M268 1174q-2 4 -2 16q0 16 13 49h491l2 -16q0 -28 -14 -49h-490z" />
    <glyph glyph-name="degree" unicode="&#xb0;" horiz-adv-x="673" 
d="M438 928q-95 0 -162 67t-67 162q0 94 67 160.5t162 66.5q94 0 162 -67t68 -160q0 -95 -68 -162t-162 -67zM438 985q70 0 120 50.5t50 121.5t-50 120.5t-120 49.5q-71 0 -121.5 -50t-50.5 -120q0 -71 51 -121.5t121 -50.5z" />
    <glyph glyph-name="plusminus" unicode="&#xb1;" horiz-adv-x="1036" 
d="M907 643q4 -11 0 -34.5t-10 -33.5h-342l-59 -339q-38 -13 -68 -3l59 342h-342q-6 30 13 68h342l59 338q12 5 35.5 5t32.5 -5l-60 -338h340zM59 80h750q3 -9 -1 -33.5t-11 -34.5h-750q-7 36 12 68z" />
    <glyph glyph-name="acute" unicode="&#xb4;" horiz-adv-x="415" 
d="M270 1085q-19 15 -28 43l319 261q40 -21 49 -68z" />
    <glyph glyph-name="paragraph" unicode="&#xb6;" horiz-adv-x="1091" 
d="M1014 1278l-4 -14h2l-287 -1620q-18 -6 -39 -6q-19 0 -37 6l152 860q-125 -25 -256 -25q-208 0 -317 96.5t-109 262.5q0 221 148 356t417 135q191 0 330 -51zM557 551q137 0 258 27l113 647q-109 32 -256 32q-229 0 -350 -113.5t-121 -299.5q0 -138 89 -215.5t267 -77.5z
M477 295q24 4 39 4t35 -4l-115 -651q-15 -6 -37 -6t-37 6z" />
    <glyph glyph-name="periodcentered" unicode="&#xb7;" horiz-adv-x="436" 
d="M233 606q-28 0 -48.5 20.5t-20.5 49.5q0 28 20.5 48.5t48.5 20.5q29 0 50.5 -20.5t21.5 -48.5q0 -29 -21.5 -49.5t-50.5 -20.5z" />
    <glyph glyph-name="cedilla" unicode="&#xb8;" horiz-adv-x="419" 
d="M172 6h59l-41 -98q71 -15 106.5 -42.5t35.5 -82.5q0 -46 -21.5 -80.5t-57 -53t-74.5 -27.5t-81 -9q-85 0 -110 18q7 35 26 54q38 -15 90 -15q66 0 111 26t45 77q0 44 -32.5 61.5t-118.5 30.5z" />
    <glyph glyph-name="ordmasculine" unicode="&#xba;" horiz-adv-x="825" 
d="M457 700q-125 0 -197 76.5t-72 206.5q0 169 97.5 274t246.5 105q123 0 195 -76.5t72 -208.5q0 -167 -96.5 -272t-245.5 -105zM467 764q122 0 193 85.5t71 219.5q0 106 -54 167.5t-155 61.5q-122 0 -193 -85.5t-71 -219.5q0 -106 54 -167.5t155 -61.5z" />
    <glyph glyph-name="guillemotright" unicode="&#xbb;" horiz-adv-x="794" 
d="M121 231q-25 8 -31 31l232 260l-138 269q12 23 41 32l195 -299zM395 231q-28 9 -33 31l234 260l-139 269q16 24 43 32l192 -299z" />
    <glyph glyph-name="onequarter" unicode="&#xbc;" horiz-adv-x="1437" 
d="M1233 1350q39 9 78 0l-1184 -1448q-43 -9 -78 0zM381 1235l-182 -92q-25 25 -25 57q23 12 61 31q115 59 145.5 71.5t59.5 12.5q13 0 25 -4l-135 -772q-10 -2 -35 -2q-27 0 -37 2zM1214 244h101q0 -15 -2 -21q0 -13 -8 -45h-103l-31 -178q-24 -4 -34 -4q-13 0 -33 4
l31 178h-361q-18 62 23 119l346 496q37 0 61 -31l-323 -457q-27 -37 -27 -61h293l41 233q12 2 35 2q20 0 32 -2z" />
    <glyph glyph-name="onehalf" unicode="&#xbd;" horiz-adv-x="1449" 
d="M1239 1350q41 9 78 0l-1184 -1448q-41 -9 -78 0zM381 1235l-182 -92q-25 25 -25 57q23 12 61 31q115 59 145.5 71.5t59.5 12.5q13 0 25 -4l-135 -772q-10 -2 -35 -2q-27 0 -37 2zM915 66h381q4 -30 -12 -66h-502q-2 2 -2 12q0 32 35 60q294 265 364 345t70 165
q0 57 -42 94t-105 37q-104 0 -184 -76q-33 7 -37 39q94 102 231 102q88 0 147.5 -49.5t59.5 -140.5q0 -28 -4.5 -53.5t-20 -54t-27 -49.5t-42.5 -55t-49.5 -54t-66 -63t-72.5 -65t-86 -76l-48 -42l-20 -13z" />
    <glyph glyph-name="threequarters" unicode="&#xbe;" horiz-adv-x="1507" 
d="M1358 1350q40 9 78 0l-1184 -1448q-44 -9 -78 0zM645 831q0 -57 -17 -104.5t-46 -80.5t-68 -56t-82.5 -34t-89.5 -11q-153 0 -229 86q11 32 45 49q26 -25 43.5 -37.5t56.5 -23.5t94 -11q92 0 157.5 56.5t65.5 152.5q0 166 -208 166h-41q-2 2 -2 10q0 21 22 43l219 213
h-366q0 38 12 66h471q0 -35 -29 -64l-229 -213q103 -5 162 -56t59 -151zM1321 477l-41 -233h102q-1 -3 -2 -11t-2 -12q0 -19 -8 -43h-102l-31 -178q-24 -4 -35 -4q-13 0 -33 4l31 178h-360q-17 61 24 119l346 496q34 0 62 -31l-324 -457q-28 -39 -26 -61h290l41 233
q12 2 35 2q21 0 33 -2z" />
    <glyph glyph-name="questiondown" unicode="&#xbf;" horiz-adv-x="786" 
d="M469 840q-28 0 -49 20t-21 49q0 28 21 48t49 20q29 0 48.5 -20t19.5 -48q0 -29 -19.5 -49t-48.5 -20zM311 -346q-152 0 -239 78t-86 217q1 71 24 129t59.5 98.5t81 77t90.5 73t85.5 77.5t68.5 100t37 131q12 4 39 4q17 0 25 -4q-7 -81 -34.5 -147t-66 -109.5t-83.5 -81
t-89 -71.5t-80 -70t-58 -86.5t-22 -112.5q0 -106 67 -167.5t185 -61.5q130 0 232 73q35 -17 35 -49q-57 -45 -128.5 -71.5t-142.5 -26.5z" />
    <glyph glyph-name="Agrave" unicode="&#xc0;" horiz-adv-x="1138" 
d="M881 1444q-8 -27 -27 -43l-309 184q12 47 49 70zM735 1315l271 -1309q-21 -12 -54 -12q-14 0 -26 4l-84 420h-590l-227 -420q-8 -2 -29 -2q-29 0 -49 10l712 1309q12 4 39 4q25 0 37 -4zM289 487h538l-133 662l-12 76l-37 -78z" />
    <glyph glyph-name="Aacute" unicode="&#xc1;" horiz-adv-x="1138" 
d="M549 1401q-18 16 -21 41l357 207q29 -18 35 -68zM735 1315l271 -1309q-21 -12 -54 -12q-14 0 -26 4l-84 420h-590l-227 -420q-8 -2 -29 -2q-29 0 -49 10l712 1309q12 4 39 4q25 0 37 -4zM289 487h538l-133 662l-12 76l-37 -78z" />
    <glyph glyph-name="Acircumflex" unicode="&#xc2;" horiz-adv-x="1138" 
d="M477 1386q-21 12 -24 39l258 217q34 6 61 0l184 -217q-9 -21 -36 -39l-187 191zM735 1315l271 -1309q-21 -12 -54 -12q-14 0 -26 4l-84 420h-590l-227 -420q-8 -2 -29 -2q-29 0 -49 10l712 1309q12 4 39 4q25 0 37 -4zM289 487h538l-133 662l-12 76l-37 -78z" />
    <glyph glyph-name="Atilde" unicode="&#xc3;" horiz-adv-x="1138" 
d="M457 1440q-40 4 -54 24q44 73 89.5 106.5t113.5 33.5q47 0 95 -23t91.5 -45.5t79.5 -22.5q37 0 67 25t48 68q37 0 55 -21q-28 -67 -73 -103t-101 -36q-48 0 -95 22.5t-90 45t-81 22.5q-46 0 -79 -24t-66 -72zM698 1319q25 0 37 -4l271 -1309q-21 -12 -54 -12q-14 0 -26 4
l-84 420h-590l-227 -420q-8 -2 -29 -2q-29 0 -49 10l712 1309q12 4 39 4zM289 487h538l-133 662l-12 76l-37 -78z" />
    <glyph glyph-name="Adieresis" unicode="&#xc4;" horiz-adv-x="1138" 
d="M526 1473q-27 0 -46 19t-19 46q0 26 19.5 46t45.5 20q28 0 48 -20t20 -46q0 -27 -20 -46t-48 -19zM920 1473q-27 0 -46.5 19t-19.5 46q0 26 20 46t46 20q28 0 47.5 -20t19.5 -46q0 -28 -19.5 -46.5t-47.5 -18.5zM735 1315l271 -1309q-21 -12 -54 -12q-14 0 -26 4l-84 420
h-590l-227 -420q-8 -2 -29 -2q-29 0 -49 10l712 1309q12 4 39 4q25 0 37 -4zM289 487h538l-133 662l-12 76l-37 -78z" />
    <glyph glyph-name="Aring" unicode="&#xc5;" horiz-adv-x="1138" 
d="M705 1339q-73 0 -115.5 44t-42.5 112q0 91 57.5 149t134.5 58q73 0 115.5 -43.5t42.5 -110.5q0 -97 -55 -153t-137 -56zM733 1645q-53 0 -90 -41t-37 -101q0 -47 27 -76.5t80 -29.5q57 0 91 39t34 104q0 46 -26 75.5t-79 29.5zM735 1315l271 -1309q-21 -12 -54 -12
q-14 0 -26 4l-84 420h-590l-227 -420q-8 -2 -29 -2q-29 0 -49 10l712 1309q12 4 39 4q25 0 37 -4zM289 487h538l-133 662l-12 76l-37 -78z" />
    <glyph glyph-name="AE" unicode="&#xc6;" horiz-adv-x="1544" 
d="M1544 1243h-559l-106 -610h499q5 -38 -12 -72h-502l-86 -489h588q6 -35 -12 -72h-664l98 561h-378l-420 -563q-16 -4 -27 -4q-26 0 -53 10l975 1311h674q3 -36 -15 -72zM801 633l98 555l8 45l-33 -47l-411 -553h338z" />
    <glyph glyph-name="Ccedilla" unicode="&#xc7;" horiz-adv-x="1189" 
d="M831 1343q242 0 379 -137q-17 -40 -53 -57q-126 123 -338 123q-180 0 -320 -96t-216 -264.5t-76 -381.5q0 -223 115 -352t325 -129q225 0 371 125q36 -9 39 -51q-165 -143 -406 -148l-28 -67q71 -15 106 -42.5t35 -82.5q0 -46 -21.5 -80.5t-57 -53t-74.5 -27.5t-81 -9
q-85 0 -110 18q7 35 26 54q38 -15 91 -15q65 0 110 26t45 77q0 44 -32.5 61.5t-118.5 30.5l51 112q-223 13 -345 160t-122 385q0 177 53 330t146 260.5t224 169t283 61.5z" />
    <glyph glyph-name="Egrave" unicode="&#xc8;" horiz-adv-x="1050" 
d="M895 1444q-8 -27 -27 -43l-309 184q12 47 49 70zM1053 1243h-658l-92 -522h596q5 -35 -12 -72h-596l-103 -577h684q5 -38 -14 -72h-758l234 1315h731q5 -37 -12 -72z" />
    <glyph glyph-name="Eacute" unicode="&#xc9;" horiz-adv-x="1050" 
d="M561 1401q-17 15 -20 41l356 207q29 -18 35 -68zM1053 1243h-658l-92 -522h596q5 -35 -12 -72h-596l-103 -577h684q5 -38 -14 -72h-758l234 1315h731q5 -37 -12 -72z" />
    <glyph glyph-name="Ecircumflex" unicode="&#xca;" horiz-adv-x="1050" 
d="M489 1386q-21 12 -24 39l258 217q34 6 61 0l185 -217q-9 -20 -37 -39l-187 191zM1053 1243h-658l-92 -522h596q5 -35 -12 -72h-596l-103 -577h684q5 -38 -14 -72h-758l234 1315h731q5 -37 -12 -72z" />
    <glyph glyph-name="Edieresis" unicode="&#xcb;" horiz-adv-x="1050" 
d="M541 1473q-27 0 -46.5 19t-19.5 46q0 26 20 46t46 20q27 0 47 -20t20 -46q0 -28 -19.5 -46.5t-47.5 -18.5zM934 1473q-27 0 -46.5 19t-19.5 46q0 26 20 46t46 20q28 0 47.5 -20t19.5 -46q0 -28 -19.5 -46.5t-47.5 -18.5zM1053 1243h-658l-92 -522h596q5 -35 -12 -72h-596
l-103 -577h684q5 -38 -14 -72h-758l234 1315h731q5 -37 -12 -72z" />
    <glyph glyph-name="Igrave" unicode="&#xcc;" horiz-adv-x="477" 
d="M539 1401l-310 184q12 46 50 70l286 -211q-8 -28 -26 -43zM139 -6q-22 0 -37 6l232 1315q18 6 39 6q22 0 37 -6l-232 -1315q-18 -6 -39 -6z" />
    <glyph glyph-name="Iacute" unicode="&#xcd;" horiz-adv-x="477" 
d="M233 1401q-17 15 -20 41l356 207q29 -18 35 -68zM139 -6q-22 0 -37 6l232 1315q18 6 39 6q22 0 37 -6l-232 -1315q-18 -6 -39 -6z" />
    <glyph glyph-name="Icircumflex" unicode="&#xce;" horiz-adv-x="477" 
d="M457 1642l149 -225q-11 -23 -37 -33l-149 189l-215 -191q-25 8 -31 33l232 227q24 3 51 0zM139 -6q-22 0 -37 6l232 1315q18 6 39 6q22 0 37 -6l-232 -1315q-18 -6 -39 -6z" />
    <glyph glyph-name="Idieresis" unicode="&#xcf;" horiz-adv-x="477" 
d="M250 1473q-27 0 -46.5 19t-19.5 46q0 26 20 46t46 20q27 0 46 -19.5t19 -46.5q0 -28 -18.5 -46.5t-46.5 -18.5zM567 1473q-27 0 -46 19t-19 46q0 26 19.5 46t45.5 20q27 0 46.5 -19.5t19.5 -46.5q0 -28 -19 -46.5t-47 -18.5zM139 -6q-22 0 -37 6l232 1315q18 6 39 6
q22 0 37 -6l-232 -1315q-18 -6 -39 -6z" />
    <glyph glyph-name="Eth" unicode="&#xd0;" horiz-adv-x="1331" 
d="M639 1333q290 0 446 -147.5t156 -411.5q0 -125 -31.5 -240t-97.5 -216t-160 -175.5t-227 -117.5t-291 -43q-196 0 -332 20l111 625h-176q-4 36 10 55h174l111 625q162 26 307 26zM449 53q174 0 312 58t223.5 157.5t130 226t44.5 269.5q0 237 -136 366.5t-396 129.5
q-120 0 -228 -15l-100 -563h190q3 -31 -10 -55h-190l-99 -557q119 -17 259 -17z" />
    <glyph glyph-name="Ntilde" unicode="&#xd1;" horiz-adv-x="1335" 
d="M571 1440q-39 3 -53 24q44 73 89.5 106.5t113.5 33.5q47 0 95 -23t91.5 -45.5t79.5 -22.5q37 0 67 25t48 68q38 0 55 -21q-28 -67 -73 -103t-101 -36q-48 0 -95 22.5t-90 45t-81 22.5q-46 0 -80 -24.5t-66 -71.5zM1231 1323q22 0 37 -6l-232 -1311q-33 -10 -71 -10
l-564 1151l-18 45l-6 -53l-201 -1139q-18 -6 -39 -6q-20 0 -35 6l230 1309q37 18 74 10l565 -1161l14 -35l6 47l203 1147q18 6 37 6z" />
    <glyph glyph-name="Ograve" unicode="&#xd2;" horiz-adv-x="1390" 
d="M944 1401l-309 184q12 47 49 70l287 -211q-8 -27 -27 -43zM633 -23q-239 0 -372.5 148t-133.5 397q0 238 84 425.5t234 291.5t339 104q241 0 376.5 -150.5t135.5 -395.5q0 -374 -181.5 -597t-481.5 -223zM647 49q176 0 305 95t195.5 263t66.5 388q0 218 -115 347.5
t-327 129.5q-168 0 -297.5 -97.5t-197.5 -266t-68 -380.5q0 -223 113.5 -351t324.5 -128z" />
    <glyph glyph-name="Oacute" unicode="&#xd3;" horiz-adv-x="1390" 
d="M639 1401q-18 16 -21 41l357 207q29 -18 35 -68zM633 -23q-239 0 -372.5 148t-133.5 397q0 238 84 425.5t234 291.5t339 104q241 0 376.5 -150.5t135.5 -395.5q0 -374 -181.5 -597t-481.5 -223zM647 49q176 0 305 95t195.5 263t66.5 388q0 218 -115 347.5t-327 129.5
q-168 0 -297.5 -97.5t-197.5 -266t-68 -380.5q0 -223 113.5 -351t324.5 -128z" />
    <glyph glyph-name="Ocircumflex" unicode="&#xd4;" horiz-adv-x="1390" 
d="M862 1642l185 -217q-9 -20 -37 -39l-187 191l-256 -191q-21 12 -24 39l258 217q34 6 61 0zM633 -23q-239 0 -372.5 148t-133.5 397q0 238 84 425.5t234 291.5t339 104q241 0 376.5 -150.5t135.5 -395.5q0 -374 -181.5 -597t-481.5 -223zM647 49q176 0 305 95t195.5 263
t66.5 388q0 218 -115 347.5t-327 129.5q-168 0 -297.5 -97.5t-197.5 -266t-68 -380.5q0 -223 113.5 -351t324.5 -128z" />
    <glyph glyph-name="Otilde" unicode="&#xd5;" horiz-adv-x="1390" 
d="M547 1440q-39 3 -53 24q45 73 89.5 106.5t112.5 33.5q47 0 95 -23t92 -45.5t80 -22.5q75 0 114 93q39 0 56 -21q-28 -67 -73.5 -103t-101.5 -36q-48 0 -95 22.5t-90 45t-81 22.5q-46 0 -79 -24t-66 -72zM633 -23q-239 0 -372.5 148t-133.5 397q0 238 84 425.5t234 291.5
t339 104q241 0 376.5 -150.5t135.5 -395.5q0 -374 -181.5 -597t-481.5 -223zM647 49q176 0 305 95t195.5 263t66.5 388q0 218 -115 347.5t-327 129.5q-168 0 -297.5 -97.5t-197.5 -266t-68 -380.5q0 -223 113.5 -351t324.5 -128z" />
    <glyph glyph-name="Odieresis" unicode="&#xd6;" horiz-adv-x="1390" 
d="M616 1473q-27 0 -46 19t-19 46q0 26 19.5 46t45.5 20q28 0 48 -20t20 -46q0 -27 -20 -46t-48 -19zM1010 1473q-27 0 -46.5 19t-19.5 46q0 26 20 46t46 20q28 0 47.5 -20t19.5 -46q0 -28 -19.5 -46.5t-47.5 -18.5zM633 -23q-239 0 -372.5 148t-133.5 397q0 238 84 425.5
t234 291.5t339 104q241 0 376.5 -150.5t135.5 -395.5q0 -374 -181.5 -597t-481.5 -223zM647 49q176 0 305 95t195.5 263t66.5 388q0 218 -115 347.5t-327 129.5q-168 0 -297.5 -97.5t-197.5 -266t-68 -380.5q0 -223 113.5 -351t324.5 -128z" />
    <glyph glyph-name="multiply" unicode="&#xd7;" horiz-adv-x="874" 
d="M764 748l-293 -261l201 -258q-18 -28 -56 -47l-200 258l-291 -258q-21 12 -39 49l293 258l-201 259q23 33 55 47l199 -256l293 258q26 -18 39 -49z" />
    <glyph glyph-name="Oslash" unicode="&#xd8;" horiz-adv-x="1390" 
d="M1143 1212q153 -150 153 -415q0 -374 -181.5 -597t-481.5 -223q-159 0 -281 72l-102 -149q-40 6 -51 39l102 149q-86 70 -130 181.5t-44 252.5q0 238 84 425.5t234 291.5t339 104q185 0 310 -92l112 166q38 -3 51 -35zM209 528q0 -246 137 -374l705 1034q-114 84 -279 84
q-168 0 -297.5 -97.5t-197.5 -266t-68 -380.5zM647 49q176 0 305 95t195.5 263t66.5 388q0 223 -118 350l-701 -1030q104 -66 252 -66z" />
    <glyph glyph-name="Ugrave" unicode="&#xd9;" horiz-adv-x="1314" 
d="M950 1401l-309 184q12 47 49 70l287 -211q-8 -27 -27 -43zM569 -25q-200 0 -302.5 104t-102.5 288q0 60 14 149l139 799q21 6 41 6q22 0 37 -6l-139 -799q-14 -82 -14 -137q0 -151 84 -239.5t260 -88.5q110 0 192.5 33.5t135 98t83.5 143.5t50 186l141 803q18 6 39 6
q22 0 37 -6l-144 -811q-21 -120 -60 -212.5t-103 -165.5t-162 -112t-226 -39z" />
    <glyph glyph-name="Uacute" unicode="&#xda;" horiz-adv-x="1314" 
d="M645 1401q-17 15 -20 41l356 207q29 -18 35 -68zM569 -25q-200 0 -302.5 104t-102.5 288q0 60 14 149l139 799q21 6 41 6q22 0 37 -6l-139 -799q-14 -82 -14 -137q0 -151 84 -239.5t260 -88.5q110 0 192.5 33.5t135 98t83.5 143.5t50 186l141 803q18 6 39 6q22 0 37 -6
l-144 -811q-21 -120 -60 -212.5t-103 -165.5t-162 -112t-226 -39z" />
    <glyph glyph-name="Ucircumflex" unicode="&#xdb;" horiz-adv-x="1314" 
d="M868 1642l185 -217q-9 -20 -37 -39l-187 191l-256 -191q-21 12 -24 39l258 217q34 6 61 0zM569 -25q-200 0 -302.5 104t-102.5 288q0 60 14 149l139 799q21 6 41 6q22 0 37 -6l-139 -799q-14 -82 -14 -137q0 -151 84 -239.5t260 -88.5q110 0 192.5 33.5t135 98
t83.5 143.5t50 186l141 803q18 6 39 6q22 0 37 -6l-144 -811q-21 -120 -60 -212.5t-103 -165.5t-162 -112t-226 -39z" />
    <glyph glyph-name="Udieresis" unicode="&#xdc;" horiz-adv-x="1314" 
d="M623 1473q-27 0 -46.5 19t-19.5 46q0 26 20 46t46 20q27 0 47 -20t20 -46q0 -28 -19.5 -46.5t-47.5 -18.5zM1016 1473q-27 0 -46.5 19t-19.5 46q0 26 20 46t46 20q28 0 47.5 -20t19.5 -46q0 -28 -19.5 -46.5t-47.5 -18.5zM569 -25q-200 0 -302.5 104t-102.5 288
q0 60 14 149l139 799q21 6 41 6q22 0 37 -6l-139 -799q-14 -82 -14 -137q0 -151 84 -239.5t260 -88.5q110 0 192.5 33.5t135 98t83.5 143.5t50 186l141 803q18 6 39 6q22 0 37 -6l-144 -811q-21 -120 -60 -212.5t-103 -165.5t-162 -112t-226 -39z" />
    <glyph glyph-name="Yacute" unicode="&#xdd;" horiz-adv-x="1085" 
d="M520 1401q-17 15 -20 41l356 207q29 -18 35 -68zM1180 1315l-598 -770l-97 -545q-18 -6 -39 -6t-36 6l96 549l-340 766q32 8 53 8t27 -2l299 -674l10 -29l18 29l523 674q10 2 34 2q22 0 50 -8z" />
    <glyph glyph-name="Thorn" unicode="&#xde;" horiz-adv-x="1054" 
d="M594 1081q198 0 300.5 -92.5t102.5 -253.5q0 -205 -141.5 -337t-384.5 -132q-140 0 -242 17l-49 -283q-18 -6 -41 -6q-22 0 -37 6l232 1317q18 6 41 6q22 0 37 -6l-47 -264q109 28 229 28zM481 338q215 0 324.5 106.5t109.5 276.5q0 134 -83 211.5t-250 77.5
q-123 0 -230 -29l-108 -623q90 -20 237 -20z" />
    <glyph glyph-name="germandbls" unicode="&#xdf;" horiz-adv-x="1085" 
d="M639 -18q-96 0 -165.5 31t-106.5 73q10 38 49 57q41 -43 93 -68.5t136 -25.5q108 0 171 52t63 128q0 46 -20 84t-52 64.5t-70.5 50.5t-77.5 47.5t-71 49.5t-52 63t-20 82q0 58 23.5 101.5t60.5 70t82 48l90 43t82 48t60.5 69.5t23.5 101q0 82 -60 134t-180 52
q-154 0 -249.5 -88.5t-120.5 -242.5l-178 -1006q-15 -6 -39 -6q-22 0 -37 6l178 1006q32 188 155 295.5t302 107.5q138 0 223.5 -70t85.5 -180q0 -69 -23.5 -121.5t-60.5 -84t-82 -55.5t-90 -43.5t-82 -41t-60.5 -55.5t-23.5 -80q0 -36 20 -66t51.5 -52t70 -44t77 -47.5
t70 -55.5t51.5 -75t20 -100q0 -111 -88 -183.5t-229 -72.5z" />
    <glyph glyph-name="agrave" unicode="&#xe0;" horiz-adv-x="1069" 
d="M817 1126q-8 -24 -33 -39l-264 238q19 47 60 61zM659 985q192 0 306 -82l-160 -907q-36 -6 -72 0l27 182v4q-75 -100 -169.5 -151t-195.5 -51q-64 0 -119.5 21.5t-100 64.5t-70 114.5t-25.5 163.5q0 146 49 269t130.5 203t185 124.5t214.5 44.5zM412 51q99 0 198.5 67
t173.5 193l97 547q-75 55 -234 55q-93 0 -179.5 -39t-155 -108.5t-109.5 -177t-41 -234.5q0 -144 67.5 -223.5t182.5 -79.5z" />
    <glyph glyph-name="aacute" unicode="&#xe1;" horiz-adv-x="1069" 
d="M522 1085q-19 15 -28 43l319 261q40 -21 49 -68zM659 985q192 0 306 -82l-160 -907q-36 -6 -72 0l27 182v4q-75 -100 -169.5 -151t-195.5 -51q-64 0 -119.5 21.5t-100 64.5t-70 114.5t-25.5 163.5q0 146 49 269t130.5 203t185 124.5t214.5 44.5zM412 51q99 0 198.5 67
t173.5 193l97 547q-75 55 -234 55q-93 0 -179.5 -39t-155 -108.5t-109.5 -177t-41 -234.5q0 -144 67.5 -223.5t182.5 -79.5z" />
    <glyph glyph-name="acircumflex" unicode="&#xe2;" horiz-adv-x="1069" 
d="M436 1090q-27 12 -33 40l269 259q28 9 53 0l182 -263q-14 -24 -43 -34l-172 227zM659 985q192 0 306 -82l-160 -907q-36 -6 -72 0l27 182v4q-75 -100 -169.5 -151t-195.5 -51q-64 0 -119.5 21.5t-100 64.5t-70 114.5t-25.5 163.5q0 146 49 269t130.5 203t185 124.5
t214.5 44.5zM412 51q99 0 198.5 67t173.5 193l97 547q-75 55 -234 55q-93 0 -179.5 -39t-155 -108.5t-109.5 -177t-41 -234.5q0 -144 67.5 -223.5t182.5 -79.5z" />
    <glyph glyph-name="atilde" unicode="&#xe3;" horiz-adv-x="1069" 
d="M422 1155q-36 4 -53 27q40 69 85.5 102t110.5 33q45 0 91 -22t87.5 -44t75.5 -22q71 0 109 90q40 0 57 -21q-24 -65 -69.5 -101t-98.5 -36q-46 0 -90.5 22t-85 44t-76.5 22q-44 0 -76.5 -23.5t-66.5 -70.5zM80 344q0 146 49 269t130.5 203t185 124.5t214.5 44.5
q192 0 306 -82l-160 -907q-36 -6 -72 0l27 182v4q-75 -100 -169.5 -151t-195.5 -51q-64 0 -119.5 21.5t-100 64.5t-70 114.5t-25.5 163.5zM412 51q99 0 198.5 67t173.5 193l97 547q-75 55 -234 55q-93 0 -179.5 -39t-155 -108.5t-109.5 -177t-41 -234.5q0 -144 67.5 -223.5
t182.5 -79.5z" />
    <glyph glyph-name="adieresis" unicode="&#xe4;" horiz-adv-x="1069" 
d="M477 1167q-27 0 -47 20.5t-20 47.5q0 26 20.5 45.5t46.5 19.5q27 0 46.5 -19t19.5 -46q0 -28 -19 -48t-47 -20zM872 1167q-26 0 -46.5 20.5t-20.5 47.5q0 26 20.5 45.5t46.5 19.5q28 0 47 -19t19 -46q0 -28 -19 -48t-47 -20zM659 985q192 0 306 -82l-160 -907
q-36 -6 -72 0l27 182v4q-75 -100 -169.5 -151t-195.5 -51q-64 0 -119.5 21.5t-100 64.5t-70 114.5t-25.5 163.5q0 146 49 269t130.5 203t185 124.5t214.5 44.5zM412 51q99 0 198.5 67t173.5 193l97 547q-75 55 -234 55q-93 0 -179.5 -39t-155 -108.5t-109.5 -177t-41 -234.5
q0 -144 67.5 -223.5t182.5 -79.5z" />
    <glyph glyph-name="aring" unicode="&#xe5;" horiz-adv-x="1069" 
d="M655 1049q-74 0 -115.5 43.5t-41.5 113.5q0 90 57 148.5t135 58.5q75 0 116.5 -44.5t41.5 -115.5q0 -92 -56 -148t-137 -56zM684 1354q-52 0 -89.5 -40t-37.5 -100q0 -47 26.5 -76.5t78.5 -29.5q59 0 92.5 36.5t33.5 102.5q0 107 -104 107zM659 985q192 0 306 -82
l-160 -907q-36 -6 -72 0l27 182v4q-75 -100 -169.5 -151t-195.5 -51q-64 0 -119.5 21.5t-100 64.5t-70 114.5t-25.5 163.5q0 146 49 269t130.5 203t185 124.5t214.5 44.5zM412 51q99 0 198.5 67t173.5 193l97 547q-75 55 -234 55q-93 0 -179.5 -39t-155 -108.5t-109.5 -177
t-41 -234.5q0 -144 67.5 -223.5t182.5 -79.5z" />
    <glyph glyph-name="ae" unicode="&#xe6;" horiz-adv-x="1615" 
d="M342 -20q-54 0 -99.5 18t-83.5 55.5t-59.5 103.5t-21.5 154q0 136 41.5 260t112 215t171 145t213.5 54q192 0 314 -151q147 151 332 151q128 0 203 -66t75 -182q0 -160 -120.5 -240.5t-334.5 -80.5q-117 0 -245 28q0 -6 -3 -37.5t-3 -50.5q6 -155 80.5 -231t203.5 -76
q51 0 94.5 9.5t80 29t56.5 33t50 37.5q34 -13 43 -56q-75 -57 -151 -89.5t-183 -32.5q-155 0 -244 84t-98 241q-66 -149 -180 -237t-244 -88zM1083 483q179 0 278 64t99 182q0 82 -56 134t-155 52q-42 0 -84 -11t-90.5 -39.5t-89.5 -72.5t-78 -116.5t-59 -165.5
q123 -27 235 -27zM358 51q128 0 251.5 130t158.5 300q37 172 113 289q-95 143 -275 143q-129 0 -233 -82.5t-159.5 -217t-55.5 -291.5q0 -133 55 -202t145 -69z" />
    <glyph glyph-name="ccedilla" unicode="&#xe7;" horiz-adv-x="944" 
d="M602 985q191 0 289 -102q-17 -39 -49 -56q-54 46 -110.5 67t-139.5 21q-99 0 -180 -42t-133.5 -113.5t-80.5 -165t-28 -197.5q0 -156 82 -251t237 -95q148 0 271 101q33 -20 39 -54q-134 -115 -310 -118l-30 -72q71 -15 106 -42.5t35 -82.5q0 -61 -38 -101t-87.5 -54.5
t-107.5 -14.5q-86 0 -111 18q7 34 27 54q37 -15 90 -15q65 0 110 26t45 77q0 44 -32.5 61.5t-118.5 30.5l53 117q-158 14 -249 120.5t-91 284.5q0 274 145.5 436t366.5 162z" />
    <glyph glyph-name="egrave" unicode="&#xe8;" horiz-adv-x="978" 
d="M756 1126q-8 -24 -33 -39l-264 238q20 47 59 61zM422 416q-141 0 -254 41q-2 -20 -2 -66q0 -164 84.5 -253t232.5 -89q70 0 130 20.5t91 42t66 54.5q35 -14 41 -53q-140 -133 -338 -133q-173 0 -279 102.5t-106 298.5q0 139 42 254.5t113 191t163.5 117t195.5 41.5
q137 0 217 -69.5t80 -176.5q0 -145 -120.5 -234t-356.5 -89zM596 915q-151 0 -267 -105t-151 -286q110 -39 252 -39q194 0 291.5 68.5t97.5 177.5q0 78 -59 131t-164 53z" />
    <glyph glyph-name="eacute" unicode="&#xe9;" horiz-adv-x="978" 
d="M461 1085q-21 16 -29 43l320 261q40 -21 49 -68zM422 416q-141 0 -254 41q-2 -20 -2 -66q0 -164 84.5 -253t232.5 -89q70 0 130 20.5t91 42t66 54.5q35 -14 41 -53q-140 -133 -338 -133q-173 0 -279 102.5t-106 298.5q0 139 42 254.5t113 191t163.5 117t195.5 41.5
q137 0 217 -69.5t80 -176.5q0 -145 -120.5 -234t-356.5 -89zM596 915q-151 0 -267 -105t-151 -286q110 -39 252 -39q194 0 291.5 68.5t97.5 177.5q0 78 -59 131t-164 53z" />
    <glyph glyph-name="ecircumflex" unicode="&#xea;" horiz-adv-x="978" 
d="M375 1090q-27 12 -33 40l268 259q29 10 54 0l182 -263q-14 -24 -43 -34l-172 227zM422 416q-141 0 -254 41q-2 -20 -2 -66q0 -164 84.5 -253t232.5 -89q70 0 130 20.5t91 42t66 54.5q35 -14 41 -53q-140 -133 -338 -133q-173 0 -279 102.5t-106 298.5q0 139 42 254.5
t113 191t163.5 117t195.5 41.5q137 0 217 -69.5t80 -176.5q0 -145 -120.5 -234t-356.5 -89zM596 915q-151 0 -267 -105t-151 -286q110 -39 252 -39q194 0 291.5 68.5t97.5 177.5q0 78 -59 131t-164 53z" />
    <glyph glyph-name="edieresis" unicode="&#xeb;" horiz-adv-x="978" 
d="M416 1167q-27 0 -47.5 20.5t-20.5 47.5q0 26 20.5 45.5t47.5 19.5t46 -19t19 -46q0 -28 -19 -48t-46 -20zM811 1167q-27 0 -47.5 20.5t-20.5 47.5q0 26 20.5 45.5t47.5 19.5t46.5 -19t19.5 -46q0 -28 -19 -48t-47 -20zM422 416q-141 0 -254 41q-2 -20 -2 -66
q0 -164 84.5 -253t232.5 -89q70 0 130 20.5t91 42t66 54.5q35 -14 41 -53q-140 -133 -338 -133q-173 0 -279 102.5t-106 298.5q0 139 42 254.5t113 191t163.5 117t195.5 41.5q137 0 217 -69.5t80 -176.5q0 -145 -120.5 -234t-356.5 -89zM596 915q-151 0 -267 -105t-151 -286
q110 -39 252 -39q194 0 291.5 68.5t97.5 177.5q0 78 -59 131t-164 53z" />
    <glyph glyph-name="igrave" unicode="&#xec;" horiz-adv-x="428" 
d="M440 1087l-264 238q19 47 60 61l237 -260q-8 -24 -33 -39zM115 -6q-22 0 -37 6l168 961q18 6 41 6q22 0 37 -6l-170 -961q-18 -6 -39 -6z" />
    <glyph glyph-name="iacute" unicode="&#xed;" horiz-adv-x="428" 
d="M178 1085q-19 15 -28 43l319 261q40 -21 49 -68zM115 -6q-22 0 -37 6l168 961q18 6 41 6q22 0 37 -6l-170 -961q-18 -6 -39 -6z" />
    <glyph glyph-name="icircumflex" unicode="&#xee;" horiz-adv-x="428" 
d="M367 1389l165 -265q-12 -22 -40 -30l-158 219l-234 -221q-24 9 -30 32l245 265q26 7 52 0zM115 -6q-22 0 -37 6l168 961q18 6 41 6q22 0 37 -6l-170 -961q-18 -6 -39 -6z" />
    <glyph glyph-name="idieresis" unicode="&#xef;" horiz-adv-x="428" 
d="M166 1167q-28 0 -48 20t-20 48q0 26 20 45.5t48 19.5q27 0 46 -19t19 -46q0 -28 -19 -48t-46 -20zM479 1167q-28 0 -47.5 20t-19.5 48q0 26 19.5 45.5t47.5 19.5q27 0 46.5 -19t19.5 -46q0 -28 -19 -48t-47 -20zM115 -6q-22 0 -37 6l168 961q18 6 41 6q22 0 37 -6
l-170 -961q-18 -6 -39 -6z" />
    <glyph glyph-name="eth" unicode="&#xf0;" horiz-adv-x="1060" 
d="M698 1182q126 -118 180 -287.5t54 -398.5q0 -146 -56.5 -262.5t-164.5 -185t-250 -68.5q-178 0 -277.5 102.5t-99.5 275.5q0 120 38.5 220.5t103.5 167.5t150.5 104t180.5 37q182 0 287 -133q-50 246 -211 381l-180 -121q-12 6 -21.5 20t-9.5 29l162 111q-79 53 -174 88
q7 50 39 73q117 -48 204 -114l187 125q12 -6 21.5 -19.5t10.5 -28.5zM471 49q179 0 283 128t104 323q0 140 -83 227.5t-226 87.5q-168 0 -277.5 -122t-109.5 -320q0 -146 80.5 -235t228.5 -89z" />
    <glyph glyph-name="ntilde" unicode="&#xf1;" horiz-adv-x="1091" 
d="M391 1155q-36 4 -53 27q40 69 86 102t111 33q45 0 91 -22t87 -44t75 -22q71 0 109 90q39 0 57 -21q-24 -65 -69.5 -101t-98.5 -36q-46 0 -90.5 22t-84.5 44t-76 22q-44 0 -77 -23.5t-67 -70.5zM608 985q175 0 257.5 -76t82.5 -209q0 -43 -10 -98l-107 -602q-15 -6 -38 -6
q-22 0 -37 6l104 586q8 41 8 92q0 235 -276 235q-90 0 -170.5 -16.5t-128.5 -38.5l-150 -858q-15 -6 -39 -6q-21 0 -36 6l157 903q164 82 383 82z" />
    <glyph glyph-name="ograve" unicode="&#xf2;" horiz-adv-x="1085" 
d="M733 1087l-264 238q20 47 59 61l238 -260q-8 -24 -33 -39zM475 -20q-183 0 -285 111.5t-102 297.5q0 165 61 300.5t177 216.5t266 81q180 0 277.5 -112t97.5 -300q0 -165 -59 -299.5t-172 -215t-261 -80.5zM485 49q94 0 171.5 43t127.5 115t77.5 163.5t27.5 190.5
q0 162 -77 258t-230 96q-99 0 -179.5 -44t-130.5 -117t-77 -163.5t-27 -187.5q0 -160 81 -257t236 -97z" />
    <glyph glyph-name="oacute" unicode="&#xf3;" horiz-adv-x="1085" 
d="M469 1085q-21 16 -29 43l320 261q40 -21 49 -68zM475 -20q-183 0 -285 111.5t-102 297.5q0 165 61 300.5t177 216.5t266 81q180 0 277.5 -112t97.5 -300q0 -165 -59 -299.5t-172 -215t-261 -80.5zM485 49q94 0 171.5 43t127.5 115t77.5 163.5t27.5 190.5q0 162 -77 258
t-230 96q-99 0 -179.5 -44t-130.5 -117t-77 -163.5t-27 -187.5q0 -160 81 -257t236 -97z" />
    <glyph glyph-name="ocircumflex" unicode="&#xf4;" horiz-adv-x="1085" 
d="M674 1389l182 -263q-14 -24 -43 -34l-172 227l-256 -229q-27 12 -33 40l269 259q28 9 53 0zM475 -20q-183 0 -285 111.5t-102 297.5q0 165 61 300.5t177 216.5t266 81q180 0 277.5 -112t97.5 -300q0 -165 -59 -299.5t-172 -215t-261 -80.5zM485 49q94 0 171.5 43
t127.5 115t77.5 163.5t27.5 190.5q0 162 -77 258t-230 96q-99 0 -179.5 -44t-130.5 -117t-77 -163.5t-27 -187.5q0 -160 81 -257t236 -97z" />
    <glyph glyph-name="otilde" unicode="&#xf5;" horiz-adv-x="1085" 
d="M369 1155q-37 4 -54 27q40 69 86 102t111 33q45 0 91 -22t87.5 -44t75.5 -22q70 0 108 90q40 0 58 -21q-24 -65 -69.5 -101t-98.5 -36q-46 0 -90.5 22t-85 44t-76.5 22q-44 0 -76.5 -23.5t-66.5 -70.5zM475 -20q-183 0 -285 111.5t-102 297.5q0 165 61 300.5t177 216.5
t266 81q180 0 277.5 -112t97.5 -300q0 -165 -59 -299.5t-172 -215t-261 -80.5zM485 49q94 0 171.5 43t127.5 115t77.5 163.5t27.5 190.5q0 162 -77 258t-230 96q-99 0 -179.5 -44t-130.5 -117t-77 -163.5t-27 -187.5q0 -160 81 -257t236 -97z" />
    <glyph glyph-name="odieresis" unicode="&#xf6;" horiz-adv-x="1085" 
d="M424 1167q-27 0 -47.5 20.5t-20.5 47.5q0 26 20.5 45.5t47.5 19.5t46 -19t19 -46q0 -28 -19 -48t-46 -20zM819 1167q-27 0 -47 20.5t-20 47.5q0 26 20.5 45.5t46.5 19.5q27 0 46.5 -19t19.5 -46q0 -28 -19 -48t-47 -20zM475 -20q-183 0 -285 111.5t-102 297.5
q0 165 61 300.5t177 216.5t266 81q180 0 277.5 -112t97.5 -300q0 -165 -59 -299.5t-172 -215t-261 -80.5zM485 49q94 0 171.5 43t127.5 115t77.5 163.5t27.5 190.5q0 162 -77 258t-230 96q-99 0 -179.5 -44t-130.5 -117t-77 -163.5t-27 -187.5q0 -160 81 -257t236 -97z" />
    <glyph glyph-name="divide" unicode="&#xf7;" horiz-adv-x="1042" 
d="M563 717q-31 0 -53.5 22.5t-22.5 53.5t22.5 53t53.5 22t53.5 -22t22.5 -53t-22.5 -53.5t-53.5 -22.5zM127 449q-1 1 -1 8t1 10q0 31 12 49h750v-20q0 -23 -12 -47h-750zM455 98q-31 0 -53.5 22t-22.5 54q0 31 22.5 53.5t53.5 22.5q30 0 51.5 -22.5t21.5 -53.5
q0 -32 -21 -54t-52 -22z" />
    <glyph glyph-name="oslash" unicode="&#xf8;" horiz-adv-x="1085" 
d="M840 905q127 -112 127 -330q0 -165 -59 -299.5t-172 -215t-261 -80.5q-117 0 -207 49l-112 -174q-37 3 -50 32l115 174q-133 114 -133 328q0 165 61 300.5t177 216.5t266 81q119 0 201 -49l108 168q35 -4 49 -31zM168 403q0 -176 96 -272l486 741q-67 43 -168 43
q-99 0 -179.5 -44t-130.5 -117t-77 -163.5t-27 -187.5zM485 49q94 0 171.5 43t127.5 115t77.5 163.5t27.5 190.5q0 183 -94 277l-484 -744q73 -45 174 -45z" />
    <glyph glyph-name="ugrave" unicode="&#xf9;" horiz-adv-x="1079" 
d="M786 1126q-8 -25 -32 -39l-265 238q19 47 60 61zM946 958q22 0 37 -6l-160 -895q-180 -82 -383 -82q-164 0 -244.5 73.5t-80.5 205.5q0 38 10 96l104 602q21 6 41 6q22 0 37 -6l-102 -579q-8 -49 -8 -101q0 -106 60 -164.5t200 -58.5q159 0 301 57l147 846q18 6 41 6z
" />
    <glyph glyph-name="uacute" unicode="&#xfa;" horiz-adv-x="1079" 
d="M492 1085q-21 16 -29 43l319 261q40 -21 49 -68zM946 958q22 0 37 -6l-160 -895q-180 -82 -383 -82q-164 0 -244.5 73.5t-80.5 205.5q0 38 10 96l104 602q21 6 41 6q22 0 37 -6l-102 -579q-8 -49 -8 -101q0 -106 60 -164.5t200 -58.5q159 0 301 57l147 846q18 6 41 6z
" />
    <glyph glyph-name="ucircumflex" unicode="&#xfb;" horiz-adv-x="1079" 
d="M406 1090q-27 12 -33 40l268 259q28 9 53 0l183 -263q-14 -24 -43 -34l-172 227zM946 958q22 0 37 -6l-160 -895q-180 -82 -383 -82q-164 0 -244.5 73.5t-80.5 205.5q0 38 10 96l104 602q21 6 41 6q22 0 37 -6l-102 -579q-8 -49 -8 -101q0 -106 60 -164.5t200 -58.5
q159 0 301 57l147 846q18 6 41 6z" />
    <glyph glyph-name="udieresis" unicode="&#xfc;" horiz-adv-x="1079" 
d="M446 1167q-26 0 -46.5 20.5t-20.5 47.5q0 26 20.5 45.5t46.5 19.5q28 0 47 -19t19 -46q0 -28 -19 -48t-47 -20zM842 1167q-27 0 -47.5 20.5t-20.5 47.5q0 26 20.5 45.5t47.5 19.5t46 -19t19 -46q0 -28 -19 -48t-46 -20zM946 958q22 0 37 -6l-160 -895q-180 -82 -383 -82
q-164 0 -244.5 73.5t-80.5 205.5q0 38 10 96l104 602q21 6 41 6q22 0 37 -6l-102 -579q-8 -49 -8 -101q0 -106 60 -164.5t200 -58.5q159 0 301 57l147 846q18 6 41 6z" />
    <glyph glyph-name="yacute" unicode="&#xfd;" horiz-adv-x="1079" 
d="M494 1085q-21 16 -29 43l319 261q41 -21 50 -68zM940 958q23 0 35 -6l-166 -942q-33 -190 -148 -295.5t-299 -105.5q-243 0 -344 133q16 41 60 53q91 -117 287 -117q154 0 247.5 87.5t120.5 244.5l19 103q-153 -82 -322 -82q-182 0 -255 101t-42 274l96 546q18 6 39 6
q22 0 37 -6l-92 -526q-15 -68 -9 -127t30 -102.5t81.5 -68t145.5 -24.5q157 0 305 89l133 759q18 6 41 6z" />
    <glyph glyph-name="thorn" unicode="&#xfe;" horiz-adv-x="1083" 
d="M557 985q197 0 306.5 -100.5t109.5 -284.5q0 -145 -43 -263.5t-118 -196t-175 -119t-215 -41.5q-159 0 -268 47l-72 -410q-18 -6 -41 -6q-20 0 -35 6l305 1731q18 6 37 6q22 0 37 -6l-72 -408q126 45 244 45zM434 51q199 0 329 143t130 394q0 153 -89.5 238t-260.5 85
q-132 0 -244 -51l-131 -749q105 -60 266 -60z" />
    <glyph glyph-name="ydieresis" unicode="&#xff;" horiz-adv-x="1079" 
d="M449 1167q-27 0 -47.5 20.5t-20.5 47.5q0 26 20.5 45.5t47.5 19.5t46 -19t19 -46q0 -28 -19 -48t-46 -20zM844 1167q-27 0 -47.5 20.5t-20.5 47.5q0 26 20.5 45.5t47.5 19.5t46 -19t19 -46q0 -28 -19 -48t-46 -20zM940 958q23 0 35 -6l-166 -942q-33 -190 -148 -295.5
t-299 -105.5q-243 0 -344 133q16 41 60 53q91 -117 287 -117q154 0 247.5 87.5t120.5 244.5l19 103q-153 -82 -322 -82q-182 0 -255 101t-42 274l96 546q18 6 39 6q22 0 37 -6l-92 -526q-15 -68 -9 -127t30 -102.5t81.5 -68t145.5 -24.5q157 0 305 89l133 759q18 6 41 6z
" />
    <glyph glyph-name="Amacron" unicode="&#x100;" horiz-adv-x="1138" 
d="M967 1485h-498q-9 21 12 63h496q4 -32 -10 -63zM735 1315l271 -1309q-21 -12 -54 -12q-14 0 -26 4l-84 420h-590l-227 -420q-8 -2 -29 -2q-29 0 -49 10l712 1309q12 4 39 4q25 0 37 -4zM289 487h538l-133 662l-12 76l-37 -78z" />
    <glyph glyph-name="amacron" unicode="&#x101;" horiz-adv-x="1069" 
d="M909 1174h-489q-2 4 -2 16q0 19 12 49h492l2 -16q0 -27 -15 -49zM659 985q192 0 306 -82l-160 -907q-36 -6 -72 0l27 182v4q-75 -100 -169.5 -151t-195.5 -51q-64 0 -119.5 21.5t-100 64.5t-70 114.5t-25.5 163.5q0 146 49 269t130.5 203t185 124.5t214.5 44.5zM412 51
q99 0 198.5 67t173.5 193l97 547q-75 55 -234 55q-93 0 -179.5 -39t-155 -108.5t-109.5 -177t-41 -234.5q0 -144 67.5 -223.5t182.5 -79.5z" />
    <glyph glyph-name="Abreve" unicode="&#x102;" horiz-adv-x="1138" 
d="M711 1417q-101 0 -162 63t-57 169q26 9 59 6q3 -81 49 -126.5t117 -45.5q75 0 133.5 44.5t85.5 127.5q34 0 53 -8q-27 -104 -101 -167t-177 -63zM735 1315l271 -1309q-21 -12 -54 -12q-14 0 -26 4l-84 420h-590l-227 -420q-8 -2 -29 -2q-29 0 -49 10l712 1309q12 4 39 4
q25 0 37 -4zM289 487h538l-133 662l-12 76l-37 -78z" />
    <glyph glyph-name="abreve" unicode="&#x103;" horiz-adv-x="1069" 
d="M639 1104q-100 0 -160.5 66t-50.5 180q25 9 59 6q-1 -92 44 -139.5t118 -47.5q76 0 138 49t87 138q33 0 54 -8q-27 -115 -101.5 -179.5t-187.5 -64.5zM659 985q192 0 306 -82l-160 -907q-36 -6 -72 0l27 182v4q-75 -100 -169.5 -151t-195.5 -51q-64 0 -119.5 21.5
t-100 64.5t-70 114.5t-25.5 163.5q0 146 49 269t130.5 203t185 124.5t214.5 44.5zM412 51q99 0 198.5 67t173.5 193l97 547q-75 55 -234 55q-93 0 -179.5 -39t-155 -108.5t-109.5 -177t-41 -234.5q0 -144 67.5 -223.5t182.5 -79.5z" />
    <glyph glyph-name="Aogonek" unicode="&#x104;" horiz-adv-x="1138" 
d="M1030 -260q28 -14 25 -49q-37 -28 -72 -43t-84 -15q-62 0 -96.5 30.5t-34.5 88.5q0 120 156 246h2l-84 420h-590l-227 -420q-8 -2 -29 -2q-29 0 -49 10l712 1309q12 4 39 4q25 0 37 -4l271 -1309q-75 -52 -117.5 -114t-42.5 -117q0 -36 23 -55t55 -19q52 0 106 39z
M289 487h538l-133 662l-12 76l-37 -78z" />
    <glyph glyph-name="aogonek" unicode="&#x105;" horiz-adv-x="1069" 
d="M831 -260q28 -19 25 -47q-79 -60 -158 -60q-62 0 -96.5 30.5t-34.5 88.5q0 117 160 244h6l27 182v4q-75 -100 -169.5 -151t-195.5 -51q-64 0 -119.5 21.5t-100 64.5t-70 114.5t-25.5 163.5q0 146 49 269t130.5 203t185 124.5t214.5 44.5q192 0 306 -82l-160 -907
q-162 -115 -162 -221q0 -37 23 -55.5t57 -18.5q54 0 108 39zM412 51q99 0 198.5 67t173.5 193l97 547q-75 55 -234 55q-93 0 -179.5 -39t-155 -108.5t-109.5 -177t-41 -234.5q0 -144 67.5 -223.5t182.5 -79.5z" />
    <glyph glyph-name="Cacute" unicode="&#x106;" horiz-adv-x="1189" 
d="M672 1401q-18 16 -21 41l357 207q28 -17 34 -68zM635 -25q-243 0 -376.5 148.5t-133.5 398.5q0 177 53 330t146 260.5t224 169t283 61.5q242 0 379 -137q-17 -40 -53 -57q-126 123 -338 123q-180 0 -320 -96t-216 -264.5t-76 -381.5q0 -223 115 -352t325 -129
q225 0 371 125q36 -9 39 -51q-171 -148 -422 -148z" />
    <glyph glyph-name="cacute" unicode="&#x107;" horiz-adv-x="944" 
d="M483 1085q-19 15 -28 43l319 261q40 -21 49 -68zM475 -20q-176 0 -280.5 108.5t-104.5 298.5q0 274 145.5 436t366.5 162q191 0 289 -102q-17 -39 -49 -56q-54 46 -110.5 67t-139.5 21q-99 0 -180 -42t-133.5 -113.5t-80.5 -165t-28 -197.5q0 -156 82 -251t237 -95
q148 0 271 101q33 -20 39 -54q-137 -118 -324 -118z" />
    <glyph glyph-name="Cdotaccent" unicode="&#x10a;" horiz-adv-x="1189" 
d="M846 1473q-28 0 -49 20t-21 49t21 50.5t49 21.5q29 0 49 -21t20 -51q0 -29 -20 -49t-49 -20zM635 -25q-243 0 -376.5 148.5t-133.5 398.5q0 177 53 330t146 260.5t224 169t283 61.5q242 0 379 -137q-17 -40 -53 -57q-126 123 -338 123q-180 0 -320 -96t-216 -264.5
t-76 -381.5q0 -223 115 -352t325 -129q225 0 371 125q36 -9 39 -51q-171 -148 -422 -148z" />
    <glyph glyph-name="cdotaccent" unicode="&#x10b;" horiz-adv-x="944" 
d="M637 1178q-28 0 -49 21t-21 50q0 28 21 49t49 21q29 0 49.5 -21t20.5 -49q0 -29 -20.5 -50t-49.5 -21zM475 -20q-176 0 -280.5 108.5t-104.5 298.5q0 274 145.5 436t366.5 162q191 0 289 -102q-17 -39 -49 -56q-54 46 -110.5 67t-139.5 21q-99 0 -180 -42t-133.5 -113.5
t-80.5 -165t-28 -197.5q0 -156 82 -251t237 -95q148 0 271 101q33 -20 39 -54q-137 -118 -324 -118z" />
    <glyph glyph-name="Ccaron" unicode="&#x10c;" horiz-adv-x="1189" 
d="M786 1391l-184 217q10 23 37 39l186 -191l254 191q24 -12 27 -39l-258 -217q-35 -6 -62 0zM635 -25q-243 0 -376.5 148.5t-133.5 398.5q0 177 53 330t146 260.5t224 169t283 61.5q242 0 379 -137q-17 -40 -53 -57q-126 123 -338 123q-180 0 -320 -96t-216 -264.5
t-76 -381.5q0 -223 115 -352t325 -129q225 0 371 125q36 -9 39 -51q-171 -148 -422 -148z" />
    <glyph glyph-name="ccaron" unicode="&#x10d;" horiz-adv-x="944" 
d="M584 1096l-183 254q13 26 39 34l178 -217l250 222q27 -12 33 -41l-262 -252q-27 -6 -55 0zM475 -20q-176 0 -280.5 108.5t-104.5 298.5q0 274 145.5 436t366.5 162q191 0 289 -102q-17 -39 -49 -56q-54 46 -110.5 67t-139.5 21q-99 0 -180 -42t-133.5 -113.5t-80.5 -165
t-28 -197.5q0 -156 82 -251t237 -95q148 0 271 101q33 -20 39 -54q-137 -118 -324 -118z" />
    <glyph glyph-name="Dcaron" unicode="&#x10e;" horiz-adv-x="1331" 
d="M752 1391q-35 -6 -62 0l-184 217q10 23 37 39l186 -191l254 191q24 -12 27 -39zM639 1333q290 0 446 -147.5t156 -411.5q0 -125 -31.5 -240t-97.5 -216t-160 -175.5t-227 -117.5t-291 -43q-196 0 -332 20l230 1305q162 26 307 26zM449 53q174 0 312 58t223.5 157.5
t130 226t44.5 269.5q0 237 -136 366.5t-396 129.5q-120 0 -228 -15l-209 -1175q119 -17 259 -17z" />
    <glyph glyph-name="dcaron" unicode="&#x10f;" horiz-adv-x="1087" 
d="M1329 1444l1 -14q1 -14 1 -23q0 -91 -41.5 -181t-91.5 -139q-26 3 -29 21q37 53 60.5 131t23.5 143q0 36 -4 60q17 10 45 10q22 0 35 -8zM973 1348q18 6 39 6q22 0 37 -6l-228 -1293q-134 -75 -321 -75q-193 0 -304.5 105.5t-111.5 295.5q0 268 164 436t414 168
q143 0 239 -41zM752 96l137 772q-95 45 -234 45q-217 0 -354 -145t-137 -375q0 -161 91.5 -251.5t250.5 -90.5q141 0 246 45z" />
    <glyph glyph-name="Dcroat" unicode="&#x110;" horiz-adv-x="1331" 
d="M639 1333q290 0 446 -147.5t156 -411.5q0 -125 -31.5 -240t-97.5 -216t-160 -175.5t-227 -117.5t-291 -43q-196 0 -332 20l111 625h-176q-4 36 10 55h174l111 625q162 26 307 26zM449 53q174 0 312 58t223.5 157.5t130 226t44.5 269.5q0 237 -136 366.5t-396 129.5
q-120 0 -228 -15l-100 -563h190q3 -31 -10 -55h-190l-99 -557q119 -17 259 -17z" />
    <glyph glyph-name="dcroat" unicode="&#x111;" horiz-adv-x="1077" 
d="M1202 1206q3 -31 -10 -55h-178l-193 -1096q-134 -75 -321 -75q-193 0 -304.5 105.5t-111.5 295.5q0 268 164 436t414 168q143 0 239 -41l37 207h-188q-4 36 10 55h188l25 142q18 6 39 6q22 0 37 -6l-25 -142h178zM752 96l137 772q-95 45 -234 45q-217 0 -354 -145
t-137 -375q0 -161 91.5 -251.5t250.5 -90.5q141 0 246 45z" />
    <glyph glyph-name="Emacron" unicode="&#x112;" horiz-adv-x="1050" 
d="M979 1485h-498q-9 20 13 63h495q4 -32 -10 -63zM1053 1243h-658l-92 -522h596q5 -35 -12 -72h-596l-103 -577h684q5 -38 -14 -72h-758l234 1315h731q5 -37 -12 -72z" />
    <glyph glyph-name="emacron" unicode="&#x113;" horiz-adv-x="978" 
d="M848 1174h-490q-2 4 -2 16q0 16 13 49h491l2 -16q0 -28 -14 -49zM422 416q-141 0 -254 41q-2 -20 -2 -66q0 -164 84.5 -253t232.5 -89q70 0 130 20.5t91 42t66 54.5q35 -14 41 -53q-140 -133 -338 -133q-173 0 -279 102.5t-106 298.5q0 139 42 254.5t113 191t163.5 117
t195.5 41.5q137 0 217 -69.5t80 -176.5q0 -145 -120.5 -234t-356.5 -89zM596 915q-151 0 -267 -105t-151 -286q110 -39 252 -39q194 0 291.5 68.5t97.5 177.5q0 78 -59 131t-164 53z" />
    <glyph glyph-name="Edotaccent" unicode="&#x116;" horiz-adv-x="1050" 
d="M735 1473q-28 0 -48.5 20t-20.5 49t20.5 50.5t48.5 21.5q29 0 49.5 -21.5t20.5 -50.5t-20.5 -49t-49.5 -20zM1053 1243h-658l-92 -522h596q5 -35 -12 -72h-596l-103 -577h684q5 -38 -14 -72h-758l234 1315h731q5 -37 -12 -72z" />
    <glyph glyph-name="edotaccent" unicode="&#x117;" horiz-adv-x="978" 
d="M614 1178q-28 0 -48.5 21t-20.5 50q0 28 20.5 49t48.5 21q29 0 49.5 -21t20.5 -49q0 -29 -20.5 -50t-49.5 -21zM422 416q-141 0 -254 41q-2 -20 -2 -66q0 -164 84.5 -253t232.5 -89q70 0 130 20.5t91 42t66 54.5q35 -14 41 -53q-140 -133 -338 -133q-173 0 -279 102.5
t-106 298.5q0 139 42 254.5t113 191t163.5 117t195.5 41.5q137 0 217 -69.5t80 -176.5q0 -145 -120.5 -234t-356.5 -89zM596 915q-151 0 -267 -105t-151 -286q110 -39 252 -39q194 0 291.5 68.5t97.5 177.5q0 78 -59 131t-164 53z" />
    <glyph glyph-name="Eogonek" unicode="&#x118;" horiz-adv-x="1050" 
d="M1053 1243h-658l-92 -522h596q5 -35 -12 -72h-596l-103 -577h684q5 -38 -14 -72q-153 -125 -153 -225q0 -37 22 -55.5t53 -18.5q58 0 109 37q13 -4 20.5 -18t5.5 -29q-73 -58 -149 -58q-64 0 -100.5 31t-36.5 90q0 65 46 129t122 117h-697l234 1315h731q5 -37 -12 -72z
" />
    <glyph glyph-name="eogonek" unicode="&#x119;" horiz-adv-x="978" 
d="M422 416q-141 0 -254 41q-2 -20 -2 -66q0 -164 84.5 -253t232.5 -89q70 0 130 20.5t91 42t66 54.5q35 -14 41 -53q-59 -55 -106 -78q-199 -140 -199 -256q0 -38 23.5 -58t56.5 -20q46 0 104 37q11 -5 20 -18t9 -27q-71 -60 -156 -60q-61 0 -98 33.5t-37 93.5
q0 110 143 228q-41 -8 -98 -8q-173 0 -279 102.5t-106 298.5q0 139 42 254.5t113 191t163.5 117t195.5 41.5q137 0 217 -69.5t80 -176.5q0 -145 -120.5 -234t-356.5 -89zM596 915q-151 0 -267 -105t-151 -286q110 -39 252 -39q194 0 291.5 68.5t97.5 177.5q0 78 -59 131
t-164 53z" />
    <glyph glyph-name="Ecaron" unicode="&#x11a;" horiz-adv-x="1050" 
d="M739 1391q-34 -6 -61 0l-184 217q11 24 36 39l187 -191l254 191q23 -11 26 -39zM1053 1243h-658l-92 -522h596q5 -35 -12 -72h-596l-103 -577h684q5 -38 -14 -72h-758l234 1315h731q5 -37 -12 -72z" />
    <glyph glyph-name="ecaron" unicode="&#x11b;" horiz-adv-x="978" 
d="M616 1096q-28 -6 -55 0l-182 254q13 26 39 34l178 -217l250 222q27 -12 33 -41zM422 416q-141 0 -254 41q-2 -20 -2 -66q0 -164 84.5 -253t232.5 -89q70 0 130 20.5t91 42t66 54.5q35 -14 41 -53q-140 -133 -338 -133q-173 0 -279 102.5t-106 298.5q0 139 42 254.5
t113 191t163.5 117t195.5 41.5q137 0 217 -69.5t80 -176.5q0 -145 -120.5 -234t-356.5 -89zM596 915q-151 0 -267 -105t-151 -286q110 -39 252 -39q194 0 291.5 68.5t97.5 177.5q0 78 -59 131t-164 53z" />
    <glyph glyph-name="Gbreve" unicode="&#x11e;" horiz-adv-x="1271" 
d="M827 1417q-101 0 -162 63t-57 169q27 9 60 6q3 -81 49 -126.5t117 -45.5q75 0 133.5 44.5t85.5 127.5q34 0 53 -8q-27 -104 -101.5 -167t-177.5 -63zM850 1343q243 0 377 -151q-14 -37 -53 -59q-64 69 -144 103t-196 34q-186 0 -329 -94t-220.5 -263t-77.5 -387
q0 -221 111.5 -349t334.5 -128q192 0 336 72l78 434h-330q-6 30 13 72h405l-98 -549q-94 -49 -191 -76t-227 -27q-251 0 -381.5 146.5t-130.5 398.5q0 240 92 428t256.5 291.5t374.5 103.5z" />
    <glyph glyph-name="gbreve" unicode="&#x11f;" horiz-adv-x="1073" 
d="M639 1104q-100 0 -160.5 66t-50.5 180q25 9 59 6q-1 -92 44 -139.5t118 -47.5q76 0 138 49t87 138q33 0 54 -8q-27 -115 -101.5 -179.5t-187.5 -64.5zM649 985q207 0 318 -82l-156 -893q-34 -187 -152 -294t-297 -107q-137 0 -225 41t-149 112q17 38 59 54
q104 -138 320 -138q140 0 240 90.5t126 241.5l15 86q-138 -86 -279 -86q-174 0 -277.5 99.5t-103.5 277.5q0 142 47 257.5t126 188.5t179 112.5t209 39.5zM487 80q137 0 275 94l121 684q-83 55 -244 55q-95 0 -179.5 -34.5t-149.5 -98.5t-103.5 -163t-38.5 -220
q0 -150 84.5 -233.5t234.5 -83.5z" />
    <glyph glyph-name="Gdotaccent" unicode="&#x120;" horiz-adv-x="1271" 
d="M840 1473q-28 0 -49 20t-21 49t21 50.5t49 21.5q29 0 49 -21t20 -51q0 -29 -20 -49t-49 -20zM850 1343q243 0 377 -151q-14 -37 -53 -59q-64 69 -144 103t-196 34q-186 0 -329 -94t-220.5 -263t-77.5 -387q0 -221 111.5 -349t334.5 -128q192 0 336 72l78 434h-330
q-6 30 13 72h405l-98 -549q-94 -49 -191 -76t-227 -27q-251 0 -381.5 146.5t-130.5 398.5q0 240 92 428t256.5 291.5t374.5 103.5z" />
    <glyph glyph-name="gdotaccent" unicode="&#x121;" horiz-adv-x="1073" 
d="M676 1178q-28 0 -49 21t-21 50q0 28 21 49t49 21q29 0 49 -21t20 -49q0 -29 -20 -50t-49 -21zM649 985q207 0 318 -82l-156 -893q-34 -187 -152 -294t-297 -107q-137 0 -225 41t-149 112q17 38 59 54q104 -138 320 -138q140 0 240 90.5t126 241.5l15 86
q-138 -86 -279 -86q-174 0 -277.5 99.5t-103.5 277.5q0 142 47 257.5t126 188.5t179 112.5t209 39.5zM487 80q137 0 275 94l121 684q-83 55 -244 55q-95 0 -179.5 -34.5t-149.5 -98.5t-103.5 -163t-38.5 -220q0 -150 84.5 -233.5t234.5 -83.5z" />
    <glyph glyph-name="Gcommaaccent" unicode="&#x122;" horiz-adv-x="1271" 
d="M850 1343q243 0 377 -151q-14 -37 -53 -59q-64 69 -144 103t-196 34q-186 0 -329 -94t-220.5 -263t-77.5 -387q0 -221 111.5 -349t334.5 -128q192 0 336 72l78 434h-330q-6 30 13 72h405l-98 -549q-94 -49 -191 -76t-227 -27q-251 0 -381.5 146.5t-130.5 398.5
q0 240 92 428t256.5 291.5t374.5 103.5zM647 -82q20 0 35 -6q0 -2 1 -17t1 -24q0 -92 -43 -172t-102 -127q-20 7 -27 27q45 47 70.5 116t25.5 129q0 48 -4 66q20 8 43 8z" />
    <glyph glyph-name="gcommaaccent" unicode="&#x123;" horiz-adv-x="1073" 
d="M621 1042q-17 0 -35 7q0 2 -1 17t-1 24q0 92 43 172t102 127q20 -7 27 -27q-45 -47 -71 -116.5t-26 -129.5q0 -42 5 -65q-22 -9 -43 -9zM649 985q207 0 318 -82l-156 -893q-34 -187 -152 -294t-297 -107q-137 0 -225 41t-149 112q17 38 59 54q104 -138 320 -138
q140 0 240 90.5t126 241.5l15 86q-138 -86 -279 -86q-174 0 -277.5 99.5t-103.5 277.5q0 142 47 257.5t126 188.5t179 112.5t209 39.5zM487 80q137 0 275 94l121 684q-83 55 -244 55q-95 0 -179.5 -34.5t-149.5 -98.5t-103.5 -163t-38.5 -220q0 -150 84.5 -233.5
t234.5 -83.5z" />
    <glyph glyph-name="Hbar" unicode="&#x126;" horiz-adv-x="1345" 
d="M1343 973q0 -19 -12 -43h-121l-163 -930q-18 -6 -37 -6q-23 0 -41 6l114 643h-792l-113 -643q-18 -6 -41 -6q-19 0 -37 6l166 930h-110v18q0 19 12 43h108l58 324q15 6 37 6q24 0 39 -6l-58 -324h793l57 324q18 6 39 6q22 0 37 -6l-57 -324h120q2 -6 2 -18zM1096 713
l39 217h-793l-39 -217h793z" />
    <glyph glyph-name="hbar" unicode="&#x127;" horiz-adv-x="1097" 
d="M614 985q105 0 178.5 -29t109.5 -80.5t48 -121.5t-6 -152l-106 -602q-15 -6 -39 -6q-22 0 -37 6l104 586q15 69 6 128.5t-37 104t-88 69.5t-147 25q-90 0 -170.5 -16.5t-128.5 -38.5l-151 -858q-15 -6 -39 -6q-22 0 -37 6l202 1151h-163q-4 36 10 55h164l24 140
q18 6 39 6q22 0 37 -6l-25 -140h203q3 -31 -10 -55h-203l-39 -221q133 55 301 55z" />
    <glyph glyph-name="Itilde" unicode="&#x128;" horiz-adv-x="477" 
d="M182 1444q-40 0 -55 22q27 65 74 101.5t98 36.5q38 0 69.5 -14.5t49.5 -32t43.5 -32t52.5 -14.5q36 0 68 25.5t53 69.5q34 0 55 -21q-29 -66 -76.5 -102.5t-99.5 -36.5q-36 0 -66.5 14.5t-49 31.5t-45 31.5t-54.5 14.5q-36 0 -67 -25.5t-50 -68.5zM139 -6q-22 0 -37 6
l232 1315q18 6 39 6q22 0 37 -6l-232 -1315q-18 -6 -39 -6z" />
    <glyph glyph-name="itilde" unicode="&#x129;" horiz-adv-x="428" 
d="M147 1159q-36 0 -57 21q23 64 64.5 100.5t85.5 36.5q32 0 65 -21t63 -42t54 -21q60 0 90 86q36 0 57 -21q-21 -64 -61 -100.5t-84 -36.5q-40 0 -94 42t-86 42q-63 0 -97 -86zM115 -6q-22 0 -37 6l168 961q18 6 41 6q22 0 37 -6l-170 -961q-18 -6 -39 -6z" />
    <glyph glyph-name="Imacron" unicode="&#x12a;" horiz-adv-x="477" 
d="M205 1485q-5 19 8 63h379q7 -30 -8 -63h-379zM139 -6q-22 0 -37 6l232 1315q18 6 39 6q22 0 37 -6l-232 -1315q-18 -6 -39 -6z" />
    <glyph glyph-name="imacron" unicode="&#x12b;" horiz-adv-x="428" 
d="M117 1174q-2 4 -2 16q0 24 10 49h393v-16q0 -29 -10 -49h-391zM115 -6q-22 0 -37 6l168 961q18 6 41 6q22 0 37 -6l-170 -961q-18 -6 -39 -6z" />
    <glyph glyph-name="Iogonek" unicode="&#x12e;" horiz-adv-x="477" 
d="M209 -260q27 -18 27 -47q-83 -60 -160 -60q-61 0 -96 30.5t-35 86.5q0 124 164 248q-1 0 -3.5 1t-3.5 1l232 1315q18 6 39 6q22 0 37 -6l-232 -1315q-158 -123 -158 -225q0 -37 22.5 -55.5t55.5 -18.5q57 0 111 39z" />
    <glyph glyph-name="iogonek" unicode="&#x12f;" horiz-adv-x="428" 
d="M332 1319q29 0 49 -21t20 -49q0 -29 -20 -50t-49 -21t-50.5 21t-21.5 50q0 28 21.5 49t50.5 21zM150 -2q-160 -116 -160 -223q0 -37 23 -55.5t57 -18.5q54 0 108 39q27 -18 27 -47q-83 -60 -160 -60q-62 0 -96.5 30.5t-34.5 88.5q0 120 162 248h2l168 961q18 6 41 6
q22 0 37 -6l-170 -961q-2 0 -4 -2z" />
    <glyph glyph-name="Idotaccent" unicode="&#x130;" horiz-adv-x="477" 
d="M408 1473q-28 0 -49 20t-21 49t21 50.5t49 21.5q29 0 49 -21t20 -51q0 -29 -20 -49t-49 -20zM139 -6q-22 0 -37 6l232 1315q18 6 39 6q22 0 37 -6l-232 -1315q-18 -6 -39 -6z" />
    <glyph glyph-name="dotlessi" unicode="&#x131;" horiz-adv-x="428" 
d="M115 -6q-22 0 -37 6l168 961q18 6 41 6q22 0 37 -6l-170 -961q-18 -6 -39 -6z" />
    <glyph glyph-name="IJ" unicode="&#x132;" horiz-adv-x="1015" 
d="M178 291q-7 0 -37 6l181 1018q18 6 38 6q22 0 37 -6l-180 -1018q-36 -6 -39 -6zM434 -33q-69 0 -124 27.5t-85 62.5q19 41 58 56q34 -37 69.5 -55.5t96.5 -18.5q211 0 258 262l180 1014q12 6 37 6q22 0 37 -6l-179 -1010q-58 -338 -348 -338z" />
    <glyph glyph-name="ij" unicode="&#x133;" horiz-adv-x="884" 
d="M332 1178q-28 0 -49 21t-21 50q0 28 21 49t49 21q29 0 49 -21t20 -49q0 -29 -20 -50t-49 -21zM786 1174q-28 0 -48.5 20t-20.5 49t20.5 50.5t48.5 21.5q29 0 49.5 -21.5t20.5 -50.5t-20.5 -49t-49.5 -20zM115 -6q-22 0 -37 6l168 961q18 6 41 6q22 0 37 -6l-170 -961
q-18 -6 -39 -6zM285 -399q-120 0 -199 73q14 43 47 60q72 -62 154 -62q84 0 149.5 61.5t87.5 192.5l176 1028q21 7 39 7q19 0 37 -7l-176 -1028q-29 -171 -113.5 -248t-201.5 -77z" />
    <glyph glyph-name="Kcommaaccent" unicode="&#x136;" horiz-adv-x="1107" 
d="M1178 1315q-156 -202 -316.5 -356t-345.5 -275q173 -324 473 -680q-24 -8 -69 -8q-19 0 -27 2q-283 354 -442 643q-58 -36 -177 -100l-96 -541q-18 -6 -41 -6q-20 0 -35 6l232 1315q18 6 39 6q22 0 37 -6l-121 -690q245 135 426.5 291t378.5 401q12 2 39 2q31 0 45 -4z
M485 -82q20 0 35 -6q0 -2 1 -17t1 -24q0 -92 -43 -172t-102 -127q-20 7 -27 27q45 47 70.5 116t25.5 129q0 48 -4 66q20 8 43 8z" />
    <glyph glyph-name="kcommaaccent" unicode="&#x137;" horiz-adv-x="995" 
d="M922 735q0 -71 -28.5 -130t-79 -100t-110 -69t-131.5 -47l246 -387q-32 -8 -53 -8q-27 0 -39 2l-229 364q-19 40 -17 72q179 45 270 114t91 179q0 90 -69 140t-198 50q-160 0 -274 -57l-151 -858q-15 -6 -39 -6q-22 0 -37 6l237 1346q18 6 39 6q22 0 37 -6l-72 -412
q112 51 275 51q156 0 244 -68t88 -182zM334 -82q20 0 35 -6q0 -2 1 -17t1 -24q0 -92 -43.5 -171.5t-102.5 -127.5q-19 6 -26 27q45 47 70.5 116t25.5 129q0 48 -4 66q20 8 43 8z" />
    <glyph glyph-name="kgreenlandic" unicode="&#x138;" horiz-adv-x="917" 
d="M903 954q-83 -124 -209.5 -242t-265.5 -208l379 -502q-24 -6 -62 -6q-26 0 -36 2l-353 463q-64 -39 -137 -70l-69 -391q-18 -6 -39 -6q-22 0 -37 6l168 954q21 7 39 7q19 0 36 -7l-84 -481q157 69 326 206t262 277q6 2 39 2q23 0 43 -4z" />
    <glyph glyph-name="Lacute" unicode="&#x139;" horiz-adv-x="927" 
d="M279 1401q-18 16 -21 41l356 207q29 -18 35 -68zM817 68q9 -37 -12 -70h-705l234 1317q18 6 39 6q19 0 37 -6l-222 -1247h629z" />
    <glyph glyph-name="lacute" unicode="&#x13a;" horiz-adv-x="559" 
d="M225 1401q-17 15 -20 41l356 207q29 -18 35 -68zM281 -14q-83 0 -132 41t-49 120q0 23 6 50l203 1153q16 4 37 4q17 0 37 -4l-201 -1147q-4 -28 -4 -39q0 -53 30 -81t83 -28q43 0 74.5 14t68.5 44q37 -19 37 -54q-85 -73 -190 -73z" />
    <glyph glyph-name="Lcommaaccent" unicode="&#x13b;" horiz-adv-x="927" 
d="M817 68q9 -37 -12 -70h-705l234 1317q18 6 39 6q19 0 37 -6l-222 -1247h629zM477 -82q20 0 35 -6q0 -2 1 -17t1 -24q0 -92 -43 -172t-102 -127q-20 7 -27 27q45 47 70.5 116t25.5 129q0 48 -4 66q20 8 43 8z" />
    <glyph glyph-name="lcommaaccent" unicode="&#x13c;" horiz-adv-x="559" 
d="M281 -14q-83 0 -132 41t-49 120q0 23 6 50l203 1153q16 4 37 4q17 0 37 -4l-201 -1147q-4 -28 -4 -39q0 -53 30 -81t83 -28q43 0 74.5 14t68.5 44q37 -19 37 -54q-85 -73 -190 -73zM143 -428q-19 6 -26 27q45 47 70.5 116t25.5 129q0 48 -4 66q20 8 43 8q20 0 35 -6
q0 -2 1 -17t1 -24q0 -92 -43.5 -171.5t-102.5 -127.5z" />
    <glyph glyph-name="Lcaron" unicode="&#x13d;" horiz-adv-x="927" 
d="M668 1087q-26 3 -29 21q37 53 60.5 131t23.5 143q0 36 -4 60q17 10 45 10q24 0 35 -8l1 -14q1 -14 1 -23q0 -91 -41.5 -181t-91.5 -139zM817 68q9 -37 -12 -70h-705l234 1317q18 6 39 6q19 0 37 -6l-222 -1247h629z" />
    <glyph glyph-name="lcaron" unicode="&#x13e;" horiz-adv-x="559" 
d="M543 1087q-26 3 -29 21q37 53 60.5 131t23.5 143q0 36 -4 60q17 10 45 10q24 0 35 -8l1 -14q1 -14 1 -23q0 -91 -41.5 -181t-91.5 -139zM281 -14q-83 0 -132 41t-49 120q0 23 6 50l203 1153q16 4 37 4q17 0 37 -4l-201 -1147q-4 -28 -4 -39q0 -53 30 -81t83 -28
q43 0 74.5 14t68.5 44q37 -19 37 -54q-85 -73 -190 -73z" />
    <glyph glyph-name="Ldot" unicode="&#x13f;" horiz-adv-x="931" 
d="M817 68q9 -37 -12 -70h-705l234 1317q18 6 39 6q19 0 37 -6l-222 -1247h629zM723 614q-28 0 -49 20.5t-21 49.5q0 28 21 49t49 21q29 0 49.5 -21t20.5 -49q0 -29 -20.5 -49.5t-49.5 -20.5z" />
    <glyph glyph-name="ldot" unicode="&#x140;" horiz-adv-x="528" 
d="M281 -14q-83 0 -132 41t-49 120q0 23 6 50l203 1153q16 4 37 4q17 0 37 -4l-201 -1147q-4 -28 -4 -39q0 -53 30 -81t83 -28q43 0 74.5 14t68.5 44q37 -19 37 -54q-85 -73 -190 -73zM481 608q-29 0 -49 20.5t-20 49.5q0 28 20 49t49 21t49.5 -21t20.5 -49
q0 -29 -20.5 -49.5t-49.5 -20.5z" />
    <glyph glyph-name="Lslash" unicode="&#x141;" horiz-adv-x="927" 
d="M817 68q9 -37 -12 -70h-705l105 594l-146 -70q-10 7 -17 24t-5 32l182 88l115 649q18 6 39 6q19 0 37 -6l-109 -608l193 92q10 -8 18 -25.5t6 -30.5l-229 -110l-101 -565h629z" />
    <glyph glyph-name="lslash" unicode="&#x142;" horiz-adv-x="559" 
d="M434 113q37 -19 37 -54q-85 -73 -190 -73q-83 0 -132 41t-49 120q0 23 6 50l80 456l-139 -67q-23 17 -20 51l172 84l110 629q16 4 37 4q17 0 37 -4l-102 -588l141 69q26 -22 20 -53l-174 -84l-86 -491q-4 -28 -4 -39q0 -53 30 -81t83 -28q43 0 74.5 14t68.5 44z" />
    <glyph glyph-name="Nacute" unicode="&#x143;" horiz-adv-x="1335" 
d="M664 1401q-18 16 -21 41l356 207q29 -18 35 -68zM1231 1323q22 0 37 -6l-232 -1311q-33 -10 -71 -10l-564 1151l-18 45l-6 -53l-201 -1139q-18 -6 -39 -6q-20 0 -35 6l230 1309q37 18 74 10l565 -1161l14 -35l6 47l203 1147q18 6 37 6z" />
    <glyph glyph-name="nacute" unicode="&#x144;" horiz-adv-x="1091" 
d="M492 1085q-21 16 -29 43l319 261q40 -21 49 -68zM608 985q175 0 257.5 -76t82.5 -209q0 -43 -10 -98l-107 -602q-15 -6 -38 -6q-22 0 -37 6l104 586q8 41 8 92q0 235 -276 235q-90 0 -170.5 -16.5t-128.5 -38.5l-150 -858q-15 -6 -39 -6q-21 0 -36 6l157 903
q164 82 383 82z" />
    <glyph glyph-name="Ncommaaccent" unicode="&#x145;" horiz-adv-x="1335" 
d="M1231 1323q22 0 37 -6l-232 -1311q-33 -10 -71 -10l-564 1151l-18 45l-6 -53l-201 -1139q-18 -6 -39 -6q-20 0 -35 6l230 1309q37 18 74 10l565 -1161l14 -35l6 47l203 1147q18 6 37 6zM575 -82q20 0 35 -6q0 -2 1 -17t1 -24q0 -92 -43 -172t-102 -127q-20 7 -27 27
q45 47 71 116t26 129q0 44 -5 66q20 8 43 8z" />
    <glyph glyph-name="ncommaaccent" unicode="&#x146;" horiz-adv-x="1091" 
d="M608 985q175 0 257.5 -76t82.5 -209q0 -43 -10 -98l-107 -602q-15 -6 -38 -6q-22 0 -37 6l104 586q8 41 8 92q0 235 -276 235q-90 0 -170.5 -16.5t-128.5 -38.5l-150 -858q-15 -6 -39 -6q-21 0 -36 6l157 903q164 82 383 82zM451 -82q19 0 34 -6q0 -2 1 -17t1 -24
q0 -92 -43 -172t-102 -127q-20 7 -27 27q45 47 71 116t26 129q0 48 -4 66q20 8 43 8z" />
    <glyph glyph-name="Ncaron" unicode="&#x147;" horiz-adv-x="1335" 
d="M840 1391q-35 -6 -62 0l-184 217q10 23 37 39l186 -191l254 191q24 -12 27 -39zM1231 1323q22 0 37 -6l-232 -1311q-33 -10 -71 -10l-564 1151l-18 45l-6 -53l-201 -1139q-18 -6 -39 -6q-20 0 -35 6l230 1309q37 18 74 10l565 -1161l14 -35l6 47l203 1147q18 6 37 6z" />
    <glyph glyph-name="ncaron" unicode="&#x148;" horiz-adv-x="1091" 
d="M647 1096q-27 -6 -55 0l-182 254q13 26 39 34l178 -217l250 222q26 -12 32 -41zM608 985q175 0 257.5 -76t82.5 -209q0 -43 -10 -98l-107 -602q-15 -6 -38 -6q-22 0 -37 6l104 586q8 41 8 92q0 235 -276 235q-90 0 -170.5 -16.5t-128.5 -38.5l-150 -858q-15 -6 -39 -6
q-21 0 -36 6l157 903q164 82 383 82z" />
    <glyph glyph-name="napostrophe" unicode="&#x149;" horiz-adv-x="1124" 
d="M186 985q-8 2 -15 9t-7 16q55 55 82.5 137t27.5 147q0 43 -6 70q19 8 45 8q27 0 37 -6q4 -12 4 -47q0 -104 -52 -193t-116 -141zM641 985q175 0 257.5 -76t82.5 -209q0 -43 -10 -98l-107 -602q-15 -6 -39 -6q-22 0 -37 6l105 586q8 41 8 92q0 235 -276 235
q-90 0 -170.5 -16.5t-128.5 -38.5l-150 -858q-18 -6 -39 -6q-22 0 -37 6l158 903q164 82 383 82z" />
    <glyph glyph-name="Eng" unicode="&#x14a;" horiz-adv-x="1335" 
d="M1268 1317l-232 -1311l-14 -78q-30 -173 -113 -251t-231 -78q-81 0 -138 30t-73 60q15 39 57 51q68 -72 158 -72q117 0 178.5 59t87.5 205l13 70l-560 1145l-18 45l-6 -53l-201 -1139q-18 -6 -39 -6q-20 0 -35 6l230 1309q37 18 74 10l565 -1161l14 -35v6l6 41l203 1147
q18 6 37 6q22 0 37 -6z" />
    <glyph glyph-name="eng" unicode="&#x14b;" horiz-adv-x="1091" 
d="M608 985q175 0 257.5 -76t82.5 -209q0 -43 -10 -98l-119 -670q-29 -171 -116 -251t-207 -80q-135 0 -193 84q11 32 53 51q28 -35 59 -50.5t93 -15.5q80 0 145.5 62.5t89.5 195.5l117 658q8 41 8 92q0 235 -276 235q-90 0 -170.5 -16.5t-128.5 -38.5l-150 -858
q-15 -6 -39 -6q-21 0 -36 6l157 903q164 82 383 82z" />
    <glyph glyph-name="Omacron" unicode="&#x14c;" horiz-adv-x="1390" 
d="M559 1485q-9 21 12 63h496q4 -32 -10 -63h-498zM633 -23q-239 0 -372.5 148t-133.5 397q0 238 84 425.5t234 291.5t339 104q241 0 376.5 -150.5t135.5 -395.5q0 -374 -181.5 -597t-481.5 -223zM647 49q176 0 305 95t195.5 263t66.5 388q0 218 -115 347.5t-327 129.5
q-168 0 -297.5 -97.5t-197.5 -266t-68 -380.5q0 -223 113.5 -351t324.5 -128z" />
    <glyph glyph-name="omacron" unicode="&#x14d;" horiz-adv-x="1085" 
d="M367 1174q-2 4 -2 16q0 19 12 49h491l2 -16q0 -28 -14 -49h-489zM475 -20q-183 0 -285 111.5t-102 297.5q0 165 61 300.5t177 216.5t266 81q180 0 277.5 -112t97.5 -300q0 -165 -59 -299.5t-172 -215t-261 -80.5zM485 49q94 0 171.5 43t127.5 115t77.5 163.5t27.5 190.5
q0 162 -77 258t-230 96q-99 0 -179.5 -44t-130.5 -117t-77 -163.5t-27 -187.5q0 -160 81 -257t236 -97z" />
    <glyph glyph-name="Ohungarumlaut" unicode="&#x150;" horiz-adv-x="1390" 
d="M541 1374q-24 12 -29 29l252 289q36 -9 51 -52zM846 1374q-21 8 -27 29l250 289q36 -8 51 -52zM633 -23q-239 0 -372.5 148t-133.5 397q0 238 84 425.5t234 291.5t339 104q241 0 376.5 -150.5t135.5 -395.5q0 -374 -181.5 -597t-481.5 -223zM647 49q176 0 305 95
t195.5 263t66.5 388q0 218 -115 347.5t-327 129.5q-168 0 -297.5 -97.5t-197.5 -266t-68 -380.5q0 -223 113.5 -351t324.5 -128z" />
    <glyph glyph-name="ohungarumlaut" unicode="&#x151;" horiz-adv-x="1085" 
d="M367 1063q-24 8 -35 27l237 317q38 -7 58 -43zM653 1063q-25 8 -35 29l236 315q22 -4 34 -13.5t25 -29.5zM475 -20q-183 0 -285 111.5t-102 297.5q0 165 61 300.5t177 216.5t266 81q180 0 277.5 -112t97.5 -300q0 -165 -59 -299.5t-172 -215t-261 -80.5zM485 49
q94 0 171.5 43t127.5 115t77.5 163.5t27.5 190.5q0 162 -77 258t-230 96q-99 0 -179.5 -44t-130.5 -117t-77 -163.5t-27 -187.5q0 -160 81 -257t236 -97z" />
    <glyph glyph-name="OE" unicode="&#x152;" horiz-adv-x="1691" 
d="M1020 1315h686v-19q0 -28 -14 -53h-613l-90 -522h551v-19q0 -30 -14 -55h-551l-101 -575h637q2 -4 2 -19q0 -28 -14 -53h-706q-88 -16 -181 -16q-153 0 -264.5 68.5t-167 187t-55.5 274.5q0 223 85.5 408t245 296t361.5 111q118 0 203 -14zM207 524q0 -210 110 -337.5
t310 -127.5q97 0 170 15l204 1163q-86 18 -198 18q-134 0 -248 -60.5t-189 -162t-117 -233.5t-42 -275z" />
    <glyph glyph-name="oe" unicode="&#x153;" horiz-adv-x="1742" 
d="M1194 418q-134 0 -250 39q-2 -23 -2 -66q0 -162 82 -252t225 -90q70 0 130 20.5t91 42t66 54.5q33 -11 43 -51q-143 -135 -340 -135q-139 0 -233 71t-123 209q-57 -131 -160.5 -205.5t-239.5 -74.5q-196 0 -293.5 113.5t-97.5 314.5q0 255 133 417t346 162
q147 0 239.5 -82t119.5 -221q62 143 176.5 222t249.5 79q143 0 223 -70.5t80 -177.5q0 -147 -115 -233t-350 -86zM492 51q116 0 201.5 66.5t129 181t43.5 262.5q0 160 -78 257t-227 97q-91 0 -165.5 -39t-123 -107t-74.5 -158t-26 -193q0 -173 77 -270t243 -97zM1343 915
q-138 0 -248 -105t-141 -286q108 -39 248 -39q192 0 284.5 68t92.5 172q0 79 -61 134.5t-175 55.5z" />
    <glyph glyph-name="Racute" unicode="&#x154;" horiz-adv-x="1112" 
d="M526 1401q-17 15 -20 41l356 207q29 -18 35 -68zM1044 1016q0 -190 -112 -309t-299 -148q153 -319 348 -555q-27 -6 -59 -6h-27q-191 234 -342 553h-37q-160 0 -242 10l-98 -561q-15 -6 -39 -6q-22 0 -37 6l228 1294q154 43 327 43q197 0 293 -88t96 -233zM289 635
q76 -14 241 -14q213 0 326 109t113 278q0 112 -82.5 185t-245.5 73q-126 0 -246 -27z" />
    <glyph glyph-name="racute" unicode="&#x155;" horiz-adv-x="712" 
d="M403 1085q-19 15 -28 43l319 261q40 -21 49 -68zM580 985q110 0 178 -22q-6 -38 -31 -70q-65 20 -164 20q-75 0 -149 -16t-119 -39l-150 -858q-18 -6 -41 -6q-21 0 -36 6l157 903q153 82 355 82z" />
    <glyph glyph-name="Rcommaaccent" unicode="&#x156;" horiz-adv-x="1112" 
d="M1044 1016q0 -190 -112 -309t-299 -148q153 -319 348 -555q-27 -6 -59 -6h-27q-191 234 -342 553h-37q-160 0 -242 10l-98 -561q-15 -6 -39 -6q-22 0 -37 6l228 1294q154 43 327 43q197 0 293 -88t96 -233zM289 635q76 -14 241 -14q213 0 326 109t113 278
q0 112 -82.5 185t-245.5 73q-126 0 -246 -27zM485 -82q20 0 35 -6q0 -2 1 -17t1 -24q0 -92 -43 -172t-102 -127q-20 7 -27 27q45 47 70.5 116t25.5 129q0 48 -4 66q20 8 43 8z" />
    <glyph glyph-name="rcommaaccent" unicode="&#x157;" horiz-adv-x="712" 
d="M580 985q110 0 178 -22q-6 -38 -31 -70q-65 20 -164 20q-75 0 -149 -16t-119 -39l-150 -858q-18 -6 -41 -6q-21 0 -36 6l157 903q153 82 355 82zM111 -82q19 0 34 -6q0 -2 1 -17t1 -24q0 -92 -43 -172t-102 -127q-20 7 -27 27q45 47 71 116t26 129q0 48 -4 66q20 8 43 8z
" />
    <glyph glyph-name="Rcaron" unicode="&#x158;" horiz-adv-x="1112" 
d="M702 1391q-34 -6 -61 0l-184 217q10 23 37 39l186 -191l254 191q24 -12 27 -39zM1044 1016q0 -190 -112 -309t-299 -148q153 -319 348 -555q-27 -6 -59 -6h-27q-191 234 -342 553h-37q-160 0 -242 10l-98 -561q-15 -6 -39 -6q-22 0 -37 6l228 1294q154 43 327 43
q197 0 293 -88t96 -233zM289 635q76 -14 241 -14q213 0 326 109t113 278q0 112 -82.5 185t-245.5 73q-126 0 -246 -27z" />
    <glyph glyph-name="rcaron" unicode="&#x159;" horiz-adv-x="712" 
d="M559 1096q-28 -6 -55 0l-182 254q13 27 38 34l179 -217l249 222q27 -12 33 -41zM225 903q153 82 355 82q110 0 178 -22q-6 -38 -31 -70q-65 20 -164 20q-75 0 -149 -16t-119 -39l-150 -858q-18 -6 -41 -6q-21 0 -36 6z" />
    <glyph glyph-name="Sacute" unicode="&#x15a;" horiz-adv-x="1026" 
d="M516 1401q-17 15 -20 41l356 207q29 -18 35 -68zM420 -29q-274 0 -404 156q13 38 56 57q113 -139 358 -139q176 0 276.5 84t100.5 221q0 60 -20.5 106.5t-55 76.5t-80 54t-95 43l-99 38t-95 45.5t-80 59.5t-55 84.5t-20.5 117.5q0 168 120 266t316 98q246 0 363 -131
q-17 -42 -56 -59q-119 119 -315 119q-158 0 -254 -78t-96 -211q0 -54 20.5 -96t55 -69.5t80 -49.5t95 -41t99 -38.5t95 -47t80 -63t55 -89.5t20.5 -123q0 -174 -126 -282.5t-339 -108.5z" />
    <glyph glyph-name="sacute" unicode="&#x15b;" horiz-adv-x="868" 
d="M391 1085q-21 16 -29 43l320 261q40 -21 49 -68zM354 -18q-120 0 -205 33t-133 81q17 42 50 58q49 -46 118 -74.5t183 -28.5q127 0 200.5 59.5t73.5 157.5q0 57 -27.5 96t-71 59.5t-96.5 36t-106 33t-96.5 42.5t-71 72t-27.5 114q0 115 97 189.5t258 74.5
q106 0 185 -28.5t118 -65.5q-14 -35 -45 -57q-104 81 -271 81q-119 0 -191.5 -52.5t-72.5 -135.5q0 -52 27.5 -88.5t71 -56t96.5 -34.5t106 -33.5t96.5 -44t71 -73.5t27.5 -116q0 -136 -101.5 -217.5t-263.5 -81.5z" />
    <glyph glyph-name="Scedilla" unicode="&#x15e;" horiz-adv-x="1026" 
d="M643 1339q246 0 363 -131q-17 -42 -56 -59q-119 119 -315 119q-158 0 -254 -78t-96 -211q0 -54 20.5 -96t55 -69.5t80 -49.5t95 -41t99 -38.5t95 -47t80 -63t55 -89.5t20.5 -123q0 -169 -121 -277t-324 -114l-26 -63q71 -15 106 -42.5t35 -82.5q0 -61 -38 -101
t-87.5 -54.5t-107.5 -14.5q-86 0 -111 18q7 34 27 54q37 -15 90 -15q65 0 110 26t45 77q0 44 -32.5 61.5t-118.5 30.5l49 106q-244 13 -365 156q13 38 56 57q113 -139 358 -139q176 0 276.5 84t100.5 221q0 60 -20.5 106.5t-55 76.5t-80 54t-95 43l-99 38t-95 45.5t-80 59.5
t-55 84.5t-20.5 117.5q0 168 120 266t316 98z" />
    <glyph glyph-name="scedilla" unicode="&#x15f;" horiz-adv-x="868" 
d="M500 985q106 0 185 -28.5t118 -65.5q-14 -35 -45 -57q-104 81 -271 81q-119 0 -191.5 -52.5t-72.5 -135.5q0 -52 27.5 -88.5t71 -56t96.5 -34.5t106 -33.5t96.5 -44t71 -73.5t27.5 -116q0 -132 -96 -213t-250 -86l-31 -74q71 -15 106 -42.5t35 -82.5q0 -61 -38 -101
t-87.5 -54.5t-107.5 -14.5q-86 0 -111 18q7 34 27 54q38 -15 90 -15q66 0 111 26t45 77q0 44 -33 61.5t-119 30.5l53 119q-195 10 -297 112q17 42 50 58q49 -46 118 -74.5t183 -28.5q127 0 200.5 59.5t73.5 157.5q0 57 -27.5 96t-71 59.5t-96.5 36t-106 33t-96.5 42.5
t-71 72t-27.5 114q0 115 97 189.5t258 74.5z" />
    <glyph glyph-name="Scaron" unicode="&#x160;" horiz-adv-x="1026" 
d="M631 1391l-185 217q10 23 37 39l187 -191l254 191q23 -11 26 -39l-258 -217q-34 -6 -61 0zM420 -29q-274 0 -404 156q13 38 56 57q113 -139 358 -139q176 0 276.5 84t100.5 221q0 60 -20.5 106.5t-55 76.5t-80 54t-95 43l-99 38t-95 45.5t-80 59.5t-55 84.5t-20.5 117.5
q0 168 120 266t316 98q246 0 363 -131q-17 -42 -56 -59q-119 119 -315 119q-158 0 -254 -78t-96 -211q0 -54 20.5 -96t55 -69.5t80 -49.5t95 -41t99 -38.5t95 -47t80 -63t55 -89.5t20.5 -123q0 -174 -126 -282.5t-339 -108.5z" />
    <glyph glyph-name="scaron" unicode="&#x161;" horiz-adv-x="868" 
d="M492 1096l-183 254q13 26 39 34l178 -217l250 222q27 -12 33 -41l-262 -252q-27 -6 -55 0zM354 -18q-120 0 -205 33t-133 81q17 42 50 58q49 -46 118 -74.5t183 -28.5q127 0 200.5 59.5t73.5 157.5q0 57 -27.5 96t-71 59.5t-96.5 36t-106 33t-96.5 42.5t-71 72t-27.5 114
q0 115 97 189.5t258 74.5q106 0 185 -28.5t118 -65.5q-14 -35 -45 -57q-104 81 -271 81q-119 0 -191.5 -52.5t-72.5 -135.5q0 -52 27.5 -88.5t71 -56t96.5 -34.5t106 -33.5t96.5 -44t71 -73.5t27.5 -116q0 -136 -101.5 -217.5t-263.5 -81.5z" />
    <glyph glyph-name="uni0162" unicode="&#x162;" horiz-adv-x="1036" 
d="M457 0q-2 0 -5.5 -1t-5.5 -1l-36 -90q71 -15 106 -42.5t35 -82.5q0 -46 -21.5 -80.5t-57 -53t-74.5 -27.5t-81 -9q-85 0 -110 18q7 35 26 54q37 -15 91 -15q65 0 110 26t45 77q0 44 -32.5 61.5t-118.5 30.5l59 133l-8 2l219 1245h-442q-6 30 12 70h965q5 -35 -13 -70
h-446z" />
    <glyph glyph-name="uni0163" unicode="&#x163;" horiz-adv-x="743" 
d="M377 893l-103 -588q-12 -52 -12 -106q0 -79 44.5 -114.5t119.5 -35.5q57 0 98.5 16.5t93.5 49.5q31 -22 31 -58q-117 -77 -239 -77h-2l-31 -72q71 -15 106 -42.5t35 -82.5q0 -61 -38 -101t-87.5 -54.5t-107.5 -14.5q-86 0 -111 18q7 34 27 54q37 -15 90 -15q65 0 110 26
t45 77q0 44 -32.5 61.5t-118.5 30.5l53 119q-164 31 -164 194q0 40 11 101l108 614h-213v16q0 27 12 47h211l47 263q15 6 39 6q23 0 35 -6l-45 -263h365l2 -16q0 -25 -15 -47h-364z" />
    <glyph glyph-name="Tcaron" unicode="&#x164;" horiz-adv-x="1036" 
d="M684 1391q-34 -6 -61 0l-185 217q10 23 37 39l187 -191l253 191q24 -12 27 -39zM1133 1315q5 -35 -13 -70h-446l-217 -1245q-21 -6 -41 -6q-19 0 -37 6l219 1245h-442q-6 30 12 70h965z" />
    <glyph glyph-name="tcaron" unicode="&#x165;" horiz-adv-x="743" 
d="M662 1087q-26 3 -29 21q37 53 60.5 131t23.5 143q0 36 -4 60q17 10 45 10q24 0 35 -8l1 -14q1 -14 1 -23q0 -91 -41.5 -181t-91.5 -139zM389 956h365l2 -16q0 -25 -15 -47h-364l-103 -588q-12 -52 -12 -106q0 -79 44.5 -114.5t119.5 -35.5q57 0 98.5 16.5t93.5 49.5
q31 -22 31 -58q-117 -77 -239 -77q-101 0 -163.5 49.5t-62.5 148.5q0 40 11 101l108 614h-213v16q0 27 12 47h211l47 263q15 6 39 6q23 0 35 -6z" />
    <glyph glyph-name="Tbar" unicode="&#x166;" horiz-adv-x="1036" 
d="M1120 1245h-446l-99 -563h181q3 -30 -11 -55h-180l-108 -627q-21 -6 -41 -6q-19 0 -37 6l110 627h-186q-4 36 10 55h187l98 563h-442q-6 30 12 70h965q5 -35 -13 -70z" />
    <glyph glyph-name="tbar" unicode="&#x167;" horiz-adv-x="743" 
d="M741 893h-364l-55 -324h206q3 -31 -10 -55h-207l-37 -209q-12 -52 -12 -106q0 -79 44.5 -114.5t119.5 -35.5q57 0 98.5 16.5t93.5 49.5q31 -22 31 -58q-117 -77 -239 -77q-101 0 -163.5 49.5t-62.5 148.5q0 40 11 101l41 235h-160q-4 36 10 55h160l57 324h-213v16
q0 27 12 47h211l47 263q15 6 39 6q23 0 35 -6l-45 -263h365l2 -16q0 -25 -15 -47z" />
    <glyph glyph-name="Utilde" unicode="&#x168;" horiz-adv-x="1314" 
d="M553 1440q-39 3 -53 24q45 73 89.5 106.5t112.5 33.5q47 0 95 -23t92 -45.5t80 -22.5q75 0 114 93q39 0 56 -21q-28 -67 -73 -103t-101 -36q-48 0 -95.5 22.5t-90.5 45t-81 22.5q-46 0 -79 -24t-66 -72zM569 -25q-200 0 -302.5 104t-102.5 288q0 60 14 149l139 799
q21 6 41 6q22 0 37 -6l-139 -799q-14 -82 -14 -137q0 -151 84 -239.5t260 -88.5q110 0 192.5 33.5t135 98t83.5 143.5t50 186l141 803q18 6 39 6q22 0 37 -6l-144 -811q-21 -120 -60 -212.5t-103 -165.5t-162 -112t-226 -39z" />
    <glyph glyph-name="utilde" unicode="&#x169;" horiz-adv-x="1079" 
d="M391 1155q-36 4 -53 27q40 69 86 102t111 33q45 0 91 -22t87 -44t75 -22q71 0 109 90q39 0 57 -21q-24 -65 -69.5 -101t-98.5 -36q-46 0 -90.5 22t-84.5 44t-76 22q-44 0 -77 -23.5t-67 -70.5zM946 958q22 0 37 -6l-160 -895q-180 -82 -383 -82q-164 0 -244.5 73.5
t-80.5 205.5q0 38 10 96l104 602q21 6 41 6q22 0 37 -6l-102 -579q-8 -49 -8 -101q0 -106 60 -164.5t200 -58.5q159 0 301 57l147 846q18 6 41 6z" />
    <glyph glyph-name="Umacron" unicode="&#x16a;" horiz-adv-x="1314" 
d="M565 1485q-9 20 13 63h495q4 -32 -10 -63h-498zM569 -25q-200 0 -302.5 104t-102.5 288q0 60 14 149l139 799q21 6 41 6q22 0 37 -6l-139 -799q-14 -82 -14 -137q0 -151 84 -239.5t260 -88.5q110 0 192.5 33.5t135 98t83.5 143.5t50 186l141 803q18 6 39 6q22 0 37 -6
l-144 -811q-21 -120 -60 -212.5t-103 -165.5t-162 -112t-226 -39z" />
    <glyph glyph-name="umacron" unicode="&#x16b;" horiz-adv-x="1079" 
d="M879 1174h-490q-2 4 -2 16q0 19 12 49h492l2 -16q0 -28 -14 -49zM946 958q22 0 37 -6l-160 -895q-180 -82 -383 -82q-164 0 -244.5 73.5t-80.5 205.5q0 38 10 96l104 602q21 6 41 6q22 0 37 -6l-102 -579q-8 -49 -8 -101q0 -106 60 -164.5t200 -58.5q159 0 301 57
l147 846q18 6 41 6z" />
    <glyph glyph-name="Uring" unicode="&#x16e;" horiz-adv-x="1314" 
d="M803 1339q-73 0 -115.5 44t-42.5 112q0 90 58 148.5t135 58.5q73 0 115 -43.5t42 -110.5q0 -97 -55 -153t-137 -56zM811 1397q57 0 91 39t34 104q0 46 -26 75.5t-79 29.5t-89.5 -41t-36.5 -101q0 -47 26.5 -76.5t79.5 -29.5zM569 -25q-200 0 -302.5 104t-102.5 288
q0 60 14 149l139 799q21 6 41 6q22 0 37 -6l-139 -799q-14 -82 -14 -137q0 -151 84 -239.5t260 -88.5q110 0 192.5 33.5t135 98t83.5 143.5t50 186l141 803q18 6 39 6q22 0 37 -6l-144 -811q-21 -120 -60 -212.5t-103 -165.5t-162 -112t-226 -39z" />
    <glyph glyph-name="uring" unicode="&#x16f;" horiz-adv-x="1079" 
d="M625 1049q-74 0 -116 43.5t-42 113.5q0 90 57 148.5t135 58.5q75 0 116.5 -44.5t41.5 -115.5q0 -92 -55.5 -148t-136.5 -56zM653 1354q-52 0 -89.5 -40t-37.5 -100q0 -47 26.5 -76.5t78.5 -29.5q59 0 93 36.5t34 102.5q0 49 -25.5 78t-79.5 29zM946 958q22 0 37 -6
l-160 -895q-180 -82 -383 -82q-164 0 -244.5 73.5t-80.5 205.5q0 38 10 96l104 602q21 6 41 6q22 0 37 -6l-102 -579q-8 -49 -8 -101q0 -106 60 -164.5t200 -58.5q159 0 301 57l147 846q18 6 41 6z" />
    <glyph glyph-name="Uhungarumlaut" unicode="&#x170;" horiz-adv-x="1314" 
d="M547 1374q-24 12 -29 29l252 289q36 -9 51 -52zM852 1374q-21 8 -27 29l250 289q36 -8 51 -52zM569 -25q-200 0 -302.5 104t-102.5 288q0 60 14 149l139 799q21 6 41 6q22 0 37 -6l-139 -799q-14 -82 -14 -137q0 -151 84 -239.5t260 -88.5q110 0 192.5 33.5t135 98
t83.5 143.5t50 186l141 803q18 6 39 6q22 0 37 -6l-144 -811q-21 -120 -60 -212.5t-103 -165.5t-162 -112t-226 -39z" />
    <glyph glyph-name="uhungarumlaut" unicode="&#x171;" horiz-adv-x="1079" 
d="M387 1063q-24 8 -35 27l238 317q22 -4 34 -13.5t23 -29.5zM674 1063q-25 8 -35 29l235 315q37 -7 60 -43zM946 958q22 0 37 -6l-160 -895q-180 -82 -383 -82q-164 0 -244.5 73.5t-80.5 205.5q0 38 10 96l104 602q21 6 41 6q22 0 37 -6l-102 -579q-8 -49 -8 -101
q0 -106 60 -164.5t200 -58.5q159 0 301 57l147 846q18 6 41 6z" />
    <glyph glyph-name="Uogonek" unicode="&#x172;" horiz-adv-x="1314" 
d="M1227 1321q22 0 37 -6l-144 -811q-62 -359 -286 -471q-195 -136 -195 -254q0 -38 23.5 -58t56.5 -20q46 0 104 37q11 -5 20 -18t9 -27q-71 -60 -156 -60q-61 0 -98 33.5t-37 93.5q0 109 141 228q-67 -13 -133 -13q-200 0 -302.5 104t-102.5 288q0 60 14 149l139 799
q21 6 41 6q22 0 37 -6l-139 -799q-14 -82 -14 -137q0 -151 84 -239.5t260 -88.5q110 0 192.5 33.5t135 98t83.5 143.5t50 186l141 803q18 6 39 6z" />
    <glyph glyph-name="uogonek" unicode="&#x173;" horiz-adv-x="1079" 
d="M825 57q-104 -65 -168.5 -137.5t-64.5 -140.5q0 -38 23.5 -58t56.5 -20q46 0 104 37q11 -5 20 -18t9 -27q-71 -60 -156 -60q-61 0 -98 33.5t-37 93.5q0 119 164 246q-114 -31 -238 -31q-164 0 -244.5 73.5t-80.5 205.5q0 38 10 96l104 602q21 6 41 6q22 0 37 -6
l-102 -579q-8 -49 -8 -101q0 -106 60 -164.5t200 -58.5q159 0 301 57l147 846q18 6 41 6q22 0 37 -6l-160 -895h2z" />
    <glyph glyph-name="Wcircumflex" unicode="&#x174;" horiz-adv-x="1789" 
d="M797 1386q-22 13 -25 39l258 217q35 6 62 0l184 -217q-9 -20 -37 -39l-186 191zM1800 1321q29 0 41 -6q-196 -735 -651 -1317q-24 -6 -45 -6q-23 0 -41 6q-106 490 -115 965q0 21 -1 63t-1 64l-37 -125q-92 -286 -216 -517.5t-294 -449.5q-24 -6 -45 -6q-23 0 -47 6
q-129 512 -147 1317q20 8 49 8q19 0 31 -4q7 -702 129 -1260q412 577 567 1223q20 4 39 4q21 0 33 -4q-6 -600 112 -1219q437 589 604 1256q10 2 35 2z" />
    <glyph glyph-name="wcircumflex" unicode="&#x175;" horiz-adv-x="1488" 
d="M541 1090q-27 12 -33 40l268 259q28 9 53 0l183 -263q-14 -24 -43 -34l-172 227zM1384 963q33 -70 33 -181q0 -123 -71.5 -279.5t-175.5 -289t-212 -215.5q-18 -6 -40 -6q-26 0 -41 6q-73 213 -125 590q-49 -167 -156 -329t-223 -261q-18 -6 -41 -6q-27 0 -39 6
q-60 166 -109 445.5t-53 506.5q24 6 49 6q19 0 31 -4q1 -208 44 -471t85 -387q2 -12 10 -41q8 10 23 25q89 90 167.5 208.5t133 258t55.5 254.5q-4 48 -8 151q24 6 49 6q19 0 31 -4q0 -214 40 -470t83 -388q7 -22 10 -41q4 5 24 25q150 139 266.5 342.5t116.5 361.5
q0 107 -38 181q12 4 40 4q17 0 41 -4z" />
    <glyph glyph-name="Ycircumflex" unicode="&#x176;" horiz-adv-x="1085" 
d="M449 1386q-22 13 -25 39l258 217q34 6 61 0l185 -217q-9 -20 -37 -39l-186 191zM1180 1315l-598 -770l-97 -545q-18 -6 -39 -6t-36 6l96 549l-340 766q32 8 53 8t27 -2l299 -674l10 -29l18 29l523 674q10 2 34 2q22 0 50 -8z" />
    <glyph glyph-name="ycircumflex" unicode="&#x177;" horiz-adv-x="1079" 
d="M410 1090q-27 12 -33 40l268 259q28 9 53 0l183 -263q-14 -24 -43 -34l-172 227zM940 958q23 0 35 -6l-166 -942q-33 -190 -148 -295.5t-299 -105.5q-243 0 -344 133q16 41 60 53q91 -117 287 -117q154 0 247.5 87.5t120.5 244.5l19 103q-153 -82 -322 -82
q-182 0 -255 101t-42 274l96 546q18 6 39 6q22 0 37 -6l-92 -526q-15 -68 -9 -127t30 -102.5t81.5 -68t145.5 -24.5q157 0 305 89l133 759q18 6 41 6z" />
    <glyph glyph-name="Ydieresis" unicode="&#x178;" horiz-adv-x="1085" 
d="M498 1473q-27 0 -46.5 19t-19.5 46q0 26 20 46t46 20q28 0 47.5 -20t19.5 -46q0 -28 -19.5 -46.5t-47.5 -18.5zM891 1473q-27 0 -46.5 19t-19.5 46q0 26 20 46t46 20q27 0 47 -20t20 -46q0 -28 -19.5 -46.5t-47.5 -18.5zM1180 1315l-598 -770l-97 -545q-18 -6 -39 -6
t-36 6l96 549l-340 766q32 8 53 8t27 -2l299 -674l10 -29l18 29l523 674q10 2 34 2q22 0 50 -8z" />
    <glyph glyph-name="Zacute" unicode="&#x179;" horiz-adv-x="1073" 
d="M528 1401q-17 15 -20 41l356 207q29 -18 35 -68zM1081 1210l-970 -1104l-37 -36h850q4 -32 -13 -70h-925q-4 8 -4 27q0 38 30 71l969 1102l41 45h-821q-5 39 12 70h901l2 -21q0 -39 -35 -84z" />
    <glyph glyph-name="zacute" unicode="&#x17a;" horiz-adv-x="935" 
d="M383 1085q-21 16 -29 43l320 261q40 -21 49 -68zM860 936q0 -38 -43 -84l-651 -715q134 -90 311 -90q158 0 311 66q26 -23 23 -60q-148 -71 -340 -71q-207 0 -358 98l-86 -94q-43 0 -43 30q0 8 2.5 15.5t10 17.5t11.5 15t17 19.5t16 18.5l694 762l29 25h-627q-4 32 10 65
h711q2 -4 2 -18z" />
    <glyph glyph-name="Zdotaccent" unicode="&#x17b;" horiz-adv-x="1073" 
d="M702 1473q-28 0 -48.5 20t-20.5 49t20.5 50.5t48.5 21.5q29 0 49.5 -21.5t20.5 -50.5t-20.5 -49t-49.5 -20zM1081 1210l-970 -1104l-37 -36h850q4 -32 -13 -70h-925q-4 8 -4 27q0 38 30 71l969 1102l41 45h-821q-5 39 12 70h901l2 -21q0 -39 -35 -84z" />
    <glyph glyph-name="zdotaccent" unicode="&#x17c;" horiz-adv-x="935" 
d="M539 1178q-28 0 -49 21t-21 50q0 28 21 49t49 21q29 0 49 -21t20 -49q0 -29 -20 -50t-49 -21zM860 936q0 -38 -43 -84l-651 -715q134 -90 311 -90q158 0 311 66q26 -23 23 -60q-148 -71 -340 -71q-207 0 -358 98l-86 -94q-43 0 -43 30q0 8 2.5 15.5t10 17.5t11.5 15
t17 19.5t16 18.5l694 762l29 25h-627q-4 32 10 65h711q2 -4 2 -18z" />
    <glyph glyph-name="Zcaron" unicode="&#x17d;" horiz-adv-x="1073" 
d="M705 1391q-35 -6 -62 0l-184 217q10 23 37 39l186 -191l254 191q24 -12 27 -39zM1081 1210l-970 -1104l-37 -36h850q4 -32 -13 -70h-925q-4 8 -4 27q0 38 30 71l969 1102l41 45h-821q-5 39 12 70h901l2 -21q0 -39 -35 -84z" />
    <glyph glyph-name="zcaron" unicode="&#x17e;" horiz-adv-x="935" 
d="M539 1096q-28 -6 -56 0l-182 254q13 26 39 34l178 -217l250 222q27 -12 33 -41zM860 936q0 -38 -43 -84l-651 -715q134 -90 311 -90q158 0 311 66q26 -23 23 -60q-148 -71 -340 -71q-207 0 -358 98l-86 -94q-43 0 -43 30q0 8 2.5 15.5t10 17.5t11.5 15t17 19.5t16 18.5
l694 762l29 25h-627q-4 32 10 65h711q2 -4 2 -18z" />
    <glyph glyph-name="uni01EA" unicode="&#x1ea;" horiz-adv-x="1390" 
d="M846 12q-166 -127 -166 -233q0 -38 23.5 -58t56.5 -20q46 0 104 37q11 -5 20 -18t9 -27q-71 -60 -156 -60q-61 0 -98 33.5t-37 93.5q0 114 139 226q-53 -9 -108 -9q-239 0 -372.5 148t-133.5 397q0 238 84 425.5t234 291.5t339 104q241 0 376.5 -150.5t135.5 -395.5
q0 -300 -119.5 -507t-330.5 -278zM209 528q0 -223 113.5 -351t324.5 -128q176 0 305 95t195.5 263t66.5 388q0 218 -115 347.5t-327 129.5q-168 0 -297.5 -97.5t-197.5 -266t-68 -380.5z" />
    <glyph glyph-name="uni01EB" unicode="&#x1eb;" horiz-adv-x="1085" 
d="M664 18q-177 -127 -177 -239q0 -38 23.5 -58t56.5 -20q47 0 105 37q11 -5 19.5 -18t8.5 -27q-71 -60 -155 -60q-61 0 -98 33.5t-37 93.5q0 108 139 226q-37 -6 -74 -6q-183 0 -285 111.5t-102 297.5q0 165 61 300.5t177 216.5t266 81q180 0 277.5 -112t97.5 -300
q0 -191 -81 -342t-222 -215zM168 403q0 -160 81 -257t236 -97q94 0 171.5 43t127.5 115t77.5 163.5t27.5 190.5q0 162 -77 258t-230 96q-99 0 -179.5 -44t-130.5 -117t-77 -163.5t-27 -187.5z" />
    <glyph glyph-name="AEacute" unicode="&#x1fc;" horiz-adv-x="1544" 
d="M961 1401q-18 16 -21 41l356 207q29 -18 35 -68zM1544 1243h-559l-106 -610h499q5 -38 -12 -72h-502l-86 -489h588q6 -35 -12 -72h-664l98 561h-378l-420 -563q-16 -4 -27 -4q-26 0 -53 10l975 1311h674q3 -36 -15 -72zM801 633l98 555l8 45l-33 -47l-411 -553h338z" />
    <glyph glyph-name="aeacute" unicode="&#x1fd;" horiz-adv-x="1615" 
d="M819 1085q-19 15 -28 43l319 261q40 -21 49 -68zM342 -20q-54 0 -99.5 18t-83.5 55.5t-59.5 103.5t-21.5 154q0 136 41.5 260t112 215t171 145t213.5 54q192 0 314 -151q147 151 332 151q128 0 203 -66t75 -182q0 -160 -120.5 -240.5t-334.5 -80.5q-117 0 -245 28
q0 -6 -3 -37.5t-3 -50.5q6 -155 80.5 -231t203.5 -76q51 0 94.5 9.5t80 29t56.5 33t50 37.5q34 -13 43 -56q-75 -57 -151 -89.5t-183 -32.5q-155 0 -244 84t-98 241q-66 -149 -180 -237t-244 -88zM1083 483q179 0 278 64t99 182q0 82 -56 134t-155 52q-42 0 -84 -11
t-90.5 -39.5t-89.5 -72.5t-78 -116.5t-59 -165.5q123 -27 235 -27zM358 51q128 0 251.5 130t158.5 300q37 172 113 289q-95 143 -275 143q-129 0 -233 -82.5t-159.5 -217t-55.5 -291.5q0 -133 55 -202t145 -69z" />
    <glyph glyph-name="Oslashacute" unicode="&#x1fe;" horiz-adv-x="1390" 
d="M604 1401q-17 15 -20 41l356 207q29 -18 35 -68zM1143 1212q153 -150 153 -415q0 -374 -181.5 -597t-481.5 -223q-159 0 -281 72l-102 -149q-40 6 -51 39l102 149q-86 70 -130 181.5t-44 252.5q0 238 84 425.5t234 291.5t339 104q185 0 310 -92l112 166q38 -3 51 -35z
M209 528q0 -246 137 -374l705 1034q-114 84 -279 84q-168 0 -297.5 -97.5t-197.5 -266t-68 -380.5zM647 49q176 0 305 95t195.5 263t66.5 388q0 223 -118 350l-701 -1030q104 -66 252 -66z" />
    <glyph glyph-name="oslashacute" unicode="&#x1ff;" horiz-adv-x="1085" 
d="M424 1085q-21 16 -29 43l320 261q40 -21 49 -68zM840 905q127 -112 127 -330q0 -165 -59 -299.5t-172 -215t-261 -80.5q-117 0 -207 49l-112 -174q-37 3 -50 32l115 174q-133 114 -133 328q0 165 61 300.5t177 216.5t266 81q119 0 201 -49l108 168q35 -4 49 -31zM168 403
q0 -176 96 -272l486 741q-67 43 -168 43q-99 0 -179.5 -44t-130.5 -117t-77 -163.5t-27 -187.5zM485 49q94 0 171.5 43t127.5 115t77.5 163.5t27.5 190.5q0 183 -94 277l-484 -744q73 -45 174 -45z" />
    <glyph glyph-name="Scommaaccent" unicode="&#x218;" horiz-adv-x="1026" 
d="M420 -29q-274 0 -404 156q13 38 56 57q113 -139 358 -139q176 0 276.5 84t100.5 221q0 60 -20.5 106.5t-55 76.5t-80 54t-95 43l-99 38t-95 45.5t-80 59.5t-55 84.5t-20.5 117.5q0 168 120 266t316 98q246 0 363 -131q-17 -42 -56 -59q-119 119 -315 119q-158 0 -254 -78
t-96 -211q0 -54 20.5 -96t55 -69.5t80 -49.5t95 -41t99 -38.5t95 -47t80 -63t55 -89.5t20.5 -123q0 -174 -126 -282.5t-339 -108.5zM322 -428q-20 7 -27 27q45 47 70.5 116t25.5 129q0 48 -4 66q20 8 43 8q20 0 35 -6q0 -2 1 -17t1 -24q0 -92 -43 -172t-102 -127z" />
    <glyph glyph-name="scommaaccent" unicode="&#x219;" horiz-adv-x="868" 
d="M354 -18q-120 0 -205 33t-133 81q17 42 50 58q49 -46 118 -74.5t183 -28.5q127 0 200.5 59.5t73.5 157.5q0 57 -27.5 96t-71 59.5t-96.5 36t-106 33t-96.5 42.5t-71 72t-27.5 114q0 115 97 189.5t258 74.5q106 0 185 -28.5t118 -65.5q-14 -35 -45 -57q-104 81 -271 81
q-119 0 -191.5 -52.5t-72.5 -135.5q0 -52 27.5 -88.5t71 -56t96.5 -34.5t106 -33.5t96.5 -44t71 -73.5t27.5 -116q0 -136 -101.5 -217.5t-263.5 -81.5zM250 -428q-20 7 -27 27q45 47 70.5 116t25.5 129q0 48 -4 66q20 8 43 8q20 0 35 -6q0 -2 1 -17t1 -24q0 -92 -43 -172
t-102 -127z" />
    <glyph glyph-name="uni021A" unicode="&#x21a;" horiz-adv-x="1036" 
d="M1133 1315q5 -35 -13 -70h-446l-217 -1245q-21 -6 -41 -6q-19 0 -37 6l219 1245h-442q-6 30 12 70h965zM426 -82q20 0 35 -6q0 -2 1 -17t1 -24q0 -92 -43.5 -171.5t-102.5 -127.5q-19 6 -26 27q45 47 70.5 116t25.5 129q0 48 -4 66q20 8 43 8z" />
    <glyph glyph-name="uni021B" unicode="&#x21b;" horiz-adv-x="743" 
d="M377 893l-103 -588q-12 -52 -12 -106q0 -79 44.5 -114.5t119.5 -35.5q57 0 98.5 16.5t93.5 49.5q31 -22 31 -58q-117 -77 -239 -77q-101 0 -163.5 49.5t-62.5 148.5q0 40 11 101l108 614h-213v16q0 27 12 47h211l47 263q15 6 39 6q23 0 35 -6l-45 -263h365l2 -16
q0 -25 -15 -47h-364zM393 -82q20 0 35 -6q0 -2 1 -17t1 -24q0 -92 -43 -172t-102 -127q-20 7 -27 27q45 47 70.5 116t25.5 129q0 48 -4 66q20 8 43 8z" />
    <glyph glyph-name="circumflex" unicode="&#x2c6;" horiz-adv-x="579" 
d="M559 1389l182 -263q-14 -24 -43 -34l-172 227l-256 -229q-26 12 -32 40l268 259q28 9 53 0z" />
    <glyph glyph-name="caron" unicode="&#x2c7;" horiz-adv-x="577" 
d="M459 1096l-183 254q13 26 39 34l179 -217l249 222q27 -12 33 -41l-262 -252q-28 -6 -55 0z" />
    <glyph glyph-name="breve" unicode="&#x2d8;" horiz-adv-x="585" 
d="M492 1104q-100 0 -160.5 66t-50.5 180q25 9 59 6q-1 -92 44 -139.5t118 -47.5q76 0 138 49t87 138q32 0 53 -8q-27 -115 -101 -179.5t-187 -64.5z" />
    <glyph glyph-name="dotaccent" unicode="&#x2d9;" horiz-adv-x="280" 
d="M358 1178q-28 0 -48.5 21t-20.5 50q0 28 20.5 49t48.5 21q29 0 49.5 -21t20.5 -49q0 -29 -20.5 -50t-49.5 -21z" />
    <glyph glyph-name="ring" unicode="&#x2da;" horiz-adv-x="450" 
d="M424 1049q-74 0 -116 43.5t-42 113.5q0 90 57.5 148.5t135.5 58.5q74 0 115.5 -44.5t41.5 -115.5q0 -92 -55.5 -148t-136.5 -56zM430 1108q59 0 93 36.5t34 102.5q0 107 -104 107q-52 0 -89.5 -40t-37.5 -100q0 -47 26 -76.5t78 -29.5z" />
    <glyph glyph-name="ogonek" unicode="&#x2db;" horiz-adv-x="430" 
d="M170 -367q-61 0 -98 33.5t-37 93.5q0 80 70 158.5t171 138.5h70q-104 -65 -168.5 -137.5t-64.5 -140.5q0 -38 23.5 -58t56.5 -20q46 0 104 37q11 -5 20 -18t9 -27q-71 -60 -156 -60z" />
    <glyph glyph-name="tilde" unicode="&#x2dc;" horiz-adv-x="716" 
d="M315 1155q-36 4 -53 27q40 69 86 102t111 33q45 0 91 -22t88 -44t75 -22q70 0 108 90q41 0 58 -21q-24 -65 -69.5 -101t-98.5 -36q-46 0 -90.5 22t-85 44t-76.5 22q-44 0 -77 -23.5t-67 -70.5z" />
    <glyph glyph-name="hungarumlaut" unicode="&#x2dd;" horiz-adv-x="618" 
d="M266 1063q-24 8 -35 27l238 317q22 -4 34 -13.5t23 -29.5zM553 1063q-25 8 -35 29l236 315q22 -4 34 -13.5t25 -29.5z" />
    <glyph glyph-name="gravecomb" unicode="&#x300;" 
d="M121 1087l-264 238q20 47 59 61l238 -260q-8 -24 -33 -39z" />
    <glyph glyph-name="acutecomb" unicode="&#x301;" 
d="M-156 1085q-19 15 -28 43l319 261q40 -21 49 -68z" />
    <glyph glyph-name="uni0302" unicode="&#x302;" 
d="M-25 1389l183 -263q-14 -24 -43 -34l-172 227l-256 -229q-27 12 -33 40l268 259q28 9 53 0z" />
    <glyph glyph-name="tildecomb" unicode="&#x303;" 
d="M-387 1155q-36 4 -53 27q40 69 85.5 102t110.5 33q45 0 91 -22t87.5 -44t75.5 -22q71 0 109 90q39 0 57 -21q-24 -65 -69.5 -101t-98.5 -36q-46 0 -90.5 22t-85 44t-76.5 22q-44 0 -76.5 -23.5t-66.5 -70.5z" />
    <glyph glyph-name="uni0304" unicode="&#x304;" 
d="M-342 1174q-2 4 -2 16q0 19 12 49h492l2 -16q0 -27 -15 -49h-489z" />
    <glyph glyph-name="uni0306" unicode="&#x306;" 
d="M-94 1104q-100 0 -160.5 66t-50.5 180q25 9 59 6q-1 -92 44 -139.5t118 -47.5q76 0 138 49t87 138q33 0 54 -8q-27 -115 -101.5 -179.5t-187.5 -64.5z" />
    <glyph glyph-name="uni0307" unicode="&#x307;" 
d="M80 1178q-28 0 -49 21t-21 50q0 28 21 49t49 21q29 0 49.5 -21t20.5 -49q0 -29 -20.5 -50t-49.5 -21z" />
    <glyph glyph-name="uni0308" unicode="&#x308;" 
d="M-303 1167q-27 0 -47.5 20.5t-20.5 47.5q0 26 20.5 45.5t47.5 19.5t46 -19t19 -46q0 -28 -19 -48t-46 -20zM92 1167q-26 0 -46.5 20.5t-20.5 47.5q0 26 20.5 45.5t46.5 19.5q28 0 47 -19t19 -46q0 -28 -19 -48t-47 -20z" />
    <glyph glyph-name="uni030A" unicode="&#x30a;" 
d="M-25 1049q-74 0 -115.5 43.5t-41.5 113.5q0 90 57 148.5t135 58.5q75 0 116.5 -44.5t41.5 -115.5q0 -92 -56 -148t-137 -56zM-18 1108q59 0 93 36.5t34 102.5q0 49 -25.5 78t-79.5 29q-52 0 -89.5 -40t-37.5 -100q0 -47 26.5 -76.5t78.5 -29.5z" />
    <glyph glyph-name="uni030B" unicode="&#x30b;" 
d="M-348 1063q-24 8 -35 27l238 317q22 -4 34 -13.5t23 -29.5zM-61 1063q-25 8 -35 29l235 315q37 -7 60 -43z" />
    <glyph glyph-name="uni030C" unicode="&#x30c;" 
d="M-125 1096l-182 254q13 26 39 34l178 -217l250 222q27 -12 33 -41l-263 -252q-28 -6 -55 0z" />
    <glyph glyph-name="uni0326" unicode="&#x326;" 
d="M-221 -428q-20 7 -27 27q45 47 70.5 116t25.5 129q0 48 -4 66q20 8 43 8q20 0 35 -6q0 -2 1 -17t1 -24q0 -92 -43 -172t-102 -127z" />
    <glyph glyph-name="uni0327" unicode="&#x327;" 
d="M-225 6h59l-41 -98q71 -15 106 -42.5t35 -82.5q0 -61 -38 -101t-87.5 -54.5t-107.5 -14.5q-86 0 -111 18q7 34 27 54q37 -15 90 -15q66 0 111 26t45 77q0 44 -33 61.5t-119 30.5z" />
    <glyph glyph-name="uni0328" unicode="&#x328;" 
d="M-262 -367q-61 0 -98 33.5t-37 93.5q0 80 70 158.5t171 138.5h70q-104 -65 -168.5 -137.5t-64.5 -140.5q0 -39 23.5 -58.5t55.5 -19.5q47 0 105 37q11 -5 20 -18t9 -27q-71 -60 -156 -60z" />
    <glyph glyph-name="uni0335" unicode="&#x335;" 
d="M-334 930q-4 36 10 55h443q3 -31 -10 -55h-443z" />
    <glyph glyph-name="uni0336" unicode="&#x336;" 
d="M-1073 932v18q0 19 12 43h1174q2 -6 2 -18q0 -17 -13 -43h-1175z" />
    <glyph glyph-name="uni0337" unicode="&#x337;" 
d="M-303 578q-24 18 -21 51l396 194q26 -22 20 -53z" />
    <glyph glyph-name="uni0338" unicode="&#x338;" 
d="M-883 -150q-36 3 -49 33l795 1219q35 -4 49 -31z" />
    <glyph glyph-name="Wgrave" unicode="&#x1e80;" horiz-adv-x="1789" 
d="M1202 1444q-8 -28 -26 -43l-310 184q12 47 49 70zM1800 1321q29 0 41 -6q-196 -735 -651 -1317q-24 -6 -45 -6q-23 0 -41 6q-106 490 -115 965q0 21 -1 63t-1 64l-37 -125q-92 -286 -216 -517.5t-294 -449.5q-24 -6 -45 -6q-23 0 -47 6q-129 512 -147 1317q20 8 49 8
q19 0 31 -4q7 -702 129 -1260q412 577 567 1223q20 4 39 4q21 0 33 -4q-6 -600 112 -1219q437 589 604 1256q10 2 35 2z" />
    <glyph glyph-name="wgrave" unicode="&#x1e81;" horiz-adv-x="1488" 
d="M920 1126q-8 -24 -33 -39l-264 238q20 47 59 61zM1384 963q33 -70 33 -181q0 -123 -71.5 -279.5t-175.5 -289t-212 -215.5q-18 -6 -40 -6q-26 0 -41 6q-73 213 -125 590q-49 -167 -156 -329t-223 -261q-18 -6 -41 -6q-27 0 -39 6q-60 166 -109 445.5t-53 506.5q24 6 49 6
q19 0 31 -4q1 -208 44 -471t85 -387q2 -12 10 -41q8 10 23 25q89 90 167.5 208.5t133 258t55.5 254.5q-4 48 -8 151q24 6 49 6q19 0 31 -4q0 -214 40 -470t83 -388q7 -22 10 -41q4 5 24 25q150 139 266.5 342.5t116.5 361.5q0 107 -38 181q12 4 40 4q17 0 41 -4z" />
    <glyph glyph-name="Wacute" unicode="&#x1e82;" horiz-adv-x="1789" 
d="M868 1401q-17 15 -20 41l356 207q29 -18 35 -68zM1800 1321q29 0 41 -6q-196 -735 -651 -1317q-24 -6 -45 -6q-23 0 -41 6q-106 490 -115 965q0 21 -1 63t-1 64l-37 -125q-92 -286 -216 -517.5t-294 -449.5q-24 -6 -45 -6q-23 0 -47 6q-129 512 -147 1317q20 8 49 8
q19 0 31 -4q7 -702 129 -1260q412 577 567 1223q20 4 39 4q21 0 33 -4q-6 -600 112 -1219q437 589 604 1256q10 2 35 2z" />
    <glyph glyph-name="wacute" unicode="&#x1e83;" horiz-adv-x="1488" 
d="M625 1085q-21 16 -29 43l319 261q41 -21 50 -68zM1384 963q33 -70 33 -181q0 -123 -71.5 -279.5t-175.5 -289t-212 -215.5q-18 -6 -40 -6q-26 0 -41 6q-73 213 -125 590q-49 -167 -156 -329t-223 -261q-18 -6 -41 -6q-27 0 -39 6q-60 166 -109 445.5t-53 506.5q24 6 49 6
q19 0 31 -4q1 -208 44 -471t85 -387q2 -12 10 -41q8 10 23 25q89 90 167.5 208.5t133 258t55.5 254.5q-4 48 -8 151q24 6 49 6q19 0 31 -4q0 -214 40 -470t83 -388q7 -22 10 -41q4 5 24 25q150 139 266.5 342.5t116.5 361.5q0 107 -38 181q12 4 40 4q17 0 41 -4z" />
    <glyph glyph-name="Wdieresis" unicode="&#x1e84;" horiz-adv-x="1789" 
d="M848 1473q-27 0 -46.5 19t-19.5 46q0 26 20 46t46 20q28 0 47.5 -20t19.5 -46q0 -28 -19.5 -46.5t-47.5 -18.5zM1241 1473q-27 0 -46 19t-19 46q0 26 19.5 46t45.5 20q28 0 48 -20t20 -46q0 -27 -20 -46t-48 -19zM1800 1321q29 0 41 -6q-196 -735 -651 -1317
q-24 -6 -45 -6q-23 0 -41 6q-106 490 -115 965q0 21 -1 63t-1 64l-37 -125q-92 -286 -216 -517.5t-294 -449.5q-24 -6 -45 -6q-23 0 -47 6q-129 512 -147 1317q20 8 49 8q19 0 31 -4q7 -702 129 -1260q412 577 567 1223q20 4 39 4q21 0 33 -4q-6 -600 112 -1219
q437 589 604 1256q10 2 35 2z" />
    <glyph glyph-name="wdieresis" unicode="&#x1e85;" horiz-adv-x="1488" 
d="M580 1167q-27 0 -47.5 20.5t-20.5 47.5q0 26 20.5 45.5t47.5 19.5t46 -19t19 -46q0 -28 -19 -48t-46 -20zM975 1167q-27 0 -47.5 20.5t-20.5 47.5q0 26 20.5 45.5t47.5 19.5t46 -19t19 -46q0 -28 -19 -48t-46 -20zM1384 963q33 -70 33 -181q0 -123 -71.5 -279.5
t-175.5 -289t-212 -215.5q-18 -6 -40 -6q-26 0 -41 6q-73 213 -125 590q-49 -167 -156 -329t-223 -261q-18 -6 -41 -6q-27 0 -39 6q-60 166 -109 445.5t-53 506.5q24 6 49 6q19 0 31 -4q1 -208 44 -471t85 -387q2 -12 10 -41q8 10 23 25q89 90 167.5 208.5t133 258
t55.5 254.5q-4 48 -8 151q24 6 49 6q19 0 31 -4q0 -214 40 -470t83 -388q7 -22 10 -41q4 5 24 25q150 139 266.5 342.5t116.5 361.5q0 107 -38 181q12 4 40 4q17 0 41 -4z" />
    <glyph glyph-name="uni1E9E" unicode="&#x1e9e;" horiz-adv-x="1236" 
d="M756 1315h381v-21q0 -25 -15 -51q-186 -24 -286.5 -112.5t-100.5 -208.5q0 -62 34.5 -113t117.5 -107q81 -54 127.5 -96.5t76 -103t29.5 -135.5q0 -179 -112.5 -283t-288.5 -104q-191 0 -285 124q18 37 58 58q79 -111 239 -111q148 0 229.5 84.5t81.5 212.5
q0 81 -43.5 145t-150.5 136q-44 29 -73 53t-59 57.5t-44.5 75t-14.5 90.5q0 120 73.5 211t205.5 135q-144 -8 -191 -8q-165 0 -281.5 -91t-144.5 -271l-155 -881q-18 -6 -39 -6q-24 0 -39 6l156 883q18 108 67 192t119 135.5t153 78t175 26.5z" />
    <glyph glyph-name="Ygrave" unicode="&#x1ef2;" horiz-adv-x="1085" 
d="M852 1444q-8 -27 -27 -43l-309 184q12 47 49 70zM1180 1315l-598 -770l-97 -545q-18 -6 -39 -6t-36 6l96 549l-340 766q32 8 53 8t27 -2l299 -674l10 -29l18 29l523 674q10 2 34 2q22 0 50 -8z" />
    <glyph glyph-name="ygrave" unicode="&#x1ef3;" horiz-adv-x="1079" 
d="M791 1126q-8 -24 -33 -39l-264 238q20 47 59 61zM940 958q23 0 35 -6l-166 -942q-33 -190 -148 -295.5t-299 -105.5q-243 0 -344 133q16 41 60 53q91 -117 287 -117q154 0 247.5 87.5t120.5 244.5l19 103q-153 -82 -322 -82q-182 0 -255 101t-42 274l96 546q18 6 39 6
q22 0 37 -6l-92 -526q-15 -68 -9 -127t30 -102.5t81.5 -68t145.5 -24.5q157 0 305 89l133 759q18 6 41 6z" />
    <glyph glyph-name="uni1EF8" unicode="&#x1ef8;" horiz-adv-x="1085" 
d="M428 1440q-39 3 -53 24q44 73 89.5 106.5t113.5 33.5q47 0 95 -23t91.5 -45.5t79.5 -22.5q75 0 114 93q38 0 56 -21q-28 -67 -73 -103t-101 -36q-48 0 -95.5 22.5t-90.5 45t-81 22.5q-46 0 -79 -24t-66 -72zM1180 1315l-598 -770l-97 -545q-18 -6 -39 -6t-36 6l96 549
l-340 766q32 8 53 8t27 -2l299 -674l10 -29l18 29l523 674q10 2 34 2q22 0 50 -8z" />
    <glyph glyph-name="uni1EF9" unicode="&#x1ef9;" horiz-adv-x="1079" 
d="M393 1155q-36 4 -53 27q40 69 86 102t111 33q45 0 91 -22t87.5 -44t75.5 -22q70 0 108 90q40 0 57 -21q-24 -65 -69.5 -101t-98.5 -36q-46 0 -90.5 22t-84.5 44t-76 22q-44 0 -77 -23.5t-67 -70.5zM940 958q23 0 35 -6l-166 -942q-33 -190 -148 -295.5t-299 -105.5
q-243 0 -344 133q16 41 60 53q91 -117 287 -117q154 0 247.5 87.5t120.5 244.5l19 103q-153 -82 -322 -82q-182 0 -255 101t-42 274l96 546q18 6 39 6q22 0 37 -6l-92 -526q-15 -68 -9 -127t30 -102.5t81.5 -68t145.5 -24.5q157 0 305 89l133 759q18 6 41 6z" />
    <glyph glyph-name="endash" unicode="&#x2013;" horiz-adv-x="1134" 
d="M139 477v21q0 25 13 47h825l2 -17q0 -23 -14 -51h-826z" />
    <glyph glyph-name="emdash" unicode="&#x2014;" horiz-adv-x="2097" 
d="M141 479q-2 4 -2 21q0 20 15 45h1785q3 -6 3 -15q0 -28 -15 -51h-1786z" />
    <glyph glyph-name="quoteleft" unicode="&#x2018;" horiz-adv-x="378" 
d="M256 985q-27 0 -37 6q-2 6 -2 47q0 105 51.5 193t114.5 141q10 -2 17.5 -8.5t7.5 -15.5q-56 -54 -83.5 -136.5t-27.5 -148.5q0 -52 4 -70q-19 -8 -45 -8z" />
    <glyph glyph-name="quoteright" unicode="&#x2019;" horiz-adv-x="378" 
d="M221 985q-8 2 -15.5 9t-8.5 16q56 54 84 136.5t28 147.5q0 43 -6 70q19 8 45 8q27 0 37 -6q4 -12 4 -47q0 -104 -52 -193t-116 -141z" />
    <glyph glyph-name="quotesinglbase" unicode="&#x201a;" horiz-adv-x="385" 
d="M2 -205q-8 2 -16.5 9.5t-8.5 15.5q57 54 85 136.5t28 145.5q0 44 -6 74q21 6 45 6q27 0 37 -4q4 -16 4 -47q0 -105 -52 -194.5t-116 -141.5z" />
    <glyph glyph-name="quotedblleft" unicode="&#x201c;" horiz-adv-x="598" 
d="M256 985q-27 0 -37 6q0 1 -1 18t-1 29q0 104 51.5 193t114.5 141q10 -2 17.5 -8.5t7.5 -15.5q-58 -55 -84.5 -138t-26.5 -147q0 -52 4 -70q-16 -8 -45 -8zM475 985q-27 0 -37 6q-2 6 -2 47q0 105 52 193.5t116 140.5q8 -2 15.5 -9t7.5 -15q-56 -54 -83.5 -136.5
t-27.5 -148.5q0 -34 4 -70q-16 -8 -45 -8z" />
    <glyph glyph-name="quotedblright" unicode="&#x201d;" horiz-adv-x="600" 
d="M221 983q-8 2 -15 8.5t-7 16.5q56 53 83 134.5t27 147.5q0 36 -4 72q24 8 43 8q22 0 37 -6q4 -12 4 -47q0 -105 -52.5 -195t-115.5 -139zM440 983q-8 2 -15 8.5t-7 16.5q57 55 83.5 137.5t26.5 144.5q0 36 -4 72q24 8 45 8q20 0 35 -6q4 -12 4 -47q0 -105 -52.5 -195
t-115.5 -139z" />
    <glyph glyph-name="quotedblbase" unicode="&#x201e;" horiz-adv-x="604" 
d="M2 -205q-8 2 -15 9t-7 16q55 55 82.5 137.5t27.5 148.5q0 43 -6 70q21 6 45 6q27 0 37 -4q4 -16 4 -47q0 -105 -52 -194.5t-116 -141.5zM221 -205q-8 2 -15 9t-7 16q56 55 83 138.5t27 147.5q0 34 -4 70q18 6 43 6q27 0 37 -4q4 -16 4 -47q0 -105 -52 -194.5t-116 -141.5
z" />
    <glyph glyph-name="dagger" unicode="&#x2020;" horiz-adv-x="985" 
d="M610 1032l338 8v-16q0 -31 -14 -53l-332 8l-227 -1286q-18 -6 -37 -6q-20 0 -35 6l227 1286l-335 -8v18q0 23 12 51l332 -8l77 436q18 7 37 7q17 0 35 -7z" />
    <glyph glyph-name="daggerdbl" unicode="&#x2021;" horiz-adv-x="985" 
d="M936 971l-332 8l-141 -795l336 9q2 -6 2 -19q0 -23 -15 -53l-331 8l-78 -436q-18 -6 -39 -6q-17 0 -35 6l78 436l-334 -8q-2 4 -2 18q0 26 14 54l330 -11l141 797l-333 -8q-2 4 -2 18q0 18 14 51l330 -8l77 436q21 7 37 7q19 0 37 -7l-78 -436l336 8q2 -4 2 -16
q0 -25 -14 -53z" />
    <glyph glyph-name="bullet" unicode="&#x2022;" horiz-adv-x="716" 
d="M352 354q-72 0 -124 52t-52 124q0 73 52 125t124 52q73 0 124.5 -51.5t51.5 -125.5q0 -72 -51.5 -124t-124.5 -52z" />
    <glyph glyph-name="ellipsis" unicode="&#x2026;" horiz-adv-x="1044" 
d="M133 -16q-28 0 -47.5 19t-19.5 48q0 28 19.5 48t47.5 20q29 0 48.5 -20t19.5 -48q0 -29 -19.5 -48t-48.5 -19zM453 -16q-28 0 -49 19t-21 48q0 28 21 48t49 20t47.5 -20t19.5 -48q0 -29 -19.5 -48t-47.5 -19zM772 -16q-28 0 -49 19t-21 48q0 28 21 48t49 20t48 -20
t20 -48q0 -29 -20 -48t-48 -19z" />
    <glyph glyph-name="perthousand" unicode="&#x2030;" horiz-adv-x="2093" 
d="M139 -96l1073 1356q44 12 78 0l-1075 -1356q-47 -13 -76 0zM379 680q-114 0 -176 68t-62 174q0 155 88 249.5t224 94.5q112 0 172.5 -67.5t60.5 -172.5q0 -157 -85 -251.5t-222 -94.5zM389 743q107 0 169.5 75.5t62.5 201.5q0 81 -45.5 132.5t-135.5 51.5
q-101 0 -166 -76.5t-65 -199.5q0 -81 47.5 -133t132.5 -52zM1028 -14q-114 0 -174.5 67.5t-60.5 173.5q0 155 87 249.5t222 94.5q113 0 174 -67.5t61 -173.5q0 -156 -85.5 -250t-223.5 -94zM1667 -14q-114 0 -174.5 67.5t-60.5 173.5q0 155 87 249.5t222 94.5
q113 0 174 -67.5t61 -173.5q0 -156 -85.5 -250t-223.5 -94zM1038 49q107 0 169.5 75.5t62.5 201.5q0 81 -44 132.5t-134 51.5q-102 0 -168 -77t-66 -202q0 -79 48 -130.5t132 -51.5zM1677 49q107 0 169.5 75.5t62.5 201.5q0 81 -44.5 132.5t-135.5 51.5q-101 0 -166.5 -77
t-65.5 -202q0 -80 47.5 -131t132.5 -51z" />
    <glyph glyph-name="guilsinglleft" unicode="&#x2039;" horiz-adv-x="522" 
d="M285 231l-195 293l299 299q24 -9 29 -32l-232 -269l142 -260q-14 -22 -43 -31z" />
    <glyph glyph-name="guilsinglright" unicode="&#x203a;" horiz-adv-x="520" 
d="M121 231q-25 8 -31 31l232 260l-138 269q12 23 41 32l195 -299z" />
    <glyph glyph-name="fraction" unicode="&#x2044;" horiz-adv-x="1050" 
d="M-90 -98l1184 1448q39 9 75 0l-1181 -1448q-44 -9 -78 0z" />
    <glyph glyph-name="Euro" unicode="&#x20ac;" horiz-adv-x="1269" 
d="M920 1346q217 0 348 -142q-18 -35 -51 -49q-66 62 -136 91.5t-172 29.5q-192 0 -333.5 -115t-206.5 -319h456v-15q0 -25 -12 -49h-463q-25 -117 -28 -237h417q0 -19 -2 -27q0 -16 -10 -39h-405q9 -204 110 -317t291 -113q203 0 350 123q30 -17 33 -51
q-169 -140 -395 -140q-222 0 -341 133t-128 365h-176v14q0 25 12 52h164q3 121 28 237h-118v15q0 22 12 49h125q72 236 240.5 370t390.5 134z" />
    <glyph glyph-name="trademark" unicode="&#x2122;" horiz-adv-x="1441" 
d="M1358 1348q11 0 51 -5l-125 -712q-20 -4 -37 -4q-14 0 -30 4l90 508l16 69l-6 -12l-293 -496q-14 -6 -37 -6q-18 0 -33 6l-137 498l-2 10l-8 -69l-90 -508q-16 -4 -33 -4q-15 0 -35 4l125 712q24 7 53 7h21l145 -516l11 -54l30 54l305 514h19zM705 1282h-213l-117 -651
q-10 -4 -33 -4t-35 4l115 651h-227l-2 14q0 22 12 50h512q0 -19 -2 -27q0 -19 -10 -37z" />
    <glyph glyph-name="minus" unicode="&#x2212;" horiz-adv-x="1064" 
d="M139 449q-2 2 -2 18q4 31 13 49h749q2 0 2 -20q-3 -30 -12 -47h-750z" />
    <glyph glyph-name="approxequal" unicode="&#x2248;" horiz-adv-x="1048" 
d="M207 557q-14 1 -28 10t-21 19q41 65 102 100t131 35q52 0 107 -23t105.5 -46t92.5 -23q109 0 172 96q14 -2 30 -11t22 -20q-41 -65 -102.5 -100t-133.5 -35q-52 0 -105 23t-103.5 46t-96.5 23q-112 0 -172 -94zM143 190q-15 2 -30 10.5t-19 18.5q40 64 101 99.5t133 35.5
q64 0 159.5 -46t145.5 -46q106 0 170 94q39 -4 51 -28q-40 -65 -101.5 -101.5t-131.5 -36.5q-65 0 -159 46.5t-147 46.5q-111 0 -172 -93z" />
    <glyph glyph-name="notequal" unicode="&#x2260;" horiz-adv-x="1007" 
d="M696 680h174v-14q0 -26 -12 -56h-211l-192 -264h356q2 -2 2 -12q0 -25 -12 -55h-395l-173 -238q-31 8 -49 35l148 203h-223v12q0 28 12 55h260l190 264h-403v15q0 25 12 55h443l182 252q29 -6 49 -35z" />
    <glyph glyph-name="dotlessj" unicode="&#xf6be;" horiz-adv-x="456" 
d="M-143 -399q-120 0 -199 73q14 43 47 60q72 -62 154 -62q84 0 149.5 61.5t87.5 192.5l176 1028q21 7 39 7q19 0 37 -7l-176 -1028q-29 -171 -113.5 -248t-201.5 -77z" />
    <glyph glyph-name="uniF8FF" unicode="&#xf8ff;" horiz-adv-x="2822" 
d="M1462 1176q-9 59 28 102t93 43q44 0 76.5 -30.5t40.5 -76.5q9 -60 -27.5 -102.5t-93.5 -42.5q-43 0 -76 31t-41 76zM532 553h-231q4 299 29 643h194q0 -9 3 -90.5t4 -143t2.5 -187t-1.5 -222.5zM1456 553q3 186 12 301h-118l2 -133q8 -8 28 -8q27 0 37 10l-4 -152
q-23 -30 -133 -30q-137 0 -156 108q-3 18 0 65.5t7 92t4 47.5h-43l4 162l231 61l2 -35h346q19 -147 11 -489h-230zM743 543q-70 0 -114.5 43t-57.5 129q-24 155 41 246.5t224 91.5q238 0 235 -240l-4 -260h-162l-12 125q-14 -67 -48.5 -101t-101.5 -34zM2228 553h-223
q1 57 4 111.5t3.5 66.5t-1.5 41q-3 31 -26 31q-21 0 -28 -14.5t-9 -45.5q0 -4 1.5 -69t0.5 -121h-221q4 352 28 489h156q10 -113 8 -155q2 19 9 41.5t23.5 53.5t49.5 51t78 20q83 0 114 -51.5t31 -165.5zM2736 860q23 -144 -36 -230.5t-206 -86.5q-100 0 -157.5 51.5
t-71.5 144.5q-6 34 -6 67t5 70t22.5 67.5t44.5 55.5t72.5 39.5t105.5 14.5q106 0 159.5 -53.5t67.5 -139.5zM868 782q-5 39 -45 39q-30 0 -39.5 -17.5t-3.5 -53.5q6 -43 41 -43q26 0 39 20.5t8 54.5zM2544 782q-5 39 -43 39q-29 0 -38 -17.5t-3 -53.5q6 -43 39 -43
q25 0 37 20.5t8 54.5zM938 487h203q6 -43 8 -51q15 -95 17.5 -171t-6 -132t-28.5 -97.5t-46.5 -67.5t-64.5 -42t-78 -22t-91 -6q-116 0 -170 34l4 170q40 -32 135 -32q25 0 45.5 5t31.5 11.5t18 15t9.5 15t2.5 10.5q-34 -23 -97 -23q-87 0 -129.5 41.5t-42.5 128.5v27h-106
l4 -133q8 -8 29 -8q25 0 35 10l-3 -150q-38 -30 -133 -30q-72 0 -108.5 26.5t-44.5 81.5q-4 8 -3 46t2 60t4 58t3 39h-35l4 164l228 59l-3 -37h345l-5 -243q0 -33 6 -44.5t23 -11.5q33 0 33 56zM1532 498q58 0 96.5 -43.5t50.5 -124.5q27 -162 -40 -251t-228 -89v-80h-231
q6 349 30 577h152q4 -22 7.5 -76t2.5 -79q3 15 7 29t16.5 41t28.5 46.5t44.5 34.5t63.5 15zM2181 311q7 -63 -6 -123h-242q23 -36 99 -36q66 0 106 24l-2 -153q-47 -33 -154 -33q-235 0 -266 198q-22 139 44 224.5t202 85.5q90 0 147 -48.5t72 -138.5zM2003 223q6 56 -33 56
q-45 0 -45 -56h78zM1403 147q7 0 19 4t26.5 12.5t22.5 27.5t4 45q-5 34 -37 34q-58 0 -43 -90q3 -23 8 -33zM2187 18q3 -38 45 -38q23 0 36.5 15t10.5 40q-6 39 -45 39q-24 0 -37.5 -16t-9.5 -40zM2198 18q-6 45 36 45q30 0 33 -28q6 -45 -35 -45q-28 0 -34 28zM2253 4
l-12 19q6 0 10.5 4t3.5 12q-3 12 -21 12h-20v-47h8v19h10l9 -19h12zM2236 31h-14l2 12h12q9 0 9 -4q0 -8 -9 -8z" />
    <glyph glyph-name="A.ss01" horiz-adv-x="1134" 
d="M743 1315q157 -543 242 -1309q-21 -12 -55 -12q-11 0 -27 4q-22 223 -51 420h-619q-74 -143 -202 -420q-8 -2 -27 -2q-31 0 -51 10q362 773 715 1309q12 4 39 4q24 0 36 -4zM268 487h576q-59 380 -139 672l-17 60l-35 -62q-187 -286 -385 -670z" />
    <glyph glyph-name="Aacute.ss01" horiz-adv-x="1134" 
d="M553 1401q-18 16 -21 41l357 207q29 -18 35 -68zM743 1315q157 -543 242 -1309q-21 -12 -55 -12q-11 0 -27 4q-22 223 -51 420h-619q-74 -143 -202 -420q-8 -2 -27 -2q-31 0 -51 10q362 773 715 1309q12 4 39 4q24 0 36 -4zM268 487h576q-59 380 -139 672l-17 60l-35 -62
q-187 -286 -385 -670z" />
    <glyph glyph-name="Abreve.ss01" horiz-adv-x="1134" 
d="M715 1417q-101 0 -162 63t-57 169q26 9 59 6q3 -81 49 -126.5t117 -45.5q75 0 133.5 44.5t85.5 127.5q34 0 53 -8q-27 -104 -101 -167t-177 -63zM707 1319q24 0 36 -4q157 -543 242 -1309q-21 -12 -55 -12q-11 0 -27 4q-22 223 -51 420h-619q-74 -143 -202 -420
q-8 -2 -27 -2q-31 0 -51 10q362 773 715 1309q12 4 39 4zM268 487h576q-59 380 -139 672l-17 60l-35 -62q-187 -286 -385 -670z" />
    <glyph glyph-name="Acircumflex.ss01" horiz-adv-x="1134" 
d="M481 1386q-21 12 -24 39l258 217q34 6 61 0l185 -217q-9 -20 -37 -39l-187 191zM743 1315q157 -543 242 -1309q-21 -12 -55 -12q-11 0 -27 4q-22 223 -51 420h-619q-74 -143 -202 -420q-8 -2 -27 -2q-31 0 -51 10q362 773 715 1309q12 4 39 4q24 0 36 -4zM268 487h576
q-59 380 -139 672l-17 60l-35 -62q-187 -286 -385 -670z" />
    <glyph glyph-name="Adieresis.ss01" horiz-adv-x="1134" 
d="M532 1473q-27 0 -46 19t-19 46q0 26 19.5 46t45.5 20q28 0 48 -20t20 -46q0 -27 -20 -46t-48 -19zM926 1473q-27 0 -46.5 19t-19.5 46q0 26 20 46t46 20q28 0 47.5 -20t19.5 -46q0 -28 -19.5 -46.5t-47.5 -18.5zM707 1319q24 0 36 -4q157 -543 242 -1309q-21 -12 -55 -12
q-11 0 -27 4q-22 223 -51 420h-619q-74 -143 -202 -420q-8 -2 -27 -2q-31 0 -51 10q362 773 715 1309q12 4 39 4zM268 487h576q-59 380 -139 672l-17 60l-35 -62q-187 -286 -385 -670z" />
    <glyph glyph-name="Agrave.ss01" horiz-adv-x="1134" 
d="M887 1444q-8 -27 -27 -43l-309 184q12 47 49 70zM743 1315q157 -543 242 -1309q-21 -12 -55 -12q-11 0 -27 4q-22 223 -51 420h-619q-74 -143 -202 -420q-8 -2 -27 -2q-31 0 -51 10q362 773 715 1309q12 4 39 4q24 0 36 -4zM268 487h576q-59 380 -139 672l-17 60l-35 -62
q-187 -286 -385 -670z" />
    <glyph glyph-name="Amacron.ss01" horiz-adv-x="1134" 
d="M971 1485h-498q-9 21 12 63h496q4 -32 -10 -63zM743 1315q157 -543 242 -1309q-21 -12 -55 -12q-11 0 -27 4q-22 223 -51 420h-619q-74 -143 -202 -420q-8 -2 -27 -2q-31 0 -51 10q362 773 715 1309q12 4 39 4q24 0 36 -4zM268 487h576q-59 380 -139 672l-17 60l-35 -62
q-187 -286 -385 -670z" />
    <glyph glyph-name="Aogonek.ss01" horiz-adv-x="1134" 
d="M1012 -260q26 -15 26 -47q-79 -60 -159 -60q-61 0 -96 30.5t-35 86.5q0 119 155 248q-22 223 -51 420h-619q-74 -143 -202 -420q-8 -2 -27 -2q-31 0 -51 10q362 773 715 1309q12 4 39 4q24 0 36 -4q157 -543 242 -1309q-74 -54 -117 -114.5t-43 -116.5q0 -37 22 -55.5
t54 -18.5q57 0 111 39zM268 487h576q-59 380 -139 672l-17 60l-35 -62q-187 -286 -385 -670z" />
    <glyph glyph-name="Aring.ss01" horiz-adv-x="1134" 
d="M711 1339q-73 0 -115.5 44t-42.5 112q0 91 57.5 149t134.5 58q73 0 115.5 -43.5t42.5 -110.5q0 -97 -55 -153t-137 -56zM739 1645q-53 0 -90 -41t-37 -101q0 -47 27 -76.5t80 -29.5q57 0 91 39t34 104q0 46 -26 75.5t-79 29.5zM743 1315q157 -543 242 -1309
q-21 -12 -55 -12q-11 0 -27 4q-22 223 -51 420h-619q-74 -143 -202 -420q-8 -2 -27 -2q-31 0 -51 10q362 773 715 1309q12 4 39 4q24 0 36 -4zM268 487h576q-59 380 -139 672l-17 60l-35 -62q-187 -286 -385 -670z" />
    <glyph glyph-name="Atilde.ss01" horiz-adv-x="1134" 
d="M993 1606q39 0 56 -21q-28 -67 -73.5 -103t-101.5 -36q-48 0 -95 22.5t-90 45t-81 22.5q-46 0 -79 -24t-66 -72q-39 3 -53 24q45 73 89.5 106.5t112.5 33.5q47 0 95 -23t92 -45.5t80 -22.5q75 0 114 93zM707 1319q24 0 36 -4q157 -543 242 -1309q-21 -12 -55 -12
q-11 0 -27 4q-22 223 -51 420h-619q-74 -143 -202 -420q-8 -2 -27 -2q-31 0 -51 10q362 773 715 1309q12 4 39 4zM268 487h576q-59 380 -139 672l-17 60l-35 -62q-187 -286 -385 -670z" />
    <glyph glyph-name="E.ss01" horiz-adv-x="960" 
d="M676 1333q180 0 282 -84q-11 -34 -45 -61q-98 76 -247 76q-155 0 -254 -85t-99 -223q0 -91 71.5 -157t221.5 -66h137q2 -4 2 -16q0 -29 -14 -53h-147q-198 0 -314 -107t-116 -256q0 -121 77.5 -184.5t225.5 -63.5q104 0 182.5 23.5t159.5 79.5q26 -17 26 -60
q-163 -112 -381 -112q-177 0 -273.5 77.5t-96.5 225.5q0 159 98 266t246 147q-84 30 -132 95t-48 155q0 115 59 203t158.5 134t220.5 46z" />
    <glyph glyph-name="Eacute.ss01" horiz-adv-x="960" 
d="M520 1401q-17 15 -20 41l356 207q29 -18 35 -68zM676 1333q180 0 282 -84q-11 -34 -45 -61q-98 76 -247 76q-155 0 -254 -85t-99 -223q0 -91 71.5 -157t221.5 -66h137q2 -4 2 -16q0 -29 -14 -53h-147q-198 0 -314 -107t-116 -256q0 -121 77.5 -184.5t225.5 -63.5
q104 0 182.5 23.5t159.5 79.5q26 -17 26 -60q-163 -112 -381 -112q-177 0 -273.5 77.5t-96.5 225.5q0 159 98 266t246 147q-84 30 -132 95t-48 155q0 115 59 203t158.5 134t220.5 46z" />
    <glyph glyph-name="Ecaron.ss01" horiz-adv-x="960" 
d="M698 1391q-34 -6 -61 0l-184 217q11 24 36 39l187 -191l254 191q23 -11 26 -39zM676 1333q180 0 282 -84q-11 -34 -45 -61q-98 76 -247 76q-155 0 -254 -85t-99 -223q0 -91 71.5 -157t221.5 -66h137q2 -4 2 -16q0 -29 -14 -53h-147q-198 0 -314 -107t-116 -256
q0 -121 77.5 -184.5t225.5 -63.5q104 0 182.5 23.5t159.5 79.5q26 -17 26 -60q-163 -112 -381 -112q-177 0 -273.5 77.5t-96.5 225.5q0 159 98 266t246 147q-84 30 -132 95t-48 155q0 115 59 203t158.5 134t220.5 46z" />
    <glyph glyph-name="Ecircumflex.ss01" horiz-adv-x="960" 
d="M449 1386q-22 13 -25 39l258 217q34 6 61 0l185 -217q-9 -20 -37 -39l-186 191zM676 1333q180 0 282 -84q-11 -34 -45 -61q-98 76 -247 76q-155 0 -254 -85t-99 -223q0 -91 71.5 -157t221.5 -66h137q2 -4 2 -16q0 -29 -14 -53h-147q-198 0 -314 -107t-116 -256
q0 -121 77.5 -184.5t225.5 -63.5q104 0 182.5 23.5t159.5 79.5q26 -17 26 -60q-163 -112 -381 -112q-177 0 -273.5 77.5t-96.5 225.5q0 159 98 266t246 147q-84 30 -132 95t-48 155q0 115 59 203t158.5 134t220.5 46z" />
    <glyph glyph-name="Edieresis.ss01" horiz-adv-x="960" 
d="M500 1473q-27 0 -46.5 19t-19.5 46q0 26 20 46t46 20q28 0 47.5 -20t19.5 -46q0 -28 -19.5 -46.5t-47.5 -18.5zM893 1473q-27 0 -46.5 19t-19.5 46q0 26 20 46t46 20q28 0 48 -20t20 -46q0 -27 -20 -46t-48 -19zM238 950q0 115 59 203t158.5 134t220.5 46q180 0 282 -84
q-11 -34 -45 -61q-98 76 -247 76q-155 0 -254 -85t-99 -223q0 -91 71.5 -157t221.5 -66h137q2 -4 2 -16q0 -29 -14 -53h-147q-198 0 -314 -107t-116 -256q0 -121 77.5 -184.5t225.5 -63.5q104 0 182.5 23.5t159.5 79.5q26 -17 26 -60q-163 -112 -381 -112
q-177 0 -273.5 77.5t-96.5 225.5q0 159 98 266t246 147q-84 30 -132 95t-48 155z" />
    <glyph glyph-name="Edotaccent.ss01" horiz-adv-x="960" 
d="M696 1473q-28 0 -48.5 20t-20.5 49t20.5 50.5t48.5 21.5q29 0 49.5 -21.5t20.5 -50.5t-20.5 -49t-49.5 -20zM676 1333q180 0 282 -84q-11 -34 -45 -61q-98 76 -247 76q-155 0 -254 -85t-99 -223q0 -91 71.5 -157t221.5 -66h137q2 -4 2 -16q0 -29 -14 -53h-147
q-198 0 -314 -107t-116 -256q0 -121 77.5 -184.5t225.5 -63.5q104 0 182.5 23.5t159.5 79.5q26 -17 26 -60q-163 -112 -381 -112q-177 0 -273.5 77.5t-96.5 225.5q0 159 98 266t246 147q-84 30 -132 95t-48 155q0 115 59 203t158.5 134t220.5 46z" />
    <glyph glyph-name="Egrave.ss01" horiz-adv-x="960" 
d="M854 1444q-8 -27 -27 -43l-309 184q12 47 49 70zM676 1333q180 0 282 -84q-11 -34 -45 -61q-98 76 -247 76q-155 0 -254 -85t-99 -223q0 -91 71.5 -157t221.5 -66h137q2 -4 2 -16q0 -29 -14 -53h-147q-198 0 -314 -107t-116 -256q0 -121 77.5 -184.5t225.5 -63.5
q104 0 182.5 23.5t159.5 79.5q26 -17 26 -60q-163 -112 -381 -112q-177 0 -273.5 77.5t-96.5 225.5q0 159 98 266t246 147q-84 30 -132 95t-48 155q0 115 59 203t158.5 134t220.5 46z" />
    <glyph glyph-name="Emacron.ss01" horiz-adv-x="960" 
d="M938 1485h-498q-9 20 13 63h495q4 -32 -10 -63zM676 1333q180 0 282 -84q-11 -34 -45 -61q-98 76 -247 76q-155 0 -254 -85t-99 -223q0 -91 71.5 -157t221.5 -66h137q2 -4 2 -16q0 -29 -14 -53h-147q-198 0 -314 -107t-116 -256q0 -121 77.5 -184.5t225.5 -63.5
q104 0 182.5 23.5t159.5 79.5q26 -17 26 -60q-163 -112 -381 -112q-177 0 -273.5 77.5t-96.5 225.5q0 159 98 266t246 147q-84 30 -132 95t-48 155q0 115 59 203t158.5 134t220.5 46z" />
    <glyph glyph-name="Eogonek.ss01" horiz-adv-x="960" 
d="M676 1333q180 0 282 -84q-11 -34 -45 -61q-98 76 -247 76q-155 0 -254 -85t-99 -223q0 -91 71.5 -157t221.5 -66h137q2 -4 2 -16q0 -29 -14 -53h-147q-198 0 -314 -107t-116 -256q0 -121 77.5 -184.5t225.5 -63.5q104 0 182.5 23.5t159.5 79.5q26 -17 26 -60
q-45 -31 -80 -47q-98 -63 -159.5 -134t-61.5 -136q0 -38 23.5 -58t56.5 -20q47 0 105 37q11 -5 19.5 -18t8.5 -27q-71 -60 -155 -60q-61 0 -98.5 33.5t-37.5 93.5q0 119 158 240q-75 -16 -160 -16q-177 0 -273.5 77.5t-96.5 225.5q0 159 98 266t246 147q-84 30 -132 95
t-48 155q0 115 59 203t158.5 134t220.5 46z" />
    <glyph glyph-name="Q.ss02" horiz-adv-x="1390" 
d="M1296 797q0 -256 -88 -446t-247 -288l116 -192q-20 -33 -59 -39l-121 201q-118 -56 -264 -56q-239 0 -372.5 148t-133.5 397q0 238 84 425.5t234 291.5t339 104q241 0 376.5 -150.5t135.5 -395.5zM647 49q122 0 215 43l-114 191q22 25 57 36l119 -194q139 88 214.5 262
t75.5 408q0 218 -115 347.5t-327 129.5q-168 0 -297.5 -97.5t-197.5 -266t-68 -380.5q0 -223 113.5 -351t324.5 -128z" />
    <glyph glyph-name="i.loclTRK" horiz-adv-x="428" 
d="M332 1178q-28 0 -49 21t-21 50q0 28 21 49t49 21q29 0 49 -21t20 -49q0 -29 -20 -50t-49 -21zM115 -6q-22 0 -37 6l168 961q18 6 41 6q22 0 37 -6l-170 -961q-18 -6 -39 -6z" />
    <glyph glyph-name="a.ss01" horiz-adv-x="1099" 
d="M844 227q-11 -68 8.5 -111t77.5 -69q-1 -19 -12.5 -36t-24.5 -25q-59 17 -93.5 60.5t-37.5 105.5q-147 -172 -359 -172q-140 0 -230.5 93.5t-90.5 278.5q0 143 49 264.5t129.5 201t183.5 123.5t213 44q100 0 171.5 -20t134.5 -62zM422 51q99 0 193.5 55t158.5 158
l105 594q-85 55 -228 55q-95 0 -182.5 -37.5t-156 -106t-109.5 -173.5t-41 -231q0 -151 69.5 -232.5t190.5 -81.5z" />
    <glyph glyph-name="aacute.ss01" horiz-adv-x="1099" 
d="M532 1085q-19 15 -28 43l319 261q40 -21 49 -68zM844 227q-11 -68 8.5 -111t77.5 -69q-1 -19 -12.5 -36t-24.5 -25q-59 17 -93.5 60.5t-37.5 105.5q-147 -172 -359 -172q-140 0 -230.5 93.5t-90.5 278.5q0 143 49 264.5t129.5 201t183.5 123.5t213 44q100 0 171.5 -20
t134.5 -62zM422 51q99 0 193.5 55t158.5 158l105 594q-85 55 -228 55q-95 0 -182.5 -37.5t-156 -106t-109.5 -173.5t-41 -231q0 -151 69.5 -232.5t190.5 -81.5z" />
    <glyph glyph-name="abreve.ss01" horiz-adv-x="1099" 
d="M649 1104q-100 0 -160.5 66t-50.5 180q25 9 60 6q-1 -93 43.5 -140t117.5 -47q76 0 138.5 49t87.5 138q32 0 53 -8q-27 -115 -101.5 -179.5t-187.5 -64.5zM844 227q-11 -68 8.5 -111t77.5 -69q-1 -19 -12.5 -36t-24.5 -25q-59 17 -93.5 60.5t-37.5 105.5
q-147 -172 -359 -172q-140 0 -230.5 93.5t-90.5 278.5q0 143 49 264.5t129.5 201t183.5 123.5t213 44q100 0 171.5 -20t134.5 -62zM422 51q99 0 193.5 55t158.5 158l105 594q-85 55 -228 55q-95 0 -182.5 -37.5t-156 -106t-109.5 -173.5t-41 -231q0 -151 69.5 -232.5
t190.5 -81.5z" />
    <glyph glyph-name="acircumflex.ss01" horiz-adv-x="1099" 
d="M446 1090q-26 12 -32 40l268 259q28 9 53 0l183 -263q-13 -23 -44 -34l-172 227zM844 227q-11 -68 8.5 -111t77.5 -69q-1 -19 -12.5 -36t-24.5 -25q-59 17 -93.5 60.5t-37.5 105.5q-147 -172 -359 -172q-140 0 -230.5 93.5t-90.5 278.5q0 143 49 264.5t129.5 201
t183.5 123.5t213 44q100 0 171.5 -20t134.5 -62zM422 51q99 0 193.5 55t158.5 158l105 594q-85 55 -228 55q-95 0 -182.5 -37.5t-156 -106t-109.5 -173.5t-41 -231q0 -151 69.5 -232.5t190.5 -81.5z" />
    <glyph glyph-name="adieresis.ss01" horiz-adv-x="1099" 
d="M487 1167q-27 0 -47 20.5t-20 47.5q0 26 20.5 45.5t46.5 19.5q27 0 46.5 -19t19.5 -46q0 -28 -19 -48t-47 -20zM883 1167q-27 0 -47.5 20.5t-20.5 47.5q0 26 20.5 45.5t47.5 19.5t46 -19t19 -46q0 -28 -19 -48t-46 -20zM844 227q-11 -68 8.5 -111t77.5 -69
q-1 -19 -12.5 -36t-24.5 -25q-59 17 -93.5 60.5t-37.5 105.5q-147 -172 -359 -172q-140 0 -230.5 93.5t-90.5 278.5q0 143 49 264.5t129.5 201t183.5 123.5t213 44q100 0 171.5 -20t134.5 -62zM422 51q99 0 193.5 55t158.5 158l105 594q-85 55 -228 55q-95 0 -182.5 -37.5
t-156 -106t-109.5 -173.5t-41 -231q0 -151 69.5 -232.5t190.5 -81.5z" />
    <glyph glyph-name="agrave.ss01" horiz-adv-x="1099" 
d="M827 1126q-8 -25 -32 -39l-265 238q19 47 60 61zM844 227q-11 -68 8.5 -111t77.5 -69q-1 -19 -12.5 -36t-24.5 -25q-59 17 -93.5 60.5t-37.5 105.5q-147 -172 -359 -172q-140 0 -230.5 93.5t-90.5 278.5q0 143 49 264.5t129.5 201t183.5 123.5t213 44q100 0 171.5 -20
t134.5 -62zM422 51q99 0 193.5 55t158.5 158l105 594q-85 55 -228 55q-95 0 -182.5 -37.5t-156 -106t-109.5 -173.5t-41 -231q0 -151 69.5 -232.5t190.5 -81.5z" />
    <glyph glyph-name="amacron.ss01" horiz-adv-x="1099" 
d="M920 1174h-490q-2 4 -2 16q0 19 12 49h492l2 -16q0 -28 -14 -49zM844 227q-11 -68 8.5 -111t77.5 -69q-1 -19 -12.5 -36t-24.5 -25q-59 17 -93.5 60.5t-37.5 105.5q-147 -172 -359 -172q-140 0 -230.5 93.5t-90.5 278.5q0 143 49 264.5t129.5 201t183.5 123.5t213 44
q100 0 171.5 -20t134.5 -62zM422 51q99 0 193.5 55t158.5 158l105 594q-85 55 -228 55q-95 0 -182.5 -37.5t-156 -106t-109.5 -173.5t-41 -231q0 -151 69.5 -232.5t190.5 -81.5z" />
    <glyph glyph-name="aogonek.ss01" horiz-adv-x="1097" 
d="M844 225q-12 -69 5.5 -109.5t74.5 -64.5q-7 -44 -33 -63q-128 -44 -189 -98.5t-61 -112.5q0 -38 22.5 -57t55.5 -19q54 0 108 39q27 -15 27 -47q-79 -60 -160 -60q-61 0 -96 31.5t-35 87.5q0 75 68.5 143t197.5 119q-65 47 -65 138q-72 -84 -166 -128t-195 -44
q-139 0 -230 93t-91 277q0 144 49 266t130 201.5t184 123.5t214 44q100 0 170 -19.5t134 -62.5zM424 51q97 0 192.5 55.5t159.5 157.5l103 594q-83 55 -228 55q-95 0 -183 -38t-156 -107t-109 -174.5t-41 -231.5q0 -150 70 -230.5t192 -80.5z" />
    <glyph glyph-name="aring.ss01" horiz-adv-x="1099" 
d="M666 1049q-74 0 -116 43.5t-42 113.5q0 90 57 148.5t135 58.5q75 0 116.5 -44.5t41.5 -115.5q0 -92 -55.5 -148t-136.5 -56zM694 1354q-52 0 -89.5 -40t-37.5 -100q0 -47 26.5 -76.5t78.5 -29.5q59 0 93 36.5t34 102.5q0 49 -25.5 78t-79.5 29zM844 227q-11 -68 8.5 -111
t77.5 -69q-1 -19 -12.5 -36t-24.5 -25q-59 17 -93.5 60.5t-37.5 105.5q-147 -172 -359 -172q-140 0 -230.5 93.5t-90.5 278.5q0 143 49 264.5t129.5 201t183.5 123.5t213 44q100 0 171.5 -20t134.5 -62zM422 51q99 0 193.5 55t158.5 158l105 594q-85 55 -228 55
q-95 0 -182.5 -37.5t-156 -106t-109.5 -173.5t-41 -231q0 -151 69.5 -232.5t190.5 -81.5z" />
    <glyph glyph-name="atilde.ss01" horiz-adv-x="1099" 
d="M432 1155q-36 4 -53 27q40 69 85.5 102t110.5 33q45 0 91 -22t87.5 -44t75.5 -22q71 0 109 90q40 0 57 -21q-24 -65 -69.5 -101t-98.5 -36q-46 0 -90.5 22t-85 44t-76.5 22q-44 0 -76.5 -23.5t-66.5 -70.5zM963 903l-119 -676q-11 -68 8.5 -111t77.5 -69
q-1 -19 -12.5 -36t-24.5 -25q-59 17 -93.5 60.5t-37.5 105.5q-147 -172 -359 -172q-140 0 -230.5 93.5t-90.5 278.5q0 143 49 264.5t129.5 201t183.5 123.5t213 44q100 0 171.5 -20t134.5 -62zM774 264l105 594q-85 55 -228 55q-95 0 -182.5 -37.5t-156 -106t-109.5 -173.5
t-41 -231q0 -151 69.5 -232.5t190.5 -81.5q99 0 193.5 55t158.5 158z" />
    <glyph glyph-name="b.ss01" horiz-adv-x="1073" 
d="M639 985q147 0 236.5 -96t89.5 -271q0 -149 -48 -271.5t-129.5 -201.5t-187 -122t-223.5 -43q-183 0 -299 75l229 1291q15 6 39 6q22 0 37 -6l-96 -537q147 176 352 176zM387 51q99 0 188.5 38t158.5 107t110 175t41 233q0 145 -71 227t-187 82q-103 0 -196 -56.5
t-165 -164.5l-104 -590q90 -51 225 -51z" />
    <glyph glyph-name="d.ss01" horiz-adv-x="1075" 
d="M1006 1354q16 0 36 -4l-239 -1352q-12 -4 -39 -4t-39 4l20 113l9 53q-146 -184 -359 -184q-137 0 -226 92t-89 270q0 149 48.5 273t130 204t184 124t212.5 44q146 0 238 -47l74 410q20 4 39 4zM412 51q106 0 204.5 64t161.5 182l101 561q-86 55 -234 55q-94 0 -180.5 -38
t-154.5 -107.5t-109 -176.5t-41 -235q0 -145 68.5 -225t183.5 -80z" />
    <glyph glyph-name="dcaron.ss01" horiz-adv-x="1075" 
d="M1315 1444l1 -14q1 -14 1 -23q0 -91 -41.5 -181t-91.5 -139q-26 3 -29 21q37 53 60.5 131t23.5 143q0 36 -4 60q17 10 45 10q24 0 35 -8zM967 1350q20 4 39 4q16 0 36 -4l-239 -1352q-12 -4 -39 -4t-39 4l20 113l9 53q-146 -184 -359 -184q-137 0 -226 92t-89 270
q0 149 48.5 273t130 204t184 124t212.5 44q146 0 238 -47zM412 51q106 0 204.5 64t161.5 182l101 561q-86 55 -234 55q-94 0 -180.5 -38t-154.5 -107.5t-109 -176.5t-41 -235q0 -145 68.5 -225t183.5 -80z" />
    <glyph glyph-name="dcroat.ss01" horiz-adv-x="1075" 
d="M1192 1206q3 -31 -10 -55h-174l-205 -1153q-12 -4 -39 -4t-39 4l20 113l9 53q-146 -184 -359 -184q-137 0 -226 92t-89 270q0 149 48.5 273t130 204t184 124t212.5 44q146 0 238 -47l39 211h-193q-3 35 11 55h190l27 144q20 4 39 4q16 0 36 -4l-24 -144h174zM412 51
q106 0 204.5 64t161.5 182l101 561q-86 55 -234 55q-94 0 -180.5 -38t-154.5 -107.5t-109 -176.5t-41 -235q0 -145 68.5 -225t183.5 -80z" />
    <glyph glyph-name="f.ss01" horiz-adv-x="630" 
d="M647 1352q66 0 116.5 -18.5t72.5 -35.5q-6 -37 -39 -59q-38 21 -73 31t-89 10q-213 0 -254 -248l-12 -76h293q6 -32 -13 -63l-291 2l-153 -973q-25 -167 -113.5 -248.5t-222.5 -81.5q-68 0 -119.5 18.5t-73.5 35.5q6 38 37 59q38 -21 73 -31t89 -10q213 0 254 248
l156 983h-187q-6 30 11 61h186l10 66q27 166 118 248t224 82z" />
    <glyph glyph-name="g.ss01" horiz-adv-x="1067" 
d="M647 985q197 0 314 -82l-158 -897q-32 -182 -166.5 -290.5t-314.5 -108.5q-137 0 -210 56.5t-73 152.5q0 92 72 159t233 111q-117 33 -185.5 121.5t-68.5 220.5q0 128 45 234.5t121.5 176.5t177 108t213.5 38zM170 440q0 -142 87.5 -223.5t236.5 -81.5q130 0 272 88
l111 637q-85 53 -236 53q-95 0 -179.5 -31.5t-149.5 -90t-103.5 -149.5t-38.5 -202zM330 -324q153 0 261 89t136 241l25 137q-107 -61 -220 -73q-158 -28 -251 -65t-128.5 -80t-35.5 -101q0 -69 56 -108.5t157 -39.5z" />
    <glyph glyph-name="gbreve.ss01" horiz-adv-x="1067" 
d="M629 1104q-100 0 -160.5 66t-50.5 180q25 9 59 6q-1 -92 44 -139.5t118 -47.5q76 0 138 49t87 138q33 0 54 -8q-27 -115 -101.5 -179.5t-187.5 -64.5zM647 985q197 0 314 -82l-158 -897q-32 -182 -166.5 -290.5t-314.5 -108.5q-137 0 -210 56.5t-73 152.5q0 92 72 159
t233 111q-117 33 -185.5 121.5t-68.5 220.5q0 128 45 234.5t121.5 176.5t177 108t213.5 38zM170 440q0 -142 87.5 -223.5t236.5 -81.5q130 0 272 88l111 637q-85 53 -236 53q-95 0 -179.5 -31.5t-149.5 -90t-103.5 -149.5t-38.5 -202zM330 -324q153 0 261 89t136 241l25 137
q-107 -61 -220 -73q-158 -28 -251 -65t-128.5 -80t-35.5 -101q0 -69 56 -108.5t157 -39.5z" />
    <glyph glyph-name="gcommaaccent.ss01" horiz-adv-x="1067" 
d="M610 1042q-18 0 -35 7q0 2 -1 17t-1 24q0 92 43.5 171.5t102.5 127.5q19 -6 26 -27q-45 -47 -70.5 -116t-25.5 -130q0 -47 4 -65q-22 -9 -43 -9zM647 985q197 0 314 -82l-158 -897q-32 -182 -166.5 -290.5t-314.5 -108.5q-137 0 -210 56.5t-73 152.5q0 92 72 159t233 111
q-117 33 -185.5 121.5t-68.5 220.5q0 128 45 234.5t121.5 176.5t177 108t213.5 38zM170 440q0 -142 87.5 -223.5t236.5 -81.5q130 0 272 88l111 637q-85 53 -236 53q-95 0 -179.5 -31.5t-149.5 -90t-103.5 -149.5t-38.5 -202zM330 -324q153 0 261 89t136 241l25 137
q-107 -61 -220 -73q-158 -28 -251 -65t-128.5 -80t-35.5 -101q0 -69 56 -108.5t157 -39.5z" />
    <glyph glyph-name="gdotaccent.ss01" horiz-adv-x="1067" 
d="M668 1178q-28 0 -49 21t-21 50q0 28 21 49t49 21q29 0 49 -21t20 -49q0 -29 -20 -50t-49 -21zM647 985q197 0 314 -82l-158 -897q-32 -182 -166.5 -290.5t-314.5 -108.5q-137 0 -210 56.5t-73 152.5q0 92 72 159t233 111q-117 33 -185.5 121.5t-68.5 220.5
q0 128 45 234.5t121.5 176.5t177 108t213.5 38zM170 440q0 -142 87.5 -223.5t236.5 -81.5q130 0 272 88l111 637q-85 53 -236 53q-95 0 -179.5 -31.5t-149.5 -90t-103.5 -149.5t-38.5 -202zM330 -324q153 0 261 89t136 241l25 137q-107 -61 -220 -73q-158 -28 -251 -65
t-128.5 -80t-35.5 -101q0 -69 56 -108.5t157 -39.5z" />
    <glyph glyph-name="k.ss01" horiz-adv-x="999" 
d="M926 754q0 -62 -19 -115t-51 -91.5t-78 -70t-95.5 -52t-107.5 -36.5l248 -387q-28 -8 -57 -8q-27 0 -39 2l-229 364q-19 40 -17 72q184 43 274.5 112t90.5 195q0 79 -55 126.5t-148 47.5q-131 0 -246 -97.5t-149 -254.5l-98 -561q-15 -6 -39 -6q-22 0 -37 6l237 1346
q18 6 39 6q22 0 37 -6l-100 -570q69 101 166.5 155t203.5 54q124 0 196.5 -64.5t72.5 -166.5z" />
    <glyph glyph-name="kcommaaccent.ss01" horiz-adv-x="999" 
d="M926 754q0 -62 -19 -115t-51 -91.5t-78 -70t-95.5 -52t-107.5 -36.5l248 -387q-28 -8 -57 -8q-27 0 -39 2l-229 364q-19 40 -17 72q184 43 274.5 112t90.5 195q0 79 -55 126.5t-148 47.5q-131 0 -246 -97.5t-149 -254.5l-98 -561q-15 -6 -39 -6q-22 0 -37 6l237 1346
q18 6 39 6q22 0 37 -6l-100 -570q69 101 166.5 155t203.5 54q124 0 196.5 -64.5t72.5 -166.5zM397 -82q20 0 35 -6q0 -2 1 -17t1 -24q0 -92 -43 -172t-102 -127q-20 7 -27 27q45 47 70.5 116t25.5 129q0 48 -4 66q20 8 43 8z" />
    <glyph glyph-name="p.ss01" horiz-adv-x="1077" 
d="M653 985q136 0 226 -93t90 -276q0 -147 -48.5 -269.5t-130 -201.5t-184.5 -122t-215 -43q-147 0 -237 40l-72 -405q-24 -4 -39 -4q-21 0 -37 4l78 444l160 902q24 4 39 4t39 -4l-29 -158q140 182 360 182zM401 51q94 0 181.5 38t156 107t109.5 174.5t41 231.5
q0 149 -68.5 230t-185.5 81q-105 0 -199.5 -57.5t-163.5 -175.5l-102 -574q83 -55 231 -55z" />
    <glyph glyph-name="q.ss01" horiz-adv-x="1073" 
d="M670 981q178 0 299 -78l-228 -1290q-24 -4 -39 -4q-16 0 -36 4l96 541q-149 -181 -354 -181q-147 0 -236.5 96.5t-89.5 272.5q0 149 48 271.5t129.5 202t187.5 122.5t223 43zM422 45q102 0 195 57.5t163 165.5l105 590q-89 49 -226 49q-99 0 -188.5 -37.5t-158.5 -106
t-109.5 -174.5t-40.5 -233q0 -147 71 -229t189 -82z" />
    <glyph glyph-name="v.ss01" horiz-adv-x="1032" 
d="M268 -25q-78 0 -124 44.5t-46 125.5q0 18 4 54l129 753q21 6 41 6q22 0 37 -6l-125 -729q-4 -36 -4 -51q0 -123 111 -123q43 0 102.5 26t125.5 71.5t130 113.5t115.5 146.5t83 177t31.5 198.5q-3 106 -39 179q16 4 43 4q17 0 41 -4q30 -65 30 -181q0 -103 -32 -206.5
t-85.5 -191t-124 -164t-146.5 -129.5t-153.5 -83.5t-144.5 -30.5z" />
    <glyph glyph-name="y.ss01" horiz-adv-x="1054" 
d="M913 958q21 0 39 -6l-170 -956q-31 -177 -157.5 -283t-307.5 -106q-120 0 -190 54.5t-70 152.5q0 187 295 262q-149 15 -208.5 106.5t-32.5 247.5l92 522q18 6 39 6q22 0 37 -6l-86 -491q-16 -72 -10 -133t31 -105.5t82 -69t144 -24.5q83 0 165.5 25t139.5 61l132 737
q15 6 36 6zM330 -324q144 0 248 89t129 231l24 137q-121 -59 -235 -74q-107 -21 -180.5 -48t-111 -59t-52.5 -62.5t-15 -67.5q0 -71 53.5 -108.5t139.5 -37.5z" />
    <glyph glyph-name="yacute.ss01" horiz-adv-x="1054" 
d="M455 1085q-21 16 -29 43l319 261q41 -21 50 -68zM913 958q21 0 39 -6l-170 -956q-31 -177 -157.5 -283t-307.5 -106q-120 0 -190 54.5t-70 152.5q0 187 295 262q-149 15 -208.5 106.5t-32.5 247.5l92 522q18 6 39 6q22 0 37 -6l-86 -491q-16 -72 -10 -133t31 -105.5
t82 -69t144 -24.5q83 0 165.5 25t139.5 61l132 737q15 6 36 6zM330 -324q144 0 248 89t129 231l24 137q-121 -59 -235 -74q-107 -21 -180.5 -48t-111 -59t-52.5 -62.5t-15 -67.5q0 -71 53.5 -108.5t139.5 -37.5z" />
    <glyph glyph-name="ycircumflex.ss01" horiz-adv-x="1054" 
d="M369 1090q-27 12 -33 40l268 259q28 9 53 0l183 -263q-14 -24 -43 -34l-172 227zM913 958q21 0 39 -6l-170 -956q-31 -177 -157.5 -283t-307.5 -106q-120 0 -190 54.5t-70 152.5q0 187 295 262q-149 15 -208.5 106.5t-32.5 247.5l92 522q18 6 39 6q22 0 37 -6l-86 -491
q-16 -72 -10 -133t31 -105.5t82 -69t144 -24.5q83 0 165.5 25t139.5 61l132 737q15 6 36 6zM330 -324q144 0 248 89t129 231l24 137q-121 -59 -235 -74q-107 -21 -180.5 -48t-111 -59t-52.5 -62.5t-15 -67.5q0 -71 53.5 -108.5t139.5 -37.5z" />
    <glyph glyph-name="ydieresis.ss01" horiz-adv-x="1054" 
d="M410 1167q-27 0 -47.5 20.5t-20.5 47.5q0 26 20.5 45.5t47.5 19.5t46 -19t19 -46q0 -28 -19 -48t-46 -20zM805 1167q-27 0 -47.5 20.5t-20.5 47.5q0 26 20.5 45.5t47.5 19.5t46 -19t19 -46q0 -28 -19 -48t-46 -20zM913 958q21 0 39 -6l-170 -956q-31 -177 -157.5 -283
t-307.5 -106q-120 0 -190 54.5t-70 152.5q0 187 295 262q-149 15 -208.5 106.5t-32.5 247.5l92 522q18 6 39 6q22 0 37 -6l-86 -491q-16 -72 -10 -133t31 -105.5t82 -69t144 -24.5q83 0 165.5 25t139.5 61l132 737q15 6 36 6zM330 -324q144 0 248 89t129 231l24 137
q-121 -59 -235 -74q-107 -21 -180.5 -48t-111 -59t-52.5 -62.5t-15 -67.5q0 -71 53.5 -108.5t139.5 -37.5z" />
    <glyph glyph-name="ygrave.ss01" horiz-adv-x="1054" 
d="M750 1126q-8 -24 -33 -39l-264 238q20 47 59 61zM913 958q21 0 39 -6l-170 -956q-31 -177 -157.5 -283t-307.5 -106q-120 0 -190 54.5t-70 152.5q0 187 295 262q-149 15 -208.5 106.5t-32.5 247.5l92 522q18 6 39 6q22 0 37 -6l-86 -491q-16 -72 -10 -133t31 -105.5
t82 -69t144 -24.5q83 0 165.5 25t139.5 61l132 737q15 6 36 6zM330 -324q144 0 248 89t129 231l24 137q-121 -59 -235 -74q-107 -21 -180.5 -48t-111 -59t-52.5 -62.5t-15 -67.5q0 -71 53.5 -108.5t139.5 -37.5z" />
    <glyph glyph-name="uni1EF9.ss01" horiz-adv-x="1054" 
d="M354 1155q-36 4 -53 27q40 69 86 102t111 33q45 0 91 -22t87.5 -44t75.5 -22q70 0 108 90q40 0 58 -21q-24 -65 -69.5 -101t-98.5 -36q-46 0 -90.5 22t-85 44t-76.5 22q-44 0 -77 -23.5t-67 -70.5zM913 958q21 0 39 -6l-170 -956q-31 -177 -157.5 -283t-307.5 -106
q-120 0 -190 54.5t-70 152.5q0 187 295 262q-149 15 -208.5 106.5t-32.5 247.5l92 522q18 6 39 6q22 0 37 -6l-86 -491q-16 -72 -10 -133t31 -105.5t82 -69t144 -24.5q83 0 165.5 25t139.5 61l132 737q15 6 36 6zM330 -324q144 0 248 89t129 231l24 137q-121 -59 -235 -74
q-107 -21 -180.5 -48t-111 -59t-52.5 -62.5t-15 -67.5q0 -71 53.5 -108.5t139.5 -37.5z" />
    <glyph glyph-name="a.ss02" horiz-adv-x="980" 
d="M733 152q0 -40 19 -62t65 -37q-3 -45 -33 -65q-64 12 -94 43t-31 92q0 7 13 78q-63 -113 -158 -167t-207 -54q-128 0 -202 64t-74 181q0 145 117.5 231t318.5 87h258l10 65q8 44 8 88q0 217 -235 217q-84 0 -151.5 -26t-137.5 -74q-27 16 -35 51q149 121 338 121
q136 0 217.5 -65t81.5 -205q0 -50 -8 -97l-27 -143l-47 -264q-6 -35 -6 -59zM324 47q50 0 96 12.5t93.5 43.5t85 78.5t67.5 122.5t45 171l-256 -2q-174 0 -258 -68.5t-84 -173.5q0 -86 55 -135t156 -49z" />
    <glyph glyph-name="aacute.ss02" horiz-adv-x="980" 
d="M389 1085q-21 16 -29 43l320 261q40 -21 49 -68zM733 152q0 -40 19 -62t65 -37q-3 -45 -33 -65q-64 12 -94 43t-31 92q0 7 13 78q-63 -113 -158 -167t-207 -54q-128 0 -202 64t-74 181q0 145 117.5 231t318.5 87h258l10 65q8 44 8 88q0 217 -235 217q-84 0 -151.5 -26
t-137.5 -74q-27 16 -35 51q149 121 338 121q136 0 217.5 -65t81.5 -205q0 -50 -8 -97l-27 -143l-47 -264q-6 -35 -6 -59zM324 47q50 0 96 12.5t93.5 43.5t85 78.5t67.5 122.5t45 171l-256 -2q-174 0 -258 -68.5t-84 -173.5q0 -86 55 -135t156 -49z" />
    <glyph glyph-name="abreve.ss02" horiz-adv-x="980" 
d="M506 1104q-100 0 -160.5 66t-50.5 180q25 9 59 6q-1 -92 44 -139.5t118 -47.5q76 0 138 49t87 138q33 0 54 -8q-27 -115 -101.5 -179.5t-187.5 -64.5zM733 152q0 -40 19 -62t65 -37q-3 -45 -33 -65q-64 12 -94 43t-31 92q0 7 13 78q-63 -113 -158 -167t-207 -54
q-128 0 -202 64t-74 181q0 145 117.5 231t318.5 87h258l10 65q8 44 8 88q0 217 -235 217q-84 0 -151.5 -26t-137.5 -74q-27 16 -35 51q149 121 338 121q136 0 217.5 -65t81.5 -205q0 -50 -8 -97l-27 -143l-47 -264q-6 -35 -6 -59zM324 47q50 0 96 12.5t93.5 43.5t85 78.5
t67.5 122.5t45 171l-256 -2q-174 0 -258 -68.5t-84 -173.5q0 -86 55 -135t156 -49z" />
    <glyph glyph-name="acircumflex.ss02" horiz-adv-x="980" 
d="M305 1090q-27 12 -33 40l269 259q28 9 53 0l182 -263q-14 -24 -43 -34l-172 227zM733 152q0 -40 19 -62t65 -37q-3 -45 -33 -65q-64 12 -94 43t-31 92q0 7 13 78q-63 -113 -158 -167t-207 -54q-128 0 -202 64t-74 181q0 145 117.5 231t318.5 87h258l10 65q8 44 8 88
q0 217 -235 217q-84 0 -151.5 -26t-137.5 -74q-27 16 -35 51q149 121 338 121q136 0 217.5 -65t81.5 -205q0 -50 -8 -97l-27 -143l-47 -264q-6 -35 -6 -59zM324 47q50 0 96 12.5t93.5 43.5t85 78.5t67.5 122.5t45 171l-256 -2q-174 0 -258 -68.5t-84 -173.5q0 -86 55 -135
t156 -49z" />
    <glyph glyph-name="adieresis.ss02" horiz-adv-x="980" 
d="M344 1167q-27 0 -47.5 20.5t-20.5 47.5q0 26 20.5 45.5t47.5 19.5q28 0 47 -19t19 -46q0 -28 -19 -48t-47 -20zM739 1167q-27 0 -47 20.5t-20 47.5q0 26 20.5 45.5t46.5 19.5q27 0 46.5 -19t19.5 -46q0 -28 -19 -48t-47 -20zM733 152q0 -40 19 -62t65 -37q-3 -45 -33 -65
q-64 12 -94 43t-31 92q0 7 13 78q-63 -113 -158 -167t-207 -54q-128 0 -202 64t-74 181q0 145 117.5 231t318.5 87h258l10 65q8 44 8 88q0 217 -235 217q-84 0 -151.5 -26t-137.5 -74q-27 16 -35 51q149 121 338 121q136 0 217.5 -65t81.5 -205q0 -50 -8 -97l-27 -143
l-47 -264q-6 -35 -6 -59zM324 47q50 0 96 12.5t93.5 43.5t85 78.5t67.5 122.5t45 171l-256 -2q-174 0 -258 -68.5t-84 -173.5q0 -86 55 -135t156 -49z" />
    <glyph glyph-name="agrave.ss02" horiz-adv-x="980" 
d="M684 1126q-8 -24 -33 -39l-264 238q20 47 59 61zM733 152q0 -40 19 -62t65 -37q-3 -45 -33 -65q-64 12 -94 43t-31 92q0 7 13 78q-63 -113 -158 -167t-207 -54q-128 0 -202 64t-74 181q0 145 117.5 231t318.5 87h258l10 65q8 44 8 88q0 217 -235 217q-84 0 -151.5 -26
t-137.5 -74q-27 16 -35 51q149 121 338 121q136 0 217.5 -65t81.5 -205q0 -50 -8 -97l-27 -143l-47 -264q-6 -35 -6 -59zM324 47q50 0 96 12.5t93.5 43.5t85 78.5t67.5 122.5t45 171l-256 -2q-174 0 -258 -68.5t-84 -173.5q0 -86 55 -135t156 -49z" />
    <glyph glyph-name="amacron.ss02" horiz-adv-x="980" 
d="M776 1174h-489q-2 4 -2 16q0 19 12 49h491l3 -16q0 -27 -15 -49zM733 152q0 -40 19 -62t65 -37q-3 -45 -33 -65q-64 12 -94 43t-31 92q0 7 13 78q-63 -113 -158 -167t-207 -54q-128 0 -202 64t-74 181q0 145 117.5 231t318.5 87h258l10 65q8 44 8 88q0 217 -235 217
q-84 0 -151.5 -26t-137.5 -74q-27 16 -35 51q149 121 338 121q136 0 217.5 -65t81.5 -205q0 -50 -8 -97l-27 -143l-47 -264q-6 -35 -6 -59zM324 47q50 0 96 12.5t93.5 43.5t85 78.5t67.5 122.5t45 171l-256 -2q-174 0 -258 -68.5t-84 -173.5q0 -86 55 -135t156 -49z" />
    <glyph glyph-name="aogonek.ss02" horiz-adv-x="983" 
d="M739 211q-10 -62 6 -99t70 -55q-4 -47 -22 -69q-126 -39 -188 -96.5t-62 -116.5q0 -37 21.5 -55.5t53.5 -18.5q57 0 111 39q27 -15 27 -47q-79 -60 -160 -60q-61 0 -96 30.5t-35 86.5q0 74 67 142t195 118q-71 43 -65 156l-3 14l3 10q-66 -107 -161 -158.5t-194 -51.5
q-131 0 -203.5 63.5t-72.5 181.5q0 145 117.5 231t318.5 87h258l10 65q28 159 -33.5 232t-191.5 73q-147 0 -291 -100q-27 16 -35 51q31 25 69 48t115.5 48t157.5 25q75 0 133 -19.5t100.5 -63.5t55.5 -114t-2 -170l-27 -143zM707 446l6 29l-258 -2q-174 0 -258 -68.5
t-84 -173.5q0 -86 55 -135t156 -49q41 0 84 11.5t90.5 41t87.5 73t73 114.5t48 159z" />
    <glyph glyph-name="aring.ss02" horiz-adv-x="980" 
d="M524 1049q-74 0 -115.5 43.5t-41.5 113.5q0 90 57 148.5t135 58.5q75 0 116.5 -44.5t41.5 -115.5q0 -92 -56 -148t-137 -56zM553 1354q-52 0 -89.5 -40t-37.5 -100q0 -47 26 -76.5t78 -29.5q59 0 93 36.5t34 102.5q0 107 -104 107zM733 152q0 -40 19 -62t65 -37
q-3 -45 -33 -65q-64 12 -94 43t-31 92q0 7 13 78q-63 -113 -158 -167t-207 -54q-128 0 -202 64t-74 181q0 145 117.5 231t318.5 87h258l10 65q8 44 8 88q0 217 -235 217q-84 0 -151.5 -26t-137.5 -74q-27 16 -35 51q149 121 338 121q136 0 217.5 -65t81.5 -205q0 -50 -8 -97
l-27 -143l-47 -264q-6 -35 -6 -59zM324 47q50 0 96 12.5t93.5 43.5t85 78.5t67.5 122.5t45 171l-256 -2q-174 0 -258 -68.5t-84 -173.5q0 -86 55 -135t156 -49z" />
    <glyph glyph-name="atilde.ss02" horiz-adv-x="980" 
d="M289 1155q-36 4 -53 27q40 69 85.5 102t110.5 33q45 0 91 -22t87.5 -44t75.5 -22q71 0 109 90q39 0 57 -21q-24 -65 -69.5 -101t-98.5 -36q-46 0 -90.5 22t-85 44t-76.5 22q-44 0 -76.5 -23.5t-66.5 -70.5zM786 475l-47 -264q-6 -35 -6 -59q0 -40 19 -62t65 -37
q-3 -45 -33 -65q-64 12 -94 43t-31 92q0 7 13 78q-63 -113 -158 -167t-207 -54q-128 0 -202 64t-74 181q0 145 117.5 231t318.5 87h258l10 65q8 44 8 88q0 217 -235 217q-84 0 -151.5 -26t-137.5 -74q-27 16 -35 51q149 121 338 121q136 0 217.5 -65t81.5 -205q0 -50 -8 -97
zM324 47q50 0 96 12.5t93.5 43.5t85 78.5t67.5 122.5t45 171l-256 -2q-174 0 -258 -68.5t-84 -173.5q0 -86 55 -135t156 -49z" />
    <glyph glyph-name="e.ss02" horiz-adv-x="1026" 
d="M922 494h-746q-6 -44 -6 -93q0 -167 86.5 -259.5t245.5 -92.5q161 0 289 115q36 -16 43 -55q-146 -129 -347 -129q-182 0 -289.5 109.5t-107.5 303.5q0 115 28.5 213t76.5 166.5t112 117.5t134.5 72t144.5 23q165 0 255.5 -97t90.5 -270q0 -72 -10 -124zM578 915
q-142 0 -248.5 -96.5t-143.5 -259.5h662q6 44 6 70q0 142 -76 214t-200 72z" />
    <glyph glyph-name="eacute.ss02" horiz-adv-x="1026" 
d="M457 1085q-21 16 -29 43l320 261q40 -21 49 -68zM922 494h-746q-6 -44 -6 -93q0 -167 86.5 -259.5t245.5 -92.5q161 0 289 115q36 -16 43 -55q-146 -129 -347 -129q-182 0 -289.5 109.5t-107.5 303.5q0 115 28.5 213t76.5 166.5t112 117.5t134.5 72t144.5 23
q165 0 255.5 -97t90.5 -270q0 -72 -10 -124zM578 915q-142 0 -248.5 -96.5t-143.5 -259.5h662q6 44 6 70q0 142 -76 214t-200 72z" />
    <glyph glyph-name="ecaron.ss02" horiz-adv-x="1026" 
d="M612 1096q-28 -6 -55 0l-182 254q13 26 39 34l178 -217l250 222q26 -12 32 -41zM922 494h-746q-6 -44 -6 -93q0 -167 86.5 -259.5t245.5 -92.5q161 0 289 115q36 -16 43 -55q-146 -129 -347 -129q-182 0 -289.5 109.5t-107.5 303.5q0 115 28.5 213t76.5 166.5t112 117.5
t134.5 72t144.5 23q165 0 255.5 -97t90.5 -270q0 -72 -10 -124zM578 915q-142 0 -248.5 -96.5t-143.5 -259.5h662q6 44 6 70q0 142 -76 214t-200 72z" />
    <glyph glyph-name="ecircumflex.ss02" horiz-adv-x="1026" 
d="M371 1090q-27 12 -33 40l268 259q28 9 53 0l183 -263q-14 -24 -43 -34l-172 227zM922 494h-746q-6 -44 -6 -93q0 -167 86.5 -259.5t245.5 -92.5q161 0 289 115q36 -16 43 -55q-146 -129 -347 -129q-182 0 -289.5 109.5t-107.5 303.5q0 115 28.5 213t76.5 166.5t112 117.5
t134.5 72t144.5 23q165 0 255.5 -97t90.5 -270q0 -72 -10 -124zM578 915q-142 0 -248.5 -96.5t-143.5 -259.5h662q6 44 6 70q0 142 -76 214t-200 72z" />
    <glyph glyph-name="edieresis.ss02" horiz-adv-x="1026" 
d="M412 1167q-27 0 -47.5 20.5t-20.5 47.5q0 26 20.5 45.5t47.5 19.5t46 -19t19 -46q0 -28 -19 -48t-46 -20zM807 1167q-27 0 -47.5 20.5t-20.5 47.5q0 26 20.5 45.5t47.5 19.5t46 -19t19 -46q0 -28 -19 -48t-46 -20zM922 494h-746q-6 -44 -6 -93q0 -167 86.5 -259.5
t245.5 -92.5q161 0 289 115q36 -16 43 -55q-146 -129 -347 -129q-182 0 -289.5 109.5t-107.5 303.5q0 115 28.5 213t76.5 166.5t112 117.5t134.5 72t144.5 23q165 0 255.5 -97t90.5 -270q0 -72 -10 -124zM578 915q-142 0 -248.5 -96.5t-143.5 -259.5h662q6 44 6 70
q0 142 -76 214t-200 72z" />
    <glyph glyph-name="edotaccent.ss02" horiz-adv-x="1026" 
d="M610 1178q-28 0 -48.5 21t-20.5 50q0 28 20.5 49t48.5 21q29 0 49.5 -21t20.5 -49q0 -29 -20.5 -50t-49.5 -21zM922 494h-746q-6 -44 -6 -93q0 -167 86.5 -259.5t245.5 -92.5q161 0 289 115q36 -16 43 -55q-146 -129 -347 -129q-182 0 -289.5 109.5t-107.5 303.5
q0 115 28.5 213t76.5 166.5t112 117.5t134.5 72t144.5 23q165 0 255.5 -97t90.5 -270q0 -72 -10 -124zM578 915q-142 0 -248.5 -96.5t-143.5 -259.5h662q6 44 6 70q0 142 -76 214t-200 72z" />
    <glyph glyph-name="egrave.ss02" horiz-adv-x="1026" 
d="M752 1126q-8 -24 -33 -39l-264 238q20 47 59 61zM922 494h-746q-6 -44 -6 -93q0 -167 86.5 -259.5t245.5 -92.5q161 0 289 115q36 -16 43 -55q-146 -129 -347 -129q-182 0 -289.5 109.5t-107.5 303.5q0 115 28.5 213t76.5 166.5t112 117.5t134.5 72t144.5 23
q165 0 255.5 -97t90.5 -270q0 -72 -10 -124zM578 915q-142 0 -248.5 -96.5t-143.5 -259.5h662q6 44 6 70q0 142 -76 214t-200 72z" />
    <glyph glyph-name="emacron.ss02" horiz-adv-x="1026" 
d="M842 1174h-490q-2 4 -2 16q0 19 12 49h492l2 -16q0 -28 -14 -49zM922 494h-746q-6 -44 -6 -93q0 -167 86.5 -259.5t245.5 -92.5q161 0 289 115q36 -16 43 -55q-146 -129 -347 -129q-182 0 -289.5 109.5t-107.5 303.5q0 115 28.5 213t76.5 166.5t112 117.5t134.5 72
t144.5 23q165 0 255.5 -97t90.5 -270q0 -72 -10 -124zM578 915q-142 0 -248.5 -96.5t-143.5 -259.5h662q6 44 6 70q0 142 -76 214t-200 72z" />
    <glyph glyph-name="eogonek.ss02" horiz-adv-x="1026" 
d="M922 494h-746q-6 -44 -6 -93q0 -167 86.5 -259.5t245.5 -92.5q161 0 289 115q36 -16 43 -55q-41 -38 -97 -70q-207 -137 -207 -260q0 -38 23.5 -58t56.5 -20q47 0 105 37q11 -5 19.5 -18t8.5 -27q-71 -60 -155 -60q-61 0 -98 33.5t-37 93.5q0 110 145 230
q-58 -10 -111 -10q-182 0 -289.5 109.5t-107.5 303.5q0 115 28.5 213t76.5 166.5t112 117.5t134.5 72t144.5 23q165 0 255.5 -97t90.5 -270q0 -72 -10 -124zM578 915q-142 0 -248.5 -96.5t-143.5 -259.5h662q6 44 6 70q0 142 -76 214t-200 72z" />
    <glyph glyph-name="g.ss02" horiz-adv-x="907" 
d="M926 1059q-41 -78 -90 -114t-111 -44q82 -94 82 -233q0 -162 -104.5 -266.5t-280.5 -104.5q-66 0 -115 14q-63 -55 -63 -116q0 -35 36 -58t90 -34t116.5 -28t116 -38t89 -66t35.5 -110q0 -121 -107.5 -191.5t-297.5 -70.5q-136 0 -232 32t-143 76q16 43 49 60
q108 -97 334 -97q154 0 237.5 50t83.5 135q0 51 -36 85t-89.5 49t-116 31t-116 31t-89.5 49t-36 84q0 78 76 154q-138 77 -138 260q0 166 116.5 270.5t297.5 104.5h152q65 0 111.5 28t78.5 97q44 -6 64 -39zM430 369q137 0 219 84t82 221q0 136 -92 225h-129
q-142 0 -234 -83t-92 -216q0 -111 65.5 -171t180.5 -60z" />
    <glyph glyph-name="gbreve.ss02" horiz-adv-x="907" 
d="M498 1104q-100 0 -160.5 66t-50.5 180q25 9 59 6q-1 -92 44 -139.5t118 -47.5q76 0 138 49t87 138q32 0 53 -8q-27 -115 -101 -179.5t-187 -64.5zM926 1059q-41 -78 -90 -114t-111 -44q82 -94 82 -233q0 -162 -104.5 -266.5t-280.5 -104.5q-66 0 -115 14
q-63 -55 -63 -116q0 -35 36 -58t90 -34t116.5 -28t116 -38t89 -66t35.5 -110q0 -121 -107.5 -191.5t-297.5 -70.5q-136 0 -232 32t-143 76q16 43 49 60q108 -97 334 -97q154 0 237.5 50t83.5 135q0 51 -36 85t-89.5 49t-116 31t-116 31t-89.5 49t-36 84q0 78 76 154
q-138 77 -138 260q0 166 116.5 270.5t297.5 104.5h152q65 0 111.5 28t78.5 97q44 -6 64 -39zM430 369q137 0 219 84t82 221q0 136 -92 225h-129q-142 0 -234 -83t-92 -216q0 -111 65.5 -171t180.5 -60z" />
    <glyph glyph-name="gcommaaccent.ss02" horiz-adv-x="907" 
d="M477 1042q-17 0 -35 7q0 2 -1 17t-1 24q0 92 43.5 171.5t102.5 127.5q19 -6 26 -27q-45 -47 -70.5 -116t-25.5 -130q0 -47 4 -65q-22 -9 -43 -9zM926 1059q-41 -78 -90 -114t-111 -44q82 -94 82 -233q0 -162 -104.5 -266.5t-280.5 -104.5q-66 0 -115 14q-63 -55 -63 -116
q0 -35 36 -58t90 -34t116.5 -28t116 -38t89 -66t35.5 -110q0 -121 -107.5 -191.5t-297.5 -70.5q-136 0 -232 32t-143 76q16 43 49 60q108 -97 334 -97q154 0 237.5 50t83.5 135q0 51 -36 85t-89.5 49t-116 31t-116 31t-89.5 49t-36 84q0 78 76 154q-138 77 -138 260
q0 166 116.5 270.5t297.5 104.5h152q65 0 111.5 28t78.5 97q44 -6 64 -39zM430 369q137 0 219 84t82 221q0 136 -92 225h-129q-142 0 -234 -83t-92 -216q0 -111 65.5 -171t180.5 -60z" />
    <glyph glyph-name="gdotaccent.ss02" horiz-adv-x="907" 
d="M535 1178q-28 0 -49 21t-21 50q0 28 21 49t49 21q29 0 49 -21t20 -49q0 -29 -20 -50t-49 -21zM926 1059q-41 -78 -90 -114t-111 -44q82 -94 82 -233q0 -162 -104.5 -266.5t-280.5 -104.5q-66 0 -115 14q-63 -55 -63 -116q0 -35 36 -58t90 -34t116.5 -28t116 -38t89 -66
t35.5 -110q0 -121 -107.5 -191.5t-297.5 -70.5q-136 0 -232 32t-143 76q16 43 49 60q108 -97 334 -97q154 0 237.5 50t83.5 135q0 51 -36 85t-89.5 49t-116 31t-116 31t-89.5 49t-36 84q0 78 76 154q-138 77 -138 260q0 166 116.5 270.5t297.5 104.5h152q65 0 111.5 28
t78.5 97q44 -6 64 -39zM430 369q137 0 219 84t82 221q0 136 -92 225h-129q-142 0 -234 -83t-92 -216q0 -111 65.5 -171t180.5 -60z" />
    <glyph glyph-name="k.ss02" horiz-adv-x="923" 
d="M899 954q-86 -133 -207.5 -250.5t-259.5 -205.5l383 -496q-21 -6 -59 -6q-23 0 -35 2l-354 461q-75 -45 -150 -72l-67 -387q-15 -6 -39 -6q-22 0 -37 6l237 1346q18 6 39 6q22 0 37 -6l-156 -877q156 70 322.5 207.5t263.5 279.5q14 2 41 2q25 0 41 -4z" />
    <glyph glyph-name="kcommaaccent.ss02" horiz-adv-x="923" 
d="M899 954q-86 -133 -207.5 -250.5t-259.5 -205.5l383 -496q-21 -6 -59 -6q-23 0 -35 2l-354 461q-75 -45 -150 -72l-67 -387q-15 -6 -39 -6q-22 0 -37 6l237 1346q18 6 39 6q22 0 37 -6l-156 -877q156 70 322.5 207.5t263.5 279.5q14 2 41 2q25 0 41 -4zM385 -82
q20 0 35 -6q0 -2 1 -17t1 -24q0 -92 -43.5 -171.5t-102.5 -127.5q-19 6 -26 27q45 47 70.5 116t25.5 129q0 48 -4 66q20 8 43 8z" />
    <glyph glyph-name="l.ss02" horiz-adv-x="430" 
d="M117 -6q-21 0 -39 6l239 1348q15 6 39 6q22 0 37 -6l-237 -1348q-18 -6 -39 -6z" />
    <glyph glyph-name="lacute.ss02" horiz-adv-x="430" 
d="M215 1401q-17 15 -20 41l356 207q29 -18 35 -68zM117 -6q-21 0 -39 6l239 1348q15 6 39 6q22 0 37 -6l-237 -1348q-18 -6 -39 -6z" />
    <glyph glyph-name="lcaron.ss02" horiz-adv-x="430" 
d="M516 1087q-26 3 -29 21q37 53 60.5 131t23.5 143q0 36 -4 60q17 10 45 10q24 0 35 -8l1 -14q1 -14 1 -23q0 -91 -41.5 -181t-91.5 -139zM117 -6q-21 0 -39 6l239 1348q15 6 39 6q22 0 37 -6l-237 -1348q-18 -6 -39 -6z" />
    <glyph glyph-name="lcommaaccent.ss02" horiz-adv-x="430" 
d="M117 -6q-21 0 -39 6l239 1348q15 6 39 6q22 0 37 -6l-237 -1348q-18 -6 -39 -6zM10 -428q-19 6 -26 27q45 47 70.5 116t25.5 129q0 48 -4 66q20 8 43 8q20 0 35 -6q0 -2 1 -17t1 -24q0 -92 -43.5 -171.5t-102.5 -127.5z" />
    <glyph glyph-name="ldot.ss02" horiz-adv-x="503" 
d="M117 -6q-21 0 -39 6l239 1348q15 6 39 6q22 0 37 -6l-237 -1348q-18 -6 -39 -6zM479 604q-28 0 -48.5 21t-20.5 51q0 28 20.5 48.5t48.5 20.5q29 0 49.5 -20.5t20.5 -48.5q0 -31 -20.5 -51.5t-49.5 -20.5z" />
    <glyph glyph-name="lslash.ss02" horiz-adv-x="430" 
d="M424 782q26 -22 20 -53l-176 -86l-112 -643q-18 -6 -39 -6t-39 6l106 602l-135 -65q-23 17 -20 51l168 82l120 678q15 6 39 6q22 0 37 -6l-112 -635z" />
    <glyph glyph-name="v.ss02" horiz-adv-x="948" 
d="M897 956q23 0 41 -6q-20 -120 -80 -260.5t-140 -267.5t-167.5 -237t-169.5 -187q-18 -6 -39 -6q-26 0 -41 6q-62 167 -111.5 440t-56.5 512q24 6 49 6q19 0 31 -4q4 -218 48 -475.5t87 -384.5l6 -26q17 17 21 20q62 60 136 157.5t145 214t127 249.5t75 245q16 4 39 4z
" />
    <glyph glyph-name="w.ss02" horiz-adv-x="1423" 
d="M1360 956q17 0 41 -6q-57 -258 -192.5 -531t-282.5 -421q-15 -6 -41 -6q-24 0 -39 6q-38 149 -67.5 365t-33.5 417q-58 -215 -169.5 -426t-229.5 -356q-15 -6 -39 -6q-25 0 -37 6q-55 167 -94.5 440t-42.5 512q18 6 43 6q19 0 31 -4q6 -219 40 -480t68 -384l7 -27
q3 4 9 13.5t9 13.5q100 139 216 382t167 466q20 4 43 4t39 -4q0 -320 88 -848q4 -20 4 -35q12 18 29 35q97 106 222.5 367.5t178.5 496.5q8 4 33 4z" />
    <glyph glyph-name="wacute.ss02" horiz-adv-x="1423" 
d="M645 1085q-21 16 -29 43l320 261q40 -21 49 -68zM1360 956q17 0 41 -6q-57 -258 -192.5 -531t-282.5 -421q-15 -6 -41 -6q-24 0 -39 6q-38 149 -67.5 365t-33.5 417q-58 -215 -169.5 -426t-229.5 -356q-15 -6 -39 -6q-25 0 -37 6q-55 167 -94.5 440t-42.5 512q18 6 43 6
q19 0 31 -4q6 -219 40 -480t68 -384l7 -27q3 4 9 13.5t9 13.5q100 139 216 382t167 466q20 4 43 4t39 -4q0 -320 88 -848q4 -20 4 -35q12 18 29 35q97 106 222.5 367.5t178.5 496.5q8 4 33 4z" />
    <glyph glyph-name="wcircumflex.ss02" horiz-adv-x="1423" 
d="M561 1090q-27 12 -33 40l269 259q28 9 53 0l182 -263q-14 -24 -43 -34l-172 227zM1360 956q17 0 41 -6q-57 -258 -192.5 -531t-282.5 -421q-15 -6 -41 -6q-24 0 -39 6q-38 149 -67.5 365t-33.5 417q-58 -215 -169.5 -426t-229.5 -356q-15 -6 -39 -6q-25 0 -37 6
q-55 167 -94.5 440t-42.5 512q18 6 43 6q19 0 31 -4q6 -219 40 -480t68 -384l7 -27q3 4 9 13.5t9 13.5q100 139 216 382t167 466q20 4 43 4t39 -4q0 -320 88 -848q4 -20 4 -35q12 18 29 35q97 106 222.5 367.5t178.5 496.5q8 4 33 4z" />
    <glyph glyph-name="wdieresis.ss02" horiz-adv-x="1423" 
d="M600 1167q-27 0 -47.5 20.5t-20.5 47.5q0 26 20.5 45.5t47.5 19.5q28 0 47 -19t19 -46q0 -28 -19 -48t-47 -20zM995 1167q-27 0 -47 20.5t-20 47.5q0 26 20.5 45.5t46.5 19.5q27 0 46.5 -19t19.5 -46q0 -28 -19 -48t-47 -20zM1360 956q17 0 41 -6q-57 -258 -192.5 -531
t-282.5 -421q-15 -6 -41 -6q-24 0 -39 6q-38 149 -67.5 365t-33.5 417q-58 -215 -169.5 -426t-229.5 -356q-15 -6 -39 -6q-25 0 -37 6q-55 167 -94.5 440t-42.5 512q18 6 43 6q19 0 31 -4q6 -219 40 -480t68 -384l7 -27q3 4 9 13.5t9 13.5q100 139 216 382t167 466
q20 4 43 4t39 -4q0 -320 88 -848q4 -20 4 -35q12 18 29 35q97 106 222.5 367.5t178.5 496.5q8 4 33 4z" />
    <glyph glyph-name="wgrave.ss02" horiz-adv-x="1423" 
d="M940 1126q-8 -24 -33 -39l-264 238q20 47 59 61zM1360 956q17 0 41 -6q-57 -258 -192.5 -531t-282.5 -421q-15 -6 -41 -6q-24 0 -39 6q-38 149 -67.5 365t-33.5 417q-58 -215 -169.5 -426t-229.5 -356q-15 -6 -39 -6q-25 0 -37 6q-55 167 -94.5 440t-42.5 512q18 6 43 6
q19 0 31 -4q6 -219 40 -480t68 -384l7 -27q3 4 9 13.5t9 13.5q100 139 216 382t167 466q20 4 43 4t39 -4q0 -320 88 -848q4 -20 4 -35q12 18 29 35q97 106 222.5 367.5t178.5 496.5q8 4 33 4z" />
    <glyph glyph-name="y.ss02" horiz-adv-x="999" 
d="M897 952q14 -66 14 -131q0 -377 -255.5 -697.5t-729.5 -533.5q-23 14 -30 62q315 148 518 321q-135 168 -209 407t-74 490q1 5 2.5 37t3.5 45q30 6 43 6q21 0 37 -4q-6 -50 -6 -104q0 -238 72 -459.5t188 -365.5q365 343 365 792q0 65 -21 133q12 6 45 6q21 0 37 -4z" />
    <glyph glyph-name="yacute.ss02" horiz-adv-x="999" 
d="M387 1085q-21 16 -29 43l320 261q40 -21 49 -68zM897 952q14 -66 14 -131q0 -377 -255.5 -697.5t-729.5 -533.5q-23 14 -30 62q315 148 518 321q-135 168 -209 407t-74 490q1 5 2.5 37t3.5 45q30 6 43 6q21 0 37 -4q-6 -50 -6 -104q0 -238 72 -459.5t188 -365.5
q365 343 365 792q0 65 -21 133q12 6 45 6q21 0 37 -4z" />
    <glyph glyph-name="ycircumflex.ss02" horiz-adv-x="999" 
d="M301 1090q-27 12 -33 40l269 259q28 9 53 0l182 -263q-14 -24 -43 -34l-172 227zM897 952q14 -66 14 -131q0 -377 -255.5 -697.5t-729.5 -533.5q-23 14 -30 62q315 148 518 321q-135 168 -209 407t-74 490q1 5 2.5 37t3.5 45q30 6 43 6q21 0 37 -4q-6 -50 -6 -104
q0 -238 72 -459.5t188 -365.5q365 343 365 792q0 65 -21 133q12 6 45 6q21 0 37 -4z" />
    <glyph glyph-name="ydieresis.ss02" horiz-adv-x="999" 
d="M342 1167q-27 0 -47.5 20.5t-20.5 47.5q0 26 20.5 45.5t47.5 19.5q28 0 47 -19t19 -46q0 -28 -19 -48t-47 -20zM737 1167q-27 0 -47 20.5t-20 47.5q0 26 20.5 45.5t46.5 19.5q27 0 46.5 -19t19.5 -46q0 -28 -19 -48t-47 -20zM897 952q14 -66 14 -131
q0 -377 -255.5 -697.5t-729.5 -533.5q-23 14 -30 62q315 148 518 321q-135 168 -209 407t-74 490q1 5 2.5 37t3.5 45q30 6 43 6q21 0 37 -4q-6 -50 -6 -104q0 -238 72 -459.5t188 -365.5q365 343 365 792q0 65 -21 133q12 6 45 6q21 0 37 -4z" />
    <glyph glyph-name="ygrave.ss02" horiz-adv-x="999" 
d="M682 1126q-8 -24 -33 -39l-264 238q20 47 59 61zM897 952q14 -66 14 -131q0 -377 -255.5 -697.5t-729.5 -533.5q-23 14 -30 62q315 148 518 321q-135 168 -209 407t-74 490q1 5 2.5 37t3.5 45q30 6 43 6q21 0 37 -4q-6 -50 -6 -104q0 -238 72 -459.5t188 -365.5
q365 343 365 792q0 65 -21 133q12 6 45 6q21 0 37 -4z" />
    <glyph glyph-name="uni1EF9.ss02" horiz-adv-x="999" 
d="M287 1155q-37 4 -54 27q40 69 86 102t111 33q45 0 91 -22t87.5 -44t75.5 -22q71 0 109 90q39 0 57 -21q-24 -65 -69.5 -101t-98.5 -36q-46 0 -90.5 22t-85 44t-76.5 22q-44 0 -76.5 -23.5t-66.5 -70.5zM897 952q14 -66 14 -131q0 -377 -255.5 -697.5t-729.5 -533.5
q-23 14 -30 62q315 148 518 321q-135 168 -209 407t-74 490q1 5 2.5 37t3.5 45q30 6 43 6q21 0 37 -4q-6 -50 -6 -104q0 -238 72 -459.5t188 -365.5q365 343 365 792q0 65 -21 133q12 6 45 6q21 0 37 -4z" />
    <glyph glyph-name="a.ss03" horiz-adv-x="970" 
d="M532 985q77 0 138 -20.5t104 -62.5t59.5 -111.5t0.5 -161.5l-101 -572q-78 -39 -176 -58t-186 -19q-165 0 -249.5 72t-84.5 200q0 102 57.5 178.5t150.5 114t206 37.5q172 0 290 -56l17 97q25 145 -41.5 217.5t-200.5 72.5q-151 0 -291 -100q-35 17 -35 53
q21 17 47.5 33.5t70.5 38t103 34.5t121 13zM119 258q0 -97 67 -153t197 -56q167 0 283 55l61 349q-112 59 -289 59q-149 0 -234 -71t-85 -183z" />
    <glyph glyph-name="aacute.ss03" horiz-adv-x="970" 
d="M420 1085q-21 16 -29 43l320 261q40 -21 49 -68zM532 985q77 0 138 -20.5t104 -62.5t59.5 -111.5t0.5 -161.5l-101 -572q-78 -39 -176 -58t-186 -19q-165 0 -249.5 72t-84.5 200q0 102 57.5 178.5t150.5 114t206 37.5q172 0 290 -56l17 97q25 145 -41.5 217.5
t-200.5 72.5q-151 0 -291 -100q-35 17 -35 53q21 17 47.5 33.5t70.5 38t103 34.5t121 13zM119 258q0 -97 67 -153t197 -56q167 0 283 55l61 349q-112 59 -289 59q-149 0 -234 -71t-85 -183z" />
    <glyph glyph-name="abreve.ss03" horiz-adv-x="970" 
d="M537 1104q-100 0 -160.5 66t-50.5 180q25 9 59 6q-1 -92 44 -139.5t118 -47.5q76 0 138 49t87 138q32 0 53 -8q-27 -115 -101 -179.5t-187 -64.5zM532 985q77 0 138 -20.5t104 -62.5t59.5 -111.5t0.5 -161.5l-101 -572q-78 -39 -176 -58t-186 -19q-165 0 -249.5 72
t-84.5 200q0 102 57.5 178.5t150.5 114t206 37.5q172 0 290 -56l17 97q25 145 -41.5 217.5t-200.5 72.5q-151 0 -291 -100q-35 17 -35 53q21 17 47.5 33.5t70.5 38t103 34.5t121 13zM119 258q0 -97 67 -153t197 -56q167 0 283 55l61 349q-112 59 -289 59q-149 0 -234 -71
t-85 -183z" />
    <glyph glyph-name="acircumflex.ss03" horiz-adv-x="970" 
d="M336 1090q-27 12 -33 40l268 259q29 10 54 0l182 -263q-14 -24 -43 -34l-172 227zM532 985q77 0 138 -20.5t104 -62.5t59.5 -111.5t0.5 -161.5l-101 -572q-78 -39 -176 -58t-186 -19q-165 0 -249.5 72t-84.5 200q0 102 57.5 178.5t150.5 114t206 37.5q172 0 290 -56
l17 97q25 145 -41.5 217.5t-200.5 72.5q-151 0 -291 -100q-35 17 -35 53q21 17 47.5 33.5t70.5 38t103 34.5t121 13zM119 258q0 -97 67 -153t197 -56q167 0 283 55l61 349q-112 59 -289 59q-149 0 -234 -71t-85 -183z" />
    <glyph glyph-name="adieresis.ss03" horiz-adv-x="970" 
d="M375 1167q-27 0 -47.5 20.5t-20.5 47.5q0 26 20.5 45.5t47.5 19.5t46 -19t19 -46q0 -28 -19 -48t-46 -20zM770 1167q-27 0 -47.5 20.5t-20.5 47.5q0 26 20.5 45.5t47.5 19.5q28 0 47 -19t19 -46q0 -28 -19 -48t-47 -20zM532 985q77 0 138 -20.5t104 -62.5t59.5 -111.5
t0.5 -161.5l-101 -572q-78 -39 -176 -58t-186 -19q-165 0 -249.5 72t-84.5 200q0 102 57.5 178.5t150.5 114t206 37.5q172 0 290 -56l17 97q25 145 -41.5 217.5t-200.5 72.5q-151 0 -291 -100q-35 17 -35 53q21 17 47.5 33.5t70.5 38t103 34.5t121 13zM119 258
q0 -97 67 -153t197 -56q167 0 283 55l61 349q-112 59 -289 59q-149 0 -234 -71t-85 -183z" />
    <glyph glyph-name="agrave.ss03" horiz-adv-x="970" 
d="M715 1126q-8 -24 -33 -39l-264 238q20 47 59 61zM532 985q77 0 138 -20.5t104 -62.5t59.5 -111.5t0.5 -161.5l-101 -572q-78 -39 -176 -58t-186 -19q-165 0 -249.5 72t-84.5 200q0 102 57.5 178.5t150.5 114t206 37.5q172 0 290 -56l17 97q25 145 -41.5 217.5
t-200.5 72.5q-151 0 -291 -100q-35 17 -35 53q21 17 47.5 33.5t70.5 38t103 34.5t121 13zM119 258q0 -97 67 -153t197 -56q167 0 283 55l61 349q-112 59 -289 59q-149 0 -234 -71t-85 -183z" />
    <glyph glyph-name="amacron.ss03" horiz-adv-x="970" 
d="M807 1174h-490q-2 4 -2 16q0 16 13 49h491l2 -16q0 -28 -14 -49zM532 985q77 0 138 -20.5t104 -62.5t59.5 -111.5t0.5 -161.5l-101 -572q-78 -39 -176 -58t-186 -19q-165 0 -249.5 72t-84.5 200q0 102 57.5 178.5t150.5 114t206 37.5q172 0 290 -56l17 97
q25 145 -41.5 217.5t-200.5 72.5q-151 0 -291 -100q-35 17 -35 53q21 17 47.5 33.5t70.5 38t103 34.5t121 13zM119 258q0 -97 67 -153t197 -56q167 0 283 55l61 349q-112 59 -289 59q-149 0 -234 -71t-85 -183z" />
    <glyph glyph-name="aogonek.ss03" horiz-adv-x="970" 
d="M532 985q77 0 138 -20.5t104 -62.5t59.5 -111.5t0.5 -161.5l-101 -572q-104 -65 -168.5 -137.5t-64.5 -140.5q0 -38 23.5 -58t56.5 -20q46 0 104 37q11 -5 20 -18t9 -27q-71 -60 -156 -60q-61 0 -98 33.5t-37 93.5q0 121 166 246q-110 -26 -217 -26q-165 0 -249.5 72
t-84.5 200q0 102 57.5 178.5t150.5 114t206 37.5q172 0 290 -56l17 97q25 145 -41.5 217.5t-200.5 72.5q-151 0 -291 -100q-35 17 -35 53q21 17 47.5 33.5t70.5 38t103 34.5t121 13zM119 258q0 -97 67 -153t197 -56q167 0 283 55l61 349q-112 59 -289 59q-149 0 -234 -71
t-85 -183z" />
    <glyph glyph-name="aring.ss03" horiz-adv-x="970" 
d="M555 1049q-74 0 -116 43.5t-42 113.5q0 90 57.5 148.5t135.5 58.5q75 0 116.5 -44.5t41.5 -115.5q0 -92 -56 -148t-137 -56zM584 1354q-52 0 -89.5 -40t-37.5 -100q0 -47 26 -76.5t78 -29.5q59 0 93 36.5t34 102.5q0 107 -104 107zM532 985q77 0 138 -20.5t104 -62.5
t59.5 -111.5t0.5 -161.5l-101 -572q-78 -39 -176 -58t-186 -19q-165 0 -249.5 72t-84.5 200q0 102 57.5 178.5t150.5 114t206 37.5q172 0 290 -56l17 97q25 145 -41.5 217.5t-200.5 72.5q-151 0 -291 -100q-35 17 -35 53q21 17 47.5 33.5t70.5 38t103 34.5t121 13zM119 258
q0 -97 67 -153t197 -56q167 0 283 55l61 349q-112 59 -289 59q-149 0 -234 -71t-85 -183z" />
    <glyph glyph-name="atilde.ss03" horiz-adv-x="970" 
d="M319 1155q-36 4 -53 27q40 69 86 102t111 33q45 0 91 -22t87.5 -44t75.5 -22q70 0 108 90q41 0 58 -21q-24 -65 -69.5 -101t-98.5 -36q-46 0 -90.5 22t-85 44t-76.5 22q-44 0 -77 -23.5t-67 -70.5zM532 985q77 0 138 -20.5t104 -62.5t59.5 -111.5t0.5 -161.5l-101 -572
q-78 -39 -176 -58t-186 -19q-165 0 -249.5 72t-84.5 200q0 102 57.5 178.5t150.5 114t206 37.5q172 0 290 -56l17 97q25 145 -41.5 217.5t-200.5 72.5q-151 0 -291 -100q-35 17 -35 53q21 17 47.5 33.5t70.5 38t103 34.5t121 13zM119 258q0 -97 67 -153t197 -56
q167 0 283 55l61 349q-112 59 -289 59q-149 0 -234 -71t-85 -183z" />
    <glyph glyph-name="e.ss03" horiz-adv-x="997" 
d="M582 461h-410q-4 -46 -4 -72q0 -157 90 -248.5t242 -91.5q150 0 274 111q37 -15 41 -60q-73 -60 -147.5 -90t-182.5 -30q-179 0 -288 105.5t-109 299.5q0 137 41 251.5t111 190t162.5 117t195.5 41.5q149 0 235.5 -71.5t86.5 -180.5q0 -130 -91 -201t-247 -71zM586 915
q-148 0 -260.5 -104t-145.5 -285h414q107 0 175.5 51.5t68.5 143.5q0 88 -65 141t-187 53z" />
    <glyph glyph-name="eacute.ss03" horiz-adv-x="997" 
d="M489 1085q-19 15 -28 43l319 261q40 -21 49 -68zM582 461h-410q-4 -46 -4 -72q0 -157 90 -248.5t242 -91.5q150 0 274 111q37 -15 41 -60q-73 -60 -147.5 -90t-182.5 -30q-179 0 -288 105.5t-109 299.5q0 137 41 251.5t111 190t162.5 117t195.5 41.5q149 0 235.5 -71.5
t86.5 -180.5q0 -130 -91 -201t-247 -71zM586 915q-148 0 -260.5 -104t-145.5 -285h414q107 0 175.5 51.5t68.5 143.5q0 88 -65 141t-187 53z" />
    <glyph glyph-name="ecaron.ss03" horiz-adv-x="997" 
d="M645 1096q-28 -6 -55 0l-182 254q13 27 38 34l179 -217l249 222q27 -12 33 -41zM582 461h-410q-4 -46 -4 -72q0 -157 90 -248.5t242 -91.5q150 0 274 111q37 -15 41 -60q-73 -60 -147.5 -90t-182.5 -30q-179 0 -288 105.5t-109 299.5q0 137 41 251.5t111 190t162.5 117
t195.5 41.5q149 0 235.5 -71.5t86.5 -180.5q0 -130 -91 -201t-247 -71zM586 915q-148 0 -260.5 -104t-145.5 -285h414q107 0 175.5 51.5t68.5 143.5q0 88 -65 141t-187 53z" />
    <glyph glyph-name="ecircumflex.ss03" horiz-adv-x="997" 
d="M403 1090q-26 12 -32 40l268 259q28 9 53 0l182 -263q-14 -24 -43 -34l-172 227zM582 461h-410q-4 -46 -4 -72q0 -157 90 -248.5t242 -91.5q150 0 274 111q37 -15 41 -60q-73 -60 -147.5 -90t-182.5 -30q-179 0 -288 105.5t-109 299.5q0 137 41 251.5t111 190t162.5 117
t195.5 41.5q149 0 235.5 -71.5t86.5 -180.5q0 -130 -91 -201t-247 -71zM586 915q-148 0 -260.5 -104t-145.5 -285h414q107 0 175.5 51.5t68.5 143.5q0 88 -65 141t-187 53z" />
    <glyph glyph-name="edieresis.ss03" horiz-adv-x="997" 
d="M444 1167q-26 0 -46.5 20.5t-20.5 47.5q0 26 20.5 45.5t46.5 19.5q28 0 47 -19t19 -46q0 -28 -19 -48t-47 -20zM840 1167q-27 0 -47.5 20.5t-20.5 47.5q0 26 20.5 45.5t47.5 19.5t46 -19t19 -46q0 -28 -19 -48t-46 -20zM582 461h-410q-4 -46 -4 -72q0 -157 90 -248.5
t242 -91.5q150 0 274 111q37 -15 41 -60q-73 -60 -147.5 -90t-182.5 -30q-179 0 -288 105.5t-109 299.5q0 137 41 251.5t111 190t162.5 117t195.5 41.5q149 0 235.5 -71.5t86.5 -180.5q0 -130 -91 -201t-247 -71zM586 915q-148 0 -260.5 -104t-145.5 -285h414
q107 0 175.5 51.5t68.5 143.5q0 88 -65 141t-187 53z" />
    <glyph glyph-name="edotaccent.ss03" horiz-adv-x="997" 
d="M643 1178q-28 0 -49 21t-21 50q0 28 21 49t49 21q29 0 49.5 -21t20.5 -49q0 -29 -20.5 -50t-49.5 -21zM582 461h-410q-4 -46 -4 -72q0 -157 90 -248.5t242 -91.5q150 0 274 111q37 -15 41 -60q-73 -60 -147.5 -90t-182.5 -30q-179 0 -288 105.5t-109 299.5
q0 137 41 251.5t111 190t162.5 117t195.5 41.5q149 0 235.5 -71.5t86.5 -180.5q0 -130 -91 -201t-247 -71zM586 915q-148 0 -260.5 -104t-145.5 -285h414q107 0 175.5 51.5t68.5 143.5q0 88 -65 141t-187 53z" />
    <glyph glyph-name="egrave.ss03" horiz-adv-x="997" 
d="M784 1126q-8 -25 -32 -39l-265 238q19 47 60 61zM582 461h-410q-4 -46 -4 -72q0 -157 90 -248.5t242 -91.5q150 0 274 111q37 -15 41 -60q-73 -60 -147.5 -90t-182.5 -30q-179 0 -288 105.5t-109 299.5q0 137 41 251.5t111 190t162.5 117t195.5 41.5q149 0 235.5 -71.5
t86.5 -180.5q0 -130 -91 -201t-247 -71zM586 915q-148 0 -260.5 -104t-145.5 -285h414q107 0 175.5 51.5t68.5 143.5q0 88 -65 141t-187 53z" />
    <glyph glyph-name="emacron.ss03" horiz-adv-x="997" 
d="M877 1174h-490q-2 4 -2 16q0 19 12 49h492l2 -16q0 -28 -14 -49zM582 461h-410q-4 -46 -4 -72q0 -157 90 -248.5t242 -91.5q150 0 274 111q37 -15 41 -60q-73 -60 -147.5 -90t-182.5 -30q-179 0 -288 105.5t-109 299.5q0 137 41 251.5t111 190t162.5 117t195.5 41.5
q149 0 235.5 -71.5t86.5 -180.5q0 -130 -91 -201t-247 -71zM586 915q-148 0 -260.5 -104t-145.5 -285h414q107 0 175.5 51.5t68.5 143.5q0 88 -65 141t-187 53z" />
    <glyph glyph-name="eogonek.ss03" horiz-adv-x="997" 
d="M582 461h-410q-4 -46 -4 -72q0 -157 90 -248.5t242 -91.5q150 0 274 111q37 -15 41 -60q-66 -53 -135 -86q-172 -126 -172 -235q0 -38 23.5 -58t56.5 -20q46 0 104 37q11 -5 20 -18t9 -27q-71 -60 -156 -60q-61 0 -98 33.5t-37 93.5q0 108 139 226q-41 -6 -84 -6
q-179 0 -288 105.5t-109 299.5q0 137 41 251.5t111 190t162.5 117t195.5 41.5q149 0 235.5 -71.5t86.5 -180.5q0 -130 -91 -201t-247 -71zM586 915q-148 0 -260.5 -104t-145.5 -285h414q107 0 175.5 51.5t68.5 143.5q0 88 -65 141t-187 53z" />
    <glyph glyph-name="g.ss03" horiz-adv-x="1001" 
d="M1016 1036q-61 -79 -124.5 -102t-193.5 -25q156 -73 156 -286q0 -106 -46 -199.5t-130 -149.5q121 -91 121 -264q0 -170 -125.5 -286.5t-325.5 -116.5q-276 0 -381 168q24 35 66 49q85 -143 321 -143q164 0 263.5 97t99.5 226q0 154 -119 232q-64 -25 -139 -25
q-172 0 -268.5 90t-96.5 244q0 127 60 226.5t157.5 151.5t212.5 52h189q91 0 145 21.5t103 84.5q41 -12 55 -45zM778 616q0 56 -14.5 104.5t-45 90t-84.5 66t-126 24.5q-140 0 -238 -97.5t-98 -254.5q0 -125 75.5 -195.5t205.5 -70.5q145 0 235 97.5t90 235.5z" />
    <glyph glyph-name="gbreve.ss03" horiz-adv-x="1001" 
d="M537 1104q-100 0 -160.5 66t-50.5 180q25 9 59 6q-1 -92 44 -139.5t118 -47.5q76 0 138 49t87 138q32 0 53 -8q-27 -115 -101 -179.5t-187 -64.5zM1016 1036q-61 -79 -124.5 -102t-193.5 -25q156 -73 156 -286q0 -106 -46 -199.5t-130 -149.5q121 -91 121 -264
q0 -170 -125.5 -286.5t-325.5 -116.5q-276 0 -381 168q24 35 66 49q85 -143 321 -143q164 0 263.5 97t99.5 226q0 154 -119 232q-64 -25 -139 -25q-172 0 -268.5 90t-96.5 244q0 127 60 226.5t157.5 151.5t212.5 52h189q91 0 145 21.5t103 84.5q41 -12 55 -45zM778 616
q0 56 -14.5 104.5t-45 90t-84.5 66t-126 24.5q-140 0 -238 -97.5t-98 -254.5q0 -125 75.5 -195.5t205.5 -70.5q145 0 235 97.5t90 235.5z" />
    <glyph glyph-name="gcommaaccent.ss03" horiz-adv-x="1001" 
d="M518 1042q-18 0 -35 7q0 2 -1 17t-1 24q0 92 43.5 171.5t102.5 127.5q19 -6 26 -27q-45 -47 -70.5 -116t-25.5 -130q0 -47 4 -65q-23 -9 -43 -9zM1016 1036q-61 -79 -124.5 -102t-193.5 -25q156 -73 156 -286q0 -106 -46 -199.5t-130 -149.5q121 -91 121 -264
q0 -170 -125.5 -286.5t-325.5 -116.5q-276 0 -381 168q24 35 66 49q85 -143 321 -143q164 0 263.5 97t99.5 226q0 154 -119 232q-64 -25 -139 -25q-172 0 -268.5 90t-96.5 244q0 127 60 226.5t157.5 151.5t212.5 52h189q91 0 145 21.5t103 84.5q41 -12 55 -45zM778 616
q0 56 -14.5 104.5t-45 90t-84.5 66t-126 24.5q-140 0 -238 -97.5t-98 -254.5q0 -125 75.5 -195.5t205.5 -70.5q145 0 235 97.5t90 235.5z" />
    <glyph glyph-name="gdotaccent.ss03" horiz-adv-x="1001" 
d="M573 1178q-28 0 -48.5 21t-20.5 50q0 28 20.5 49t48.5 21q29 0 49.5 -21t20.5 -49q0 -29 -20.5 -50t-49.5 -21zM1016 1036q-61 -79 -124.5 -102t-193.5 -25q156 -73 156 -286q0 -106 -46 -199.5t-130 -149.5q121 -91 121 -264q0 -170 -125.5 -286.5t-325.5 -116.5
q-276 0 -381 168q24 35 66 49q85 -143 321 -143q164 0 263.5 97t99.5 226q0 154 -119 232q-64 -25 -139 -25q-172 0 -268.5 90t-96.5 244q0 127 60 226.5t157.5 151.5t212.5 52h189q91 0 145 21.5t103 84.5q41 -12 55 -45zM778 616q0 56 -14.5 104.5t-45 90t-84.5 66
t-126 24.5q-140 0 -238 -97.5t-98 -254.5q0 -125 75.5 -195.5t205.5 -70.5q145 0 235 97.5t90 235.5z" />
    <glyph glyph-name="g.ss04" horiz-adv-x="974" 
d="M999 1040q-53 -74 -106.5 -105t-132.5 -36q69 -90 69 -225q0 -171 -102.5 -278t-282.5 -107h-94q-91 0 -142.5 -43t-51.5 -105q0 -56 38.5 -88.5t114.5 -32.5h453q2 -4 2 -20q0 -31 -14 -53h-453q-112 0 -167.5 47.5t-55.5 134.5q0 70 44.5 126t135.5 81
q-125 78 -125 252q0 177 117.5 281t306.5 104h160q87 0 136 22.5t91 83.5q42 -7 59 -39zM453 360q140 0 220.5 86t80.5 232q0 131 -78 221h-139q-147 0 -237.5 -83t-90.5 -224q0 -108 64 -170t180 -62z" />
    <glyph glyph-name="gbreve.ss04" horiz-adv-x="974" 
d="M547 1104q-100 0 -160.5 66t-50.5 180q25 9 59 6q-1 -92 44 -139.5t118 -47.5q76 0 138 49t87 138q33 0 54 -8q-27 -115 -101.5 -179.5t-187.5 -64.5zM999 1040q-53 -74 -106.5 -105t-132.5 -36q69 -90 69 -225q0 -171 -102.5 -278t-282.5 -107h-94q-91 0 -142.5 -43
t-51.5 -105q0 -56 38.5 -88.5t114.5 -32.5h453q2 -4 2 -20q0 -31 -14 -53h-453q-112 0 -167.5 47.5t-55.5 134.5q0 70 44.5 126t135.5 81q-125 78 -125 252q0 177 117.5 281t306.5 104h160q87 0 136 22.5t91 83.5q42 -7 59 -39zM453 360q140 0 220.5 86t80.5 232
q0 131 -78 221h-139q-147 0 -237.5 -83t-90.5 -224q0 -108 64 -170t180 -62z" />
    <glyph glyph-name="gcommaaccent.ss04" horiz-adv-x="974" 
d="M528 1042q-16 0 -34 7q0 2 -1 17t-1 24q0 92 43 172t102 127q20 -7 27 -27q-45 -47 -71 -116.5t-26 -129.5q0 -47 4 -65q-23 -9 -43 -9zM999 1040q-53 -74 -106.5 -105t-132.5 -36q69 -90 69 -225q0 -171 -102.5 -278t-282.5 -107h-94q-91 0 -142.5 -43t-51.5 -105
q0 -56 38.5 -88.5t114.5 -32.5h453q2 -4 2 -20q0 -31 -14 -53h-453q-112 0 -167.5 47.5t-55.5 134.5q0 70 44.5 126t135.5 81q-125 78 -125 252q0 177 117.5 281t306.5 104h160q87 0 136 22.5t91 83.5q42 -7 59 -39zM453 360q140 0 220.5 86t80.5 232q0 131 -78 221h-139
q-147 0 -237.5 -83t-90.5 -224q0 -108 64 -170t180 -62z" />
    <glyph glyph-name="gdotaccent.ss04" horiz-adv-x="974" 
d="M584 1178q-28 0 -49 21t-21 50q0 28 21 49t49 21q29 0 49 -21t20 -49q0 -29 -20 -50t-49 -21zM999 1040q-53 -74 -106.5 -105t-132.5 -36q69 -90 69 -225q0 -171 -102.5 -278t-282.5 -107h-94q-91 0 -142.5 -43t-51.5 -105q0 -56 38.5 -88.5t114.5 -32.5h453q2 -4 2 -20
q0 -31 -14 -53h-453q-112 0 -167.5 47.5t-55.5 134.5q0 70 44.5 126t135.5 81q-125 78 -125 252q0 177 117.5 281t306.5 104h160q87 0 136 22.5t91 83.5q42 -7 59 -39zM453 360q140 0 220.5 86t80.5 232q0 131 -78 221h-139q-147 0 -237.5 -83t-90.5 -224q0 -108 64 -170
t180 -62z" />
    <glyph glyph-name="fi.ss01" horiz-adv-x="1030" 
d="M680 1280q-283 0 -336 -303l-4 -21h586l-168 -956q-18 -6 -39 -6t-39 6l160 893l-510 2l-160 -973q-27 -166 -116 -248t-218 -82q-50 0 -95 11.5t-66.5 22t-34.5 20.5q10 40 41 59q37 -21 71 -31t90 -10q211 0 252 248l164 983h-143v27q3 18 12 34h141l2 7
q14 87 45 155.5t71.5 111.5t92 71t103.5 39.5t110 11.5q180 0 275 -105q-5 -17 -20.5 -32t-35.5 -21q-47 44 -97 65t-134 21z" />
    <glyph glyph-name="fl.ss01" horiz-adv-x="1138" 
d="M1016 113q35 -21 35 -54q-85 -73 -191 -73q-95 0 -143.5 54.5t-30.5 156.5l178 1044q-86 39 -188 39q-56 0 -107.5 -16.5t-98 -50.5t-80.5 -95t-48 -143l-2 -19h283q2 -4 2 -16q0 -21 -13 -47l-282 2l-160 -973q-27 -166 -118 -248t-222 -82q-68 0 -117.5 18t-72.5 36
q10 40 41 59q37 -21 71 -31t90 -10q102 0 166 54.5t86 193.5l162 983h-141q-3 15 0 27q0 9 10 34h141l2 11q13 83 44 149.5t72.5 109.5t93 72t104 41.5t108.5 12.5q152 0 258 -64l-186 -1085q-12 -72 17.5 -110t92.5 -38q73 0 144 58z" />
    <glyph glyph-name="three.001" horiz-adv-x="978" 
d="M221 1315h752q0 -54 -47 -98l-424 -410q172 -5 283.5 -98.5t111.5 -264.5q0 -149 -66 -255.5t-174 -157.5t-245 -51q-138 0 -230.5 38.5t-138.5 92.5q16 40 49 57q62 -58 137 -88.5t193 -30.5q177 0 286 102.5t109 280.5q0 154 -105.5 235t-289.5 81h-33v12q3 27 33 59
l430 420h-643q-6 41 12 76z" />
    <glyph glyph-name="zero.osf" horiz-adv-x="1191" 
d="M524 -23q-208 0 -310.5 120.5t-102.5 328.5q0 143 38.5 268.5t109 220.5t177.5 150t236 55q201 0 302 -120t101 -328q0 -115 -21.5 -218.5t-66 -191t-109 -151t-155 -99t-199.5 -35.5zM537 51q95 0 172.5 33.5t129.5 91t87 136.5t51 167.5t16 186.5q0 178 -81 279.5
t-255 101.5q-116 0 -207 -51t-146.5 -138.5t-84.5 -196.5t-29 -231q0 -177 84 -278t263 -101z" />
    <glyph glyph-name="one.osf" horiz-adv-x="610" 
d="M483 1106q23 0 29 -4l-195 -1102q-15 -6 -38 -6q-22 0 -37 6l178 1010l-281 -142q-27 24 -24 64q317 160 340 169q14 5 28 5z" />
    <glyph glyph-name="two.osf" horiz-adv-x="948" 
d="M152 74h632q2 -4 2 -19q0 -22 -14 -55h-754q-2 4 -2 23q0 57 60 98q125 87 207.5 146.5t162 120.5t127.5 104.5t89 88t61.5 83.5t31.5 79t11 84q0 104 -67 164t-189 60q-165 0 -299 -142q-32 8 -39 45q148 168 352 168q146 0 233 -73.5t87 -214.5q0 -160 -146 -316
q-106 -114 -368 -300q-51 -37 -174 -122l-39 -24z" />
    <glyph glyph-name="three.osf" horiz-adv-x="946" 
d="M549 524q100 -24 162.5 -89t62.5 -177q0 -188 -124 -303t-326 -115q-224 0 -336 129q17 39 49 54q61 -64 125.5 -89.5t167.5 -25.5q162 0 264 92.5t102 243.5q0 116 -82.5 179.5t-251.5 63.5q-3 13 1 34.5t12 33.5q91 0 162.5 26t113.5 68.5t64 93t22 103.5q0 97 -55 151
t-162 54q-168 0 -303 -131q-38 12 -41 43q150 157 352 157q131 0 209 -67t78 -191q0 -121 -75.5 -211t-190.5 -127z" />
    <glyph glyph-name="four.osf" horiz-adv-x="1005" 
d="M702 209h154q3 -33 -12 -68h-154l-53 -303q-12 -4 -39 -4q-15 0 -35 4l53 303h-610q-4 12 -4 31q0 32 29 68l755 854q15 6 37 6q20 0 35 -6zM96 209h533l129 737l6 29l-23 -27z" />
    <glyph glyph-name="five.osf" horiz-adv-x="954" 
d="M338 -162q-131 0 -213 34t-119 79q16 39 53 57q29 -41 101.5 -70.5t189.5 -29.5q153 0 256 86.5t103 236.5q0 75 -22.5 128.5t-64.5 89t-111.5 56.5t-154.5 29.5t-202 8.5l96 547h622v-17q0 -21 -12 -59h-549l-69 -398q132 -1 229 -19.5t170 -60t110 -112.5t37 -172
q0 -191 -126.5 -302.5t-323.5 -111.5z" />
    <glyph glyph-name="six.osf" horiz-adv-x="1009" 
d="M985 1270q-93 -15 -189.5 -52t-193.5 -98.5t-178.5 -140t-144.5 -184.5t-91 -224q151 181 367 181q144 0 237 -82.5t93 -241.5q0 -203 -126 -331t-310 -128q-171 0 -265 106t-94 298q0 153 53.5 296t142.5 252.5t203.5 197t237.5 142t244 76.5q18 -18 14 -67zM537 680
q-107 0 -194 -47.5t-169 -136.5q-8 -49 -8 -113q0 -165 75.5 -254.5t217.5 -89.5q148 0 249 102t101 273q0 136 -78 201t-194 65z" />
    <glyph glyph-name="seven.osf" horiz-adv-x="917" 
d="M174 1087h766v-14q0 -49 -55 -129l-756 -1108q-43 10 -61 37l782 1137h-690v16q0 26 14 61z" />
    <glyph glyph-name="eight.osf" horiz-adv-x="983" 
d="M580 690q45 -28 76 -51t66 -56.5t56 -67t35 -78.5t14 -95q0 -91 -34 -162.5t-92 -115.5t-130.5 -66.5t-154.5 -22.5q-153 0 -249.5 69t-96.5 202q0 78 31 148.5t85 125.5t115 96.5t133 75.5q-63 42 -105.5 83.5t-73 102.5t-30.5 130q0 144 106 245t265 101q141 0 226 -74
t85 -193q0 -246 -327 -397zM303 1016q0 -48 17.5 -91t51.5 -79t68 -62.5t82 -56.5q164 74 238 152.5t74 191.5q0 94 -66 152.5t-182 58.5q-124 0 -203.5 -75.5t-79.5 -190.5zM426 45q85 0 157 29t120.5 94.5t48.5 157.5q0 59 -16 104.5t-58 86.5t-70 61t-95 62q-11 7 -17 11
q-2 0 -2 2q-347 -162 -347 -391q0 -105 78 -161t201 -56z" />
    <glyph glyph-name="nine.osf" horiz-adv-x="999" 
d="M532 1120q174 0 265.5 -113.5t91.5 -310.5q0 -206 -58.5 -366t-166 -263.5t-253 -160t-325.5 -66.5q-10 34 6 70q286 18 467 154.5t232 402.5q-152 -125 -345 -125q-144 0 -235.5 88t-91.5 256q0 188 116 311t297 123zM461 410q183 0 342 133q8 60 8 145q0 173 -73 268
t-216 95q-145 0 -236 -103t-91 -254q0 -141 75 -212.5t191 -71.5z" />
    <glyph glyph-name="zero.tf" horiz-adv-x="1095" 
d="M479 -23q-362 0 -362 480q0 146 21.5 278t65.5 245t107.5 195t152.5 128.5t195 46.5q177 0 266 -124t89 -356q0 -194 -33.5 -355.5t-98.5 -282t-168 -188t-235 -67.5zM494 49q94 0 170 50t124 131t80.5 190.5t46 222t13.5 231.5q0 404 -283 404q-94 0 -171.5 -52.5
t-127 -136.5t-83.5 -194.5t-48 -221t-14 -220.5q0 -95 15.5 -166.5t49 -126t91 -83t137.5 -28.5z" />
    <glyph glyph-name="one.tf" horiz-adv-x="1095" 
d="M852 66q5 -32 -12 -66h-678q-5 35 10 66h320l204 1153l-364 -179q-24 27 -21 68l418 207q10 4 31 4q16 0 28 -4l-221 -1249h285z" />
    <glyph glyph-name="two.tf" horiz-adv-x="1095" 
d="M223 76h695q6 -43 -15 -76h-811q-4 12 -4 23q0 42 59 98q376 353 474 454q168 173 218 281q35 77 35 164q0 113 -72 184.5t-202 71.5q-61 0 -112.5 -13t-94.5 -39.5t-71 -50t-64 -59.5q-38 10 -49 47q169 189 399 189q154 0 249 -86.5t95 -237.5q0 -176 -126.5 -331
t-519.5 -518q-56 -52 -85 -79l-24 -24z" />
    <glyph glyph-name="three.tf" horiz-adv-x="1095" 
d="M416 -20q-129 0 -214.5 35.5t-127.5 82.5q14 38 53 60q57 -52 125 -80.5t172 -28.5q84 0 158.5 25t132.5 73t91.5 125t33.5 174q0 146 -102 222.5t-296 76.5h-34q0 17 4 23q3 20 30 47l453 424h-639q-2 4 -2 18q0 27 14 58h744q0 -57 -54 -107l-432 -401
q175 -5 284.5 -93.5t109.5 -252.5q0 -95 -28 -175t-76 -135.5t-112.5 -94.5t-137.5 -57.5t-150 -18.5z" />
    <glyph glyph-name="four.tf" horiz-adv-x="1095" 
d="M797 457h161q0 -19 -2 -29q0 -20 -12 -41h-160l-67 -387q-24 -4 -39 -4q-13 0 -37 4l68 387h-596q-25 73 37 162l557 809q30 -2 65 -29l-549 -797q-30 -50 -28 -75h526l57 319q24 4 39 4q13 0 37 -4z" />
    <glyph glyph-name="five.tf" horiz-adv-x="1095" 
d="M434 -29q-222 0 -346 113q18 37 57 59q36 -40 112.5 -71t184.5 -31q183 0 288.5 114.5t105.5 309.5q0 135 -76 211t-219 76q-59 0 -117.5 -16t-100.5 -32t-63 -16q-19 0 -31 6l109 621h672v-17q0 -23 -15 -59h-594l-84 -471q123 57 236 57q172 0 267 -89.5t95 -252.5
q0 -233 -130.5 -372.5t-350.5 -139.5z" />
    <glyph glyph-name="six.tf" horiz-adv-x="1095" 
d="M1004 1268q-90 -18 -180.5 -54t-182 -93t-168.5 -128.5t-139 -166.5t-94 -201q65 70 160 113.5t196 43.5q152 0 250 -87.5t98 -258.5q0 -216 -124.5 -341.5t-313.5 -125.5q-183 0 -282 106.5t-99 301.5q0 159 52.5 303t139 251t200 192.5t233.5 137.5t241 76
q16 -22 13 -69zM582 711q-104 0 -200 -51.5t-165 -129.5q-12 -68 -12 -141q0 -169 78.5 -259.5t230.5 -90.5q149 0 250.5 100.5t101.5 284.5q0 145 -81 216t-203 71z" />
    <glyph glyph-name="seven.tf" horiz-adv-x="1095" 
d="M1096 1313q0 -1 1 -7t1 -10q0 -40 -60 -127l-807 -1196q-43 7 -61 37l829 1227h-753v33q3 22 12 43h838z" />
    <glyph glyph-name="eight.tf" horiz-adv-x="1095" 
d="M717 662q184 -126 184 -295q0 -97 -35.5 -173.5t-95 -122.5t-133 -70t-154.5 -24q-169 0 -270.5 77.5t-101.5 236.5q0 75 30 147t79.5 127.5t102 97t107.5 70.5q-76 48 -115 110t-39 150q0 154 116.5 256.5t279.5 102.5q149 0 233 -76.5t84 -208.5q0 -70 -25 -135.5
t-66.5 -116t-86 -87.5t-94.5 -66zM354 1004q0 -53 16.5 -93.5t54 -73.5t74.5 -55.5t101 -54.5q42 -21 62 -33q251 147 251 359q0 107 -67.5 167t-186.5 60q-128 0 -216.5 -79.5t-88.5 -196.5zM496 47q140 0 234.5 78t94.5 225q0 104 -67 176.5t-187 130.5q-24 11 -86 43
q-51 -24 -102 -63t-95.5 -89.5t-72 -115t-27.5 -129.5q0 -131 84 -193.5t224 -62.5z" />
    </font>
</defs>
</svg>
